<svg id="Layer_1" data-name="Layer 1" xmlns="http://www.w3.org/2000/svg" viewBox="0 0 543.21 518.35"><defs><style>.cls-1{fill:#ff48f9;}.cls-2{fill:#231f20;}.cls-3{fill:#fff;}.cls-4{fill:#4812cc;}</style></defs><title>dungdetienganhcannganbuocban</title><rect class="cls-1" x="8.79" y="46.45" width="517.42" height="55.76" transform="translate(-3.56 14.28) rotate(-3.04)"/><path class="cls-2" d="M9.87,116.72l-3-57.27.8-.05L525.13,31.94l3,57.28-.8,0ZM8.52,61,11.39,115,526.48,87.7l-2.87-54.08Z"/><polygon class="cls-3" points="425.72 31.54 451.42 21.82 451.8 20.81 452.94 21.24 454.08 20.81 454.46 21.82 480.16 31.54 477.28 39.16 452.94 29.96 428.6 39.16 425.72 31.54"/><path class="cls-2" d="M453.21,22.74l.09.24,24.93,9.43-1.82,4.82-23.47-8.88-23.47,8.88-1.82-4.82L452.58,23l.09-.24.27.11.27-.11m-2.29-3.87-.67,1.79L426.59,29.6l-2.8,1.06,1.06,2.81,1.81,4.82,1.06,2.81L430.53,40l22.41-8.48L475.35,40l2.81,1.06,1.06-2.81L481,33.47l1.06-2.81-2.81-1.06-23.66-9L455,18.88l-2,.76-2-.77Z"/><polygon class="cls-3" points="420.75 239.98 419.61 240.41 419.22 239.4 393.52 229.68 396.4 222.06 420.75 231.26 445.09 222.06 447.97 229.68 422.27 239.4 421.89 240.41 420.75 239.98"/><path class="cls-2" d="M444.22,224l1.82,4.82-24.93,9.43-.09.23-.27-.1-.27.1-.09-.23-24.93-9.43,1.82-4.82,23.47,8.87L444.22,224m-48.69-3.87-1.06,2.81-1.82,4.82-1.06,2.8,2.81,1.06,23.66,8.95.67,1.78,2-.76,2,.76.67-1.78,23.66-8.95,2.8-1.06-1.06-2.8L447,222.93,446,220.12l-2.8,1.06-22.41,8.48-22.41-8.48-2.81-1.06Z"/><polygon class="cls-3" points="96.11 132.8 121.81 123.08 122.19 122.07 123.33 122.5 124.47 122.07 124.85 123.08 150.55 132.8 147.67 140.42 123.33 131.22 98.98 140.42 96.11 132.8"/><path class="cls-2" d="M123.6,124l.09.24,24.93,9.43-1.82,4.82-23.47-8.88-23.47,8.88L98,133.67,123,124.24l.09-.24.27.11.27-.11m1.75-3.86-2,.76-2-.76-.67,1.78L97,130.86l-2.81,1.06,1.06,2.81,1.82,4.82,1.06,2.81,2.81-1.06,22.41-8.48,22.41,8.48,2.8,1.06,1.06-2.81,1.83-4.82,1-2.81-2.8-1.06L126,121.92l-.67-1.78Z"/><rect class="cls-3" x="246.82" y="407.46" width="29.95" height="8.46"/><path class="cls-2" d="M275.27,409v5.46H248.32V409h26.95m3-3H245.32v11.46h32.95V406Z"/><rect class="cls-3" x="155.4" y="3.55" width="8.46" height="29.96" transform="translate(69.13 151.32) rotate(-62.35)"/><path class="cls-2" d="M149,9.85l23.87,12.52-2.54,4.84L146.42,14.68,149,9.85m-1.27-4L146.3,8.46l-2.53,4.83L142.37,16,145,17.34,168.9,29.87l2.66,1.39L173,28.6l2.54-4.83,1.39-2.66-2.66-1.39L150.35,7.19,147.69,5.8Z"/><rect class="cls-3" x="141.88" y="121.34" width="29.97" height="8.46" transform="translate(-15.73 228.45) rotate(-69.47)"/><path class="cls-2" d="M159,112l5.11,1.92-9.45,25.26-5.11-1.92L159,112m-1.75-3.86-1.06,2.81-9.45,25.26L145.73,139l2.8,1.05,5.11,1.92,2.81,1.05,1.06-2.81L167,115l1-2.81-2.8-1-5.11-1.91-2.81-1.06Z"/><path class="cls-3" d="M487.22,39.84c-.73-.71-7.14-7.05-7.25-11.7-.06-2.82,1.51-5.25,3-7.6a17.15,17.15,0,0,0,2.46-4.75c.61-2.45-3.52-5.34-5-6.15L479,8.86,483.42,2l1.24.71c.24.14,6,3.49,8.33,9,1.48,3.48-.55,7.14-2.34,10.37-1.1,2-2.15,3.86-2.35,5.49-.15,1.16,2.37,4.59,4.71,7l1.14,1.14-5.94,5.13Z"/><path class="cls-2" d="M483.91,4s5.54,3.17,7.69,8.25c2,4.69-4.18,10.3-4.79,15.09-.34,2.69,5.14,8.2,5.14,8.2l-3.69,3.19s-6.69-6.49-6.79-10.65,4.41-7.81,5.44-11.95-5.74-7.84-5.74-7.84L483.91,4m-1-4-1.54,2.41L478.64,6.7l-1.73,2.71L479.73,11c2.39,1.32,4.51,3.54,4.27,4.48a16,16,0,0,1-2.26,4.29c-1.57,2.43-3.34,5.18-3.27,8.46.06,2.42,1.39,5.26,4.08,8.67a42.57,42.57,0,0,0,3.63,4.06l2,1.91L490.23,41l3.68-3.19,2.44-2.1-2.27-2.28c-2.07-2.09-4.07-4.82-4.28-5.83A18.2,18.2,0,0,1,492,22.79c1.86-3.35,4.17-7.52,2.41-11.68-2.53-5.95-8.71-9.54-9-9.69L482.92,0Z"/><path class="cls-3" d="M133,249.85c-.73-.71-7.13-7-7.25-11.69-.06-2.82,1.51-5.26,3-7.61a17.24,17.24,0,0,0,2.46-4.74c.61-2.47-3.51-5.35-5-6.16l-1.41-.77,4.38-6.85,1.24.71c.24.14,6,3.48,8.33,9,1.48,3.49-.55,7.14-2.34,10.37a17.57,17.57,0,0,0-2.35,5.49c-.15,1.16,2.37,4.6,4.72,7l1.13,1.14L134,250.81Z"/><path class="cls-2" d="M129.66,214s5.54,3.17,7.7,8.26c2,4.69-4.19,10.3-4.8,15.08-.34,2.69,5.14,8.21,5.14,8.21L134,248.77s-6.7-6.48-6.8-10.65,4.41-7.81,5.44-12-5.74-7.84-5.74-7.84l2.74-4.29m-1-4-1.54,2.41-2.74,4.3-1.73,2.71,2.82,1.54c2.39,1.31,4.51,3.53,4.27,4.47a16.26,16.26,0,0,1-2.25,4.3c-1.57,2.42-3.35,5.17-3.27,8.45,0,2.43,1.39,5.26,4.07,8.67a43.45,43.45,0,0,0,3.63,4.07l2,1.91L136,251l3.68-3.18,2.44-2.11-2.27-2.28c-2.07-2.08-4.07-4.82-4.28-5.83a18,18,0,0,1,2.16-4.83c1.86-3.35,4.17-7.52,2.41-11.68-2.53-5.95-8.7-9.54-9-9.69L128.67,210Z"/><path class="cls-3" d="M155.49,103.48c-20.37,0-29.87-9.59-29.89-30.17l0-33.49,25.52,0,0,33.49c0,5.48,2.36,6.18,4.4,6.18a3.81,3.81,0,0,0,3.21-1.31c.8-1,1.2-2.65,1.2-4.88l0-33.49,21.82,0V20.45h8.46v30h-4.82l0,22.82c0,10.21-2.27,17.59-7,22.54-4.9,5.16-12.37,7.68-22.84,7.69Z"/><path class="cls-2" d="M188.67,22v27h-4.83l0,24.32c0,19.08-8.07,28.71-28.31,28.73h-.07c-20.19,0-28.37-9.62-28.39-28.67l0-32,22.53,0,0,32c0,5.23,2.11,7.68,5.9,7.68h0c3.8,0,5.91-2.45,5.9-7.69l0-32,21.81,0V22h5.46m3-3H180.21V38.26l-18.82,0h-3v3l0,32a6.79,6.79,0,0,1-.88,4c-.17.22-.58.74-2,.74-1.16,0-2.9,0-2.91-4.68l0-32v-3h-3l-22.52,0h-3v3l0,32c0,21.31,10.29,31.67,31.39,31.67h.07c10.91,0,18.73-2.68,23.93-8.16,5-5.24,7.39-13,7.38-23.58l0-21.31h4.82V19Z"/><polygon class="cls-3" points="189.92 39.74 221.32 39.71 232.8 64.94 232.78 39.7 258.3 39.67 258.37 101.76 227.75 101.8 215.49 76.3 215.51 101.81 189.99 101.84 189.92 39.74"/><path class="cls-2" d="M256.8,41.17l.07,59.1-28.18,0L214.57,70.93H214l0,29.37-22.52,0-.07-59.1,28.94,0,13.36,29.37h.59l0-29.37,22.52,0m3-3h-3l-22.53,0h-3v3l0,16.81-8.21-18-.8-1.76h-1.94l-28.93,0h-3v3l.07,59.09v3h3l22.53,0h3v-3l0-17.42,9,18.71.82,1.7h1.88l28.18,0h3v-3l-.07-59.09v-3Z"/><path class="cls-3" d="M296.46,103.33c-20.47,0-34.78-13.42-34.8-32.62S275.94,38.05,296.44,38c17.87,0,31.69,11.28,32.91,26.84l.13,1.61-25.09,0-.41-.85c-1-2.1-3.57-3.36-6.82-3.36a7.63,7.63,0,0,0-5.76,2.35,8.66,8.66,0,0,0-2.19,6c0,4.58,1.94,9.5,7.3,10l0-13.55,32.86,0,0,34.58-17.42,0V99.42a29.58,29.58,0,0,1-15.46,3.91Z"/><path class="cls-2" d="M296.49,39.53c17.69,0,30.25,11.29,31.36,25.46l-22.52,0c-1.1-2.28-3.79-4.21-8.17-4.21h0c-5.65,0-9.44,4.23-9.43,9.89s2.79,11.39,9.46,11.55h.36a7.6,7.6,0,0,0,5.54-2v-.93H298l0-10.72,29.87,0,0,31.57H313.47V96.57c-4.21,3.3-9.78,5.25-16.95,5.26h-.05c-19.71,0-33.28-13.07-33.3-31.12s13.55-31.16,33.28-31.18h.05m0-3h-.05c-10.27,0-19.54,3.43-26.11,9.64a33.25,33.25,0,0,0-10.17,24.55,33.21,33.21,0,0,0,10.21,24.5c6.57,6.19,15.84,9.61,26.09,9.61h.06a32.35,32.35,0,0,0,14-2.9v1.28h20.42v-3l0-31.58V68h.24l-.26-3.23c-1.28-16.35-15.73-28.22-34.35-28.22ZM295,78.79c-2-.76-4.3-2.79-4.3-8.11a7.23,7.23,0,0,1,1.78-5,6.21,6.21,0,0,1,4.66-1.87c2.27,0,4.09.68,5.05,1.84H295v3l0,10.14Z"/><polygon class="cls-3" points="426.79 39.49 479.48 39.43 479.5 60.16 452.34 60.19 452.34 60.99 477.05 60.96 477.08 80 452.36 80.03 452.36 80.83 479.52 80.8 479.54 101.52 426.86 101.58 426.79 39.49"/><path class="cls-2" d="M478,40.93l0,17.73-27.16,0v3.8l24.72,0v16l-24.71,0v3.8l27.16,0L478,100l-49.68.06L428.29,41l49.69,0m3-3h-3l-49.68,0h-3v3l.07,59.09v3h3l49.69-.06h3v-3l0-17.73v-3h-2.45V61.66H481v-3l0-17.73v-3Z"/><polygon class="cls-3" points="19.83 164.33 1.53 164.34 1.5 141.25 63.55 141.19 63.58 164.28 45.27 164.3 45.31 203.3 19.88 203.33 19.83 164.33"/><path class="cls-2" d="M62.05,142.69l0,20.09-18.3,0,0,39-22.44,0,0-39L3,162.84l0-20.09,59.05-.06m3-3h-3l-59,.06H0v3l0,20.09v3h18.3l0,36v3h3l22.43,0h3v-3l0-36,15.31,0h3v-3l0-20.1v-3Z"/><rect class="cls-3" x="66.91" y="141.17" width="25.52" height="62.09" transform="translate(-0.19 0.09) rotate(-0.06)"/><path class="cls-2" d="M90.9,142.66,91,201.75l-22.53,0-.06-59.09,22.52,0m3-3h-3l-22.52,0h-3v3l.06,59.1v3h3l22.52,0h3v-3l-.07-59.1v-3Z"/><polygon class="cls-3" points="96.99 141.15 149.68 141.09 149.7 161.82 122.54 161.85 122.54 162.65 147.25 162.62 147.27 181.66 122.56 181.69 122.56 182.49 149.72 182.46 149.74 203.19 97.06 203.24 96.99 141.15"/><path class="cls-2" d="M148.18,142.59l0,17.73-27.17,0v3.8l24.71,0,0,16-24.71,0V184l27.16,0,0,17.73-49.68.05-.07-59.09,49.69-.06m3-3h-3l-49.68.06h-3v3l.07,59.09v3h3l49.68-.05h3v-3l0-17.72v-3h-2.45v-.8l0-16v-.8h2.45v-3l0-17.73v-3Z"/><polygon class="cls-3" points="153.42 141.09 184.82 141.05 196.3 166.28 196.28 141.04 221.8 141.01 221.87 203.11 191.25 203.14 178.99 177.64 179.01 203.15 153.49 203.18 153.42 141.09"/><path class="cls-2" d="M220.3,142.52l.06,59.09-28.17,0-14.12-29.36h-.59l0,29.38-22.52,0-.06-59.09,28.93,0,13.36,29.36h.59l0-29.38,22.52,0m3-3h-3l-22.53,0h-3v3l0,16.81-8.21-18-.8-1.76h-1.93l-28.94,0h-3v3l.06,59.09v3h3l22.53,0h3v-3l0-17.41,9,18.7.82,1.7h1.88l28.18,0h3v-3l-.06-59.1v-3Z"/><path class="cls-3" d="M260,204.67c-20.47,0-34.78-13.41-34.8-32.61s14.28-32.67,34.78-32.69c17.87,0,31.69,11.29,32.91,26.84l.13,1.62-25.09,0-.41-.84c-1-2.11-3.57-3.37-6.82-3.37-4.69,0-8,3.45-8,8.39,0,4.57,1.94,9.5,7.3,10l0-13.55,32.86,0,0,34.57-17.42,0v-2.28a29.67,29.67,0,0,1-15.46,3.9Z"/><path class="cls-2" d="M260,140.87c17.69,0,30.25,11.29,31.36,25.46l-22.52,0c-1.1-2.27-3.79-4.21-8.17-4.21h0c-5.65,0-9.44,4.23-9.43,9.89s2.79,11.39,9.46,11.55H261a7.58,7.58,0,0,0,5.53-2v-.93h-5.06V170l29.86,0,0,31.57-14.42,0v-3.63c-4.21,3.29-9.78,5.24-16.95,5.25H260c-19.71,0-33.28-13.06-33.3-31.11s13.55-31.17,33.29-31.19h0m0-3h0c-10.28,0-19.55,3.44-26.12,9.64a34.61,34.61,0,0,0,0,49.05c6.57,6.2,15.84,9.61,26.09,9.61H260a32.35,32.35,0,0,0,14-2.9v1.28h3l14.42,0h3v-3l0-31.57v-.63h.24l-.26-3.23c-1.28-16.35-15.73-28.22-34.35-28.22Zm-1.48,42.27c-2-.77-4.3-2.8-4.3-8.11,0-4.12,2.58-6.88,6.44-6.89,2.27,0,4.09.68,5.05,1.85h-7.21v13.14Z"/><path class="cls-3" d="M337.45,140.89l35.47,0,18.68,62.07-27.33,0-2.21-9.37-13.65,0L346.23,203l-27.33,0ZM353.14,173h4.15L355.21,164Z"/><path class="cls-2" d="M371.8,142.35l17.78,59.07-24.13,0-2.2-9.37-16,0L345,201.47l-24.13,0,17.65-59.11,33.24,0m-20.55,32.1h7.93l-2.79-12H354l-2.77,12M374,139.35H371.8l-33.24,0h-2.23l-.64,2.14L318,200.64l-1.15,3.86h4l24.12,0h2.38l.54-2.32,1.65-7.05,11.27,0,1.65,7.06.55,2.31h2.38l24.12,0h4l-1.16-3.86-17.78-59.07-.64-2.14Zm-19,32.1.18-.81.19.81Z"/><polygon class="cls-3" points="393.92 140.83 425.32 140.79 436.8 166.02 436.77 140.78 462.29 140.75 462.36 202.84 431.74 202.88 419.48 177.38 419.51 202.89 393.99 202.92 393.92 140.83"/><path class="cls-2" d="M460.8,142.25l.06,59.1-28.17,0L418.57,172H418l0,29.37-22.53,0-.06-59.1,28.93,0,13.36,29.37h.59l0-29.37,22.53,0m3-3h-3l-22.52,0h-3v3l0,16.81-8.2-18-.8-1.76h-1.94l-28.93,0h-3v3l.06,59.09v3h3l22.52,0h3v-3L421,184l9,18.71.82,1.7h1.89l28.17,0h3v-3l-.06-59.09v-3Z"/><polygon class="cls-3" points="466.88 140.75 492.41 140.72 492.43 160.22 506.89 160.2 506.87 140.7 532.39 140.68 532.46 202.77 506.94 202.8 506.92 183.29 492.45 183.31 492.48 202.81 466.95 202.84 466.88 140.75"/><path class="cls-2" d="M530.89,142.18l.07,59.09-22.52,0,0-19.5-17.46,0,0,19.5-22.52,0-.06-59.1,22.52,0,0,19.5,17.46,0,0-19.5,22.52,0m3-3h-3l-22.52,0h-3v3l0,16.51H493.93l0-16.5v-3h-3l-22.53,0h-3v3l.06,59.09v3h3l22.53,0h3v-19.5h11.46l0,16.5v3h3l22.52,0h3v-3l-.07-59.1v-3Z"/><path class="cls-3" d="M41.05,306.21c-20.42,0-34.7-13.41-34.72-32.61S20.58,240.93,41,240.91c18.15,0,31.7,11.73,33,28.53l.12,1.62-25.19,0-.36-1c-1.25-3.4-3.37-4.92-6.85-4.92-4.72,0-7.87,3.38-7.87,8.39s3.17,8.37,7.86,8.37c3.51,0,5.62-1.53,6.87-4.94l.36-1,25.19,0L74,277.61c-1.26,16.82-14.8,28.58-32.93,28.6Z"/><path class="cls-2" d="M41.07,242.41c17.69,0,30.26,11.55,31.45,27.15l-22.52,0c-1.18-3.2-3.38-5.9-8.26-5.9h0c-5.66,0-9.36,4.23-9.36,9.89s3.72,9.87,9.36,9.87h0c4.89,0,7.08-2.71,8.26-5.92l22.52,0c-1.16,15.62-13.72,27.2-31.43,27.22h-.05c-19.71,0-33.2-13.06-33.22-31.11S21.29,242.43,41,242.41h0m0-3h0c-10.27,0-19.53,3.44-26.08,9.65a34.72,34.72,0,0,0,0,49c6.55,6.2,15.81,9.61,26.06,9.61h.05c18.95,0,33.11-12.35,34.42-30l.24-3.23H72.53l-22.52,0h-2.1l-.72,2c-1,2.84-2.57,3.94-5.44,3.95-3.87,0-6.37-2.7-6.38-6.87a7.34,7.34,0,0,1,1.76-5,6.08,6.08,0,0,1,4.6-1.87c2.88,0,4.41,1.11,5.46,3.94l.72,2H50l22.53,0h3.23l-.25-3.23C74.16,251.71,60,239.41,41.07,239.41Z"/><path class="cls-3" d="M90.36,242.46l35.46,0,18.69,62.08-27.33,0L115,295.16H101.32l-2.18,9.37-27.33,0Zm15.69,32.06h4.15l-2.08-8.94Z"/><path class="cls-2" d="M124.71,243.92,142.49,303l-24.13,0-2.2-9.37-16,0L98,303.05l-24.13,0L91.48,244l33.23,0M104.16,276h7.93l-2.79-12h-2.37l-2.77,12m22.78-35.1h-2.23l-33.24,0H89.24l-.64,2.14L71,302.21l-1.15,3.87h4l24.12,0h2.38l.54-2.31,1.65-7.06h11.27l1.65,7L116,306h2.38l24.12,0h4l-1.16-3.86-17.78-59.07-.64-2.14Zm-19,32.1.18-.81.19.81Z"/><polygon class="cls-3" points="146.83 242.4 178.23 242.36 189.71 267.59 189.68 242.35 215.2 242.32 215.27 304.42 184.65 304.45 172.39 278.95 172.42 304.46 146.9 304.49 146.83 242.4"/><path class="cls-2" d="M213.71,243.83l.06,59.09-28.17,0-14.12-29.36h-.59l0,29.38-22.53,0-.06-59.09,28.93,0,13.36,29.37h.59l0-29.38,22.53,0m3-3h-3l-22.52,0h-3v3l0,16.81-8.21-18-.8-1.76h-1.93l-28.93,0h-3v3l.06,59.09v3h3l22.52,0h3v-3l0-17.41,9,18.7.82,1.7h1.89l28.17,0h3v-3l-.06-59.1v-3Z"/><polygon class="cls-3" points="243.41 242.29 274.81 242.26 286.29 267.49 286.27 242.25 311.79 242.22 311.86 304.31 281.24 304.35 268.98 278.85 269 304.36 243.48 304.39 243.41 242.29"/><path class="cls-2" d="M310.29,243.72l.07,59.09-28.18,0-14.12-29.36h-.59l0,29.38-22.52,0-.06-59.09,28.93,0,13.36,29.36h.59l0-29.38,22.52,0m3-3h-3l-22.52,0h-3v3l0,16.8-8.21-18-.8-1.76h-1.93l-28.94,0h-3v3l.06,59.09v3h3l22.53,0h3v-3l0-17.42,9,18.7.82,1.71h1.88l28.18,0h3v-3l-.07-59.09v-3Z"/><path class="cls-3" d="M350,305.87c-20.47,0-34.78-13.41-34.8-32.61a31.77,31.77,0,0,1,9.7-23.45c6.29-5.95,15.2-9.23,25.08-9.24,17.87,0,31.69,11.29,32.91,26.85L383,269l-25.09,0-.41-.85c-1-2.11-3.57-3.36-6.82-3.36a7.63,7.63,0,0,0-5.76,2.35,8.66,8.66,0,0,0-2.19,6c0,4.58,1.94,9.5,7.3,10l0-13.55,32.87,0,0,34.57-17.42,0V302a29.47,29.47,0,0,1-15.45,3.9Z"/><path class="cls-2" d="M350,242.07c17.69,0,30.25,11.29,31.36,25.46l-22.52,0c-1.1-2.28-3.79-4.21-8.17-4.21h0c-5.65,0-9.44,4.23-9.43,9.88s2.79,11.4,9.46,11.56H351a7.59,7.59,0,0,0,5.54-2v-.93H351.5V271.2l29.86,0,0,31.58H367v-3.63c-4.21,3.3-9.78,5.25-16.95,5.25h0c-19.72,0-33.29-13.06-33.31-31.11s13.55-31.17,33.29-31.19h0m0-3h-.05c-10.27,0-19.54,3.44-26.11,9.65a34.61,34.61,0,0,0,0,49c6.57,6.19,15.84,9.6,26.1,9.6H350A32.2,32.2,0,0,0,364,304.48v1.28h20.43v-3l0-31.57v-.63h.24l-.26-3.23c-1.28-16.36-15.73-28.23-34.35-28.23Zm-1.48,42.27c-2-.76-4.3-2.79-4.3-8.11a7.21,7.21,0,0,1,1.78-5,6.21,6.21,0,0,1,4.66-1.87c2.27,0,4.09.67,5.05,1.84h-7.21v13.14Z"/><path class="cls-3" d="M403,242.12l35.46,0,18.69,62.07-27.34,0-2.2-9.36H413.94l-2.18,9.37-27.33,0Zm15.69,32.06h4.15l-2.09-8.94Z"/><path class="cls-2" d="M437.33,243.58l17.78,59.08-24.13,0-2.2-9.37-16,0-2.18,9.37-24.13,0,17.65-59.11,33.24,0m-20.55,32.1h7.93l-2.79-12h-2.37l-2.77,12m22.78-35.1h-2.23l-33.24,0h-2.23l-.64,2.14-17.65,59.11-1.16,3.87h4l24.12,0H413l.54-2.32,1.64-7.05H426.4l1.66,7.05.55,2.32H431l24.12,0h4L458,301.79,440.2,242.72l-.64-2.14Zm-19,32.1.19-.81.19.81Z"/><polygon class="cls-3" points="459.45 242.06 490.85 242.02 502.33 267.25 502.3 242.01 527.82 241.98 527.89 304.08 497.27 304.11 485.01 278.61 485.04 304.12 459.51 304.15 459.45 242.06"/><path class="cls-2" d="M526.32,243.49l.07,59.09-28.18,0-14.12-29.36h-.59l0,29.38-22.53,0L461,243.56l28.93,0,13.36,29.37h.59l0-29.38,22.52,0m3-3h-3l-22.52,0h-3v3l0,16.81-8.21-18-.8-1.76h-1.93l-28.93,0h-3v3l.06,59.09v3h3l22.52,0h3v-3l0-17.41,9,18.7.82,1.7h1.89l28.17,0h3v-3l-.07-59.09v-3Z"/><path class="cls-3" d="M167.35,343.68l35.92,0c14.88,0,21.5,5.12,21.51,16.59,0,5.89-2.73,11-6.77,13.28,5,2.45,8.23,8,8.23,14.57,0,11.7-7.15,17.64-21.3,17.65l-37.52,0Zm23.63,44h6.09a7.71,7.71,0,0,0,3.34-.54c.44-.25.9-.69.9-2s-.32-2.55-4.22-2.55V381l0,1.5H191Zm.31-22.71h5.08c3.33,0,3.57-.71,3.56-1.88,0-1,0-2-3.53-2v-1.5l0,1.5h-5.08Z"/><path class="cls-2" d="M203.34,345.14c13.53,0,19.93,4.22,19.94,15.09,0,7.17-4.29,12.41-9.1,13v.59c6.33,1.09,10.56,7.08,10.56,14.25,0,10.81-6.39,16.14-19.8,16.15l-36,0-.07-59.09,34.42,0h.07M189.8,366.43h6.58c2.78,0,5.06-.43,5.05-3.38s-2.26-3.46-5-3.46h-6.61v6.84m-.32,22.71h7.6c3.2,0,5.73-.6,5.73-4.06s-2.53-4.05-5.72-4.05h-7.62v8.11m13.86-47h-.07l-34.42,0h-3v3l.07,59.09v3h3l36,0c10.41,0,22.82-3.34,22.8-19.15,0-6.24-2.7-11.61-7-14.68a17.33,17.33,0,0,0,5.54-13.17c0-16.22-13.1-18.09-22.94-18.09Zm-10.55,20.45h3.58a6.23,6.23,0,0,1,2,.22,1.49,1.49,0,0,1,0,.24v.19a7.29,7.29,0,0,1-2.06.19h-3.58v-.83ZM192.48,384h4.59c2.21,0,2.64.4,2.65.41h0a1.47,1.47,0,0,1,.09.64,1.67,1.67,0,0,1-.1.7s-.47.36-2.64.36h-4.59V384Z"/><path class="cls-3" d="M243.4,343.6l35.47,0,18.68,62.07-27.33,0-2.2-9.37-13.65,0-2.18,9.37-27.33,0Zm15.7,32.06h4.15l-2.09-8.94Z"/><path class="cls-2" d="M277.76,345.06l17.78,59.07-24.13,0-2.2-9.37-16,0L251,404.18l-24.13,0,17.65-59.12,33.24,0m-20.55,32.1h7.93l-2.8-12H260l-2.77,12M280,342.06h-2.24l-33.23,0h-2.24l-.63,2.14L224,403.35l-1.16,3.86h4l24.13,0h2.38l.54-2.32,1.64-7.05,11.27,0,1.66,7.06.54,2.31h2.38l24.13,0h4l-1.16-3.86-17.78-59.08-.64-2.13Zm-19,32.1.19-.82.19.82Z"/><polygon class="cls-3" points="299.87 343.54 331.27 343.5 342.75 368.73 342.73 343.49 368.25 343.46 368.32 405.55 337.7 405.59 325.44 380.09 325.46 405.6 299.94 405.63 299.87 343.54"/><path class="cls-2" d="M366.75,345l.06,59.1-28.17,0-14.12-29.37h-.59l0,29.38-22.52,0-.06-59.1,28.93,0,13.36,29.36h.59l0-29.37,22.52,0m3-3h-3l-22.53,0h-3v3l0,16.8-8.21-18-.8-1.76H330.3l-28.93,0h-3v3l.06,59.09v3h3l22.53,0h3v-3l0-17.42,9,18.71.81,1.7h1.89l28.18,0h3v-3L369.75,345v-3Z"/><path class="cls-3" d="M56.35,76H43.1V67.85H56.34l0-27.95,33.55,0c20.6,0,32.39,11.31,32.41,31,0,9.48-2.86,17.33-8.3,22.69-5.65,5.55-13.73,8.38-24,8.39l-33.56,0ZM81.87,78.7h4.91c6.09,0,9-2.56,9-7.79s-3-7.78-9-7.78H81.85v4.69h5.65V76H81.87Z"/><path class="cls-2" d="M89.92,41.35c20.12,0,30.83,11.3,30.85,29.52s-10.68,29.56-30.84,29.58l-32.06,0,0-26H44.6V69.35H57.84l0-27.95,32.05,0h.06m-9.56,28H86v5.16H80.37V80.2h6.41c7.51,0,10.54-3.81,10.54-9.3s-3-9.27-10.53-9.27H80.35v7.68m9.56-31h0l-32.07,0h-3v3l0,25H41.59V77.51H54.85l0,23v3h3l32.05,0c21.21,0,33.86-12.21,33.84-32.59S111.09,38.35,89.92,38.35ZM83.36,64.62h3.41c6.69,0,7.54,3.35,7.55,6.28,0,2.56-.65,5.45-5.3,6.14V66.3H83.36V64.62Z"/><path class="cls-3" d="M357.58,76h-6.49V67.85h6.49l0-28.28,33.56,0c20.6,0,32.39,11.3,32.41,31,0,9.49-2.86,17.33-8.3,22.69-5.65,5.56-13.73,8.38-24,8.39l-33.56,0Zm25.52,2.38H388c3.39,0,5.81-.8,7.29-2.41l-12.2,0Zm12.41-2.65a7.91,7.91,0,0,0,1.54-5.15c0-5.24-3-7.78-9-7.78h-4.94v5l12.41,0Z"/><path class="cls-2" d="M391.15,41C411.27,41,422,52.32,422,70.54s-10.68,29.56-30.84,29.58l-32.06,0,0-25.66h-6.48V69.35h6.49l0-28.28,32,0h.06m-9.56,28.29,12.41,0v5.15l-12.4,0v5.4H388c7.51,0,10.54-3.81,10.54-9.3s-3-9.27-10.53-9.27h-6.44v8M391.15,38h0l-32.07,0h-3v3l0,25.28h-6.48V77.5h6.49l0,22.66v3h3l32.05,0c10.71,0,19.16-3,25.09-8.82C422,88.65,425,80.43,425,70.54,425,50.18,412.32,38,391.15,38Zm-6.57,26.26H388c3.31,0,5.2.82,6.25,2h-9.66v-2Z"/><path class="cls-4" d="M108.67,452.14a1.42,1.42,0,0,1-.61-.13,1.45,1.45,0,0,1-.79-.84l-1.82-4.82a1.5,1.5,0,0,1,.87-1.93l24.4-9.23a1.52,1.52,0,0,1,.54-.4,1.42,1.42,0,0,1,.61-.13l.27,0,.27,0a1.44,1.44,0,0,1,.62.13,1.41,1.41,0,0,1,.53.4l24.4,9.23a1.5,1.5,0,0,1,.88,1.93L157,451.17a1.51,1.51,0,0,1-.79.84,1.47,1.47,0,0,1-.62.13,1.6,1.6,0,0,1-.53-.09l-22.94-8.68-22.94,8.68A1.6,1.6,0,0,1,108.67,452.14Z"/><path class="cls-2" d="M132.41,436.16l.09.24,24.93,9.42-1.82,4.82-23.47-8.87-23.47,8.87-1.82-4.82,24.93-9.42.09-.24.27.1.27-.1m-.54-3a3.09,3.09,0,0,0-1.23.26,3.68,3.68,0,0,0-.75.48L105.79,443a3,3,0,0,0-1.74,3.86l1.82,4.82a3,3,0,0,0,1.57,1.68,3.09,3.09,0,0,0,1.23.26,3,3,0,0,0,1.06-.19L132.14,445l22.41,8.48a3,3,0,0,0,1.06.19,3.1,3.1,0,0,0,1.24-.26,3,3,0,0,0,1.57-1.68l1.82-4.82a3,3,0,0,0-1.75-3.86l-24.1-9.12a3.36,3.36,0,0,0-.74-.48,3.1,3.1,0,0,0-1.24-.26h-.54Z"/><path class="cls-4" d="M413.32,446.39a1.34,1.34,0,0,1-.52-.1l-5.11-1.91a1.5,1.5,0,0,1-.88-1.93l9.46-25.26a1.5,1.5,0,0,1,.78-.84,1.51,1.51,0,0,1,.62-.14,1.61,1.61,0,0,1,.53.1l5.11,1.92a1.5,1.5,0,0,1,.88,1.93l-9.46,25.26a1.51,1.51,0,0,1-.79.84A1.44,1.44,0,0,1,413.32,446.39Z"/><path class="cls-2" d="M417.67,417.71l5.11,1.92-9.46,25.26L408.21,443l9.46-25.26m0-3a3,3,0,0,0-1.24.27,3,3,0,0,0-1.57,1.68l-9.46,25.26a3,3,0,0,0,1.76,3.86l5.11,1.92a3,3,0,0,0,1.05.19,3,3,0,0,0,1.25-.27,3,3,0,0,0,1.56-1.68l9.46-25.26a3,3,0,0,0-1.76-3.86l-5.1-1.91a3,3,0,0,0-1.06-.2Z"/><path class="cls-4" d="M162.88,454.74a1.39,1.39,0,0,1-.53-.1l-5.11-1.91a1.51,1.51,0,0,1-.88-1.93l9.46-25.26a1.48,1.48,0,0,1,.79-.84,1.44,1.44,0,0,1,.62-.14,1.6,1.6,0,0,1,.52.1l5.11,1.92a1.5,1.5,0,0,1,.88,1.93l-9.46,25.25a1.47,1.47,0,0,1-.78.84A1.51,1.51,0,0,1,162.88,454.74Z"/><path class="cls-2" d="M167.23,426.06l5.11,1.92-9.46,25.26-5.11-1.92,9.46-25.26m0-3a3,3,0,0,0-2.81,1.95L155,450.27a3,3,0,0,0,1.76,3.86l5.1,1.92a3,3,0,0,0,2.3-.08,3,3,0,0,0,1.57-1.68L175.15,429a3,3,0,0,0-1.76-3.86l-5.11-1.92a3.19,3.19,0,0,0-1.05-.19Z"/><path class="cls-4" d="M31.28,515.6a1.5,1.5,0,0,1-1.5-1.5l0-37.5H12.93a1.49,1.49,0,0,1-1.06-.43,1.53,1.53,0,0,1-.44-1.06l0-20.1a1.5,1.5,0,0,1,1.5-1.5L72,453.46a1.5,1.5,0,0,1,1.5,1.5l0,20.09a1.5,1.5,0,0,1-1.5,1.5l-16.8,0,0,37.5a1.5,1.5,0,0,1-1.5,1.5Z"/><path class="cls-2" d="M72,455l0,20.09-18.31,0,0,39-22.44,0,0-39-18.31,0,0-20.09L72,455m0-3h0l-59,.06a3,3,0,0,0-3,3l0,20.09a3,3,0,0,0,3,3H28.24l0,36a3,3,0,0,0,3,3h0l22.44,0a3,3,0,0,0,3-3l0-36,15.3,0a3,3,0,0,0,3-3L75,455a3,3,0,0,0-3-3Z"/><path class="cls-4" d="M78.35,515.55a1.5,1.5,0,0,1-1.06-.44,1.52,1.52,0,0,1-.44-1.06L76.78,455a1.5,1.5,0,0,1,1.5-1.5l22.53,0a1.49,1.49,0,0,1,1.5,1.49l.06,59.1a1.5,1.5,0,0,1-1.5,1.5Z"/><path class="cls-2" d="M100.81,454.93l.06,59.09-22.52,0L78.28,455l22.53,0m0-3h0l-22.52,0a3,3,0,0,0-3,3l.07,59.1a3,3,0,0,0,3,3h0l22.52,0a3,3,0,0,0,3-3l-.06-59.1a3,3,0,0,0-3-3Z"/><path class="cls-4" d="M108.46,515.51A1.5,1.5,0,0,1,107,514l-.06-59.09a1.46,1.46,0,0,1,.44-1.06,1.5,1.5,0,0,1,1.06-.44l49.68-.06a1.5,1.5,0,0,1,1.06.44,1.52,1.52,0,0,1,.44,1.06l0,17.73a1.5,1.5,0,0,1-1.5,1.5l-25.66,0v.8l23.22,0a1.5,1.5,0,0,1,1.5,1.5l0,16a1.5,1.5,0,0,1-1.5,1.5l-23.22,0v.8l25.67,0a1.5,1.5,0,0,1,1.5,1.5l0,17.73a1.52,1.52,0,0,1-.44,1.06,1.5,1.5,0,0,1-1.06.44Z"/><path class="cls-2" d="M158.08,454.86l0,17.73-27.16,0v3.8l24.72,0,0,16-24.72,0v3.8l27.16,0,0,17.73-49.69,0-.06-59.09,49.68-.06m0-3h0l-49.69.06a3,3,0,0,0-3,3l.06,59.09a3,3,0,0,0,3,3h0l49.68,0a3,3,0,0,0,2.12-.88,3,3,0,0,0,.88-2.13l0-17.72a3,3,0,0,0-2.57-3,2.82,2.82,0,0,0,.12-.83l0-16a2.92,2.92,0,0,0-.12-.83,3,3,0,0,0,2.56-3l0-17.73a3,3,0,0,0-3-3Z"/><path class="cls-4" d="M164.9,515.45a1.5,1.5,0,0,1-1.5-1.5l-.07-59.09a1.5,1.5,0,0,1,1.5-1.5l28.93,0a1.5,1.5,0,0,1,1.37.87l11.08,24.35,0-23.74a1.5,1.5,0,0,1,1.5-1.5l22.53,0a1.5,1.5,0,0,1,1.5,1.49l.06,59.1a1.5,1.5,0,0,1-1.5,1.5l-28.17,0a1.51,1.51,0,0,1-1.36-.85l-11.85-24.65,0,24a1.54,1.54,0,0,1-.44,1.07,1.5,1.5,0,0,1-1.06.44Z"/><path class="cls-2" d="M230.21,454.79l.06,59.09-28.17,0L188,484.55h-.59l0,29.38-22.52,0-.07-59.09,28.93,0,13.36,29.36h.6l0-29.38,22.53,0m0-3h0l-22.52,0a3,3,0,0,0-3,3l0,16.81-8.2-18a3,3,0,0,0-2.74-1.75h0l-28.93,0a3,3,0,0,0-3,3L161.9,514a3,3,0,0,0,3,3h0l22.52,0a3,3,0,0,0,3-3l0-17.41,9,18.7a3,3,0,0,0,2.71,1.7h0l28.17,0a3,3,0,0,0,3-3l-.06-59.1a3,3,0,0,0-3-3Z"/><path class="cls-4" d="M261.48,515.35a1.5,1.5,0,0,1-1.06-.44,1.52,1.52,0,0,1-.44-1.06l-.06-59.1a1.46,1.46,0,0,1,.44-1.06,1.5,1.5,0,0,1,1.06-.44l34.41,0c14.89,0,21.5,5.12,21.51,16.59,0,5.89-2.73,11-6.77,13.28,5,2.45,8.23,8,8.24,14.58,0,5.86-1.82,10.33-5.42,13.28s-8.77,4.36-15.89,4.37Zm22.07-18.14h6.09c3.93,0,4.23-1.06,4.23-2.55s-.31-2.55-4.22-2.55v-1.5l0,1.5h-6.09Zm.31-22.71h5.08a7.27,7.27,0,0,0,2.88-.41c.33-.17.68-.44.68-1.47s0-1.95-3.55-1.95v-1.5l0,1.5h-5.08Z"/><path class="cls-2" d="M295.9,454.71c13.54,0,19.93,4.22,19.94,15.09,0,7.18-4.29,12.42-9.09,13v.59c6.32,1.09,10.55,7.08,10.56,14.26,0,10.81-6.4,16.13-19.81,16.15l-36,0-.06-59.09,34.41,0h.07M282.36,476h6.58c2.78,0,5.06-.42,5.06-3.38s-2.27-3.45-5.05-3.45h-6.6V476m-.31,22.71h7.59c3.21,0,5.73-.59,5.73-4.05s-2.52-4-5.71-4H282v8.1m13.85-47h-.07l-34.42,0a3,3,0,0,0-3,3l.06,59.1a3,3,0,0,0,3,3h0l36,0c7.48,0,13-1.55,16.84-4.71s6-8.11,6-14.44-2.7-11.62-7-14.69a17.32,17.32,0,0,0,5.54-13.17c0-16.21-13.1-18.09-22.94-18.09Zm-10.54,20.45h3.58a6.35,6.35,0,0,1,2,.21,1.47,1.47,0,0,1,0,.25,1.09,1.09,0,0,1,0,.19,7.33,7.33,0,0,1-2.05.18h-3.58v-.84ZM285,493.6h4.59c2.22,0,2.64.4,2.65.4h0a1.5,1.5,0,0,1,.09.65,1.41,1.41,0,0,1-.1.69s-.46.36-2.63.36H285V493.6Z"/><path class="cls-4" d="M491.47,516.7c-20.42,0-34.7-13.41-34.72-32.62s14.25-32.66,34.7-32.68c18.15,0,31.7,11.73,33,28.53a1.52,1.52,0,0,1-1.49,1.62l-22.53,0a1.5,1.5,0,0,1-1.41-1c-.93-2.52-2.29-4-4.33-4.59a11,11,0,0,1-3.07,6,11.5,11.5,0,0,1-7.24,3.32,8.3,8.3,0,0,0,2.23,4.92,7.59,7.59,0,0,0,5.56,2.18c3.5,0,5.61-1.52,6.86-4.93a1.5,1.5,0,0,1,1.41-1l22.52,0a1.51,1.51,0,0,1,1.5,1.61c-1.26,16.83-14.8,28.59-32.93,28.61Z"/><path class="cls-2" d="M491.5,452.9c17.68,0,30.25,11.54,31.44,27.15l-22.52,0c-1.08-2.94-3-5.45-7.1-5.85a9.72,9.72,0,0,1-9.78,9.63c-.25,0-.5,0-.74,0-.1,5.77,3.64,10.1,9.36,10.1h0c4.89,0,7.08-2.71,8.26-5.91L523,488c-1.16,15.62-13.72,27.2-31.43,27.22h0c-19.71,0-33.2-13.07-33.22-31.12s13.46-31.16,33.2-31.18h.05m0-3h-.05c-10.27,0-19.53,3.44-26.08,9.65a34.72,34.72,0,0,0,0,49c6.55,6.2,15.81,9.61,26.06,9.61h0c19,0,33.11-12.36,34.42-30a3,3,0,0,0-.79-2.26,3,3,0,0,0-2.2-1h0l-22.52,0a3,3,0,0,0-2.82,2c-1,2.84-2.57,3.95-5.44,3.95a6.15,6.15,0,0,1-4.5-1.73,6.28,6.28,0,0,1-1.51-2.61,13,13,0,0,0,6.51-3.53,12.42,12.42,0,0,0,3-4.88,6.36,6.36,0,0,1,1.92,2.94,3,3,0,0,0,2.81,2h0l22.53,0a3,3,0,0,0,2.2-1,3,3,0,0,0,.78-2.26c-1.35-17.62-15.51-29.92-34.43-29.92Z"/><path class="cls-4" d="M352,516.85c-20.37,0-29.87-9.59-29.89-30.17l0-32a1.5,1.5,0,0,1,1.5-1.5l22.52,0a1.5,1.5,0,0,1,1.5,1.5l0,32c0,5.48,2.35,6.18,4.4,6.18s4.41-.71,4.4-6.19l0-32a1.5,1.5,0,0,1,1.5-1.5l20.94,0v-15a1.5,1.5,0,0,1,1.5-1.5h5.46a1.5,1.5,0,0,1,1.5,1.5v27a1.5,1.5,0,0,1-1.5,1.5h-3.95l0,20c0,10.22-2.27,17.6-7,22.55-4.89,5.16-12.37,7.68-22.84,7.69Z"/><path class="cls-2" d="M385.82,438.15v27h-5.45l0,21.49c0,19.07-8.07,28.71-28.31,28.73H352c-20.19,0-28.37-9.62-28.39-28.67l0-32,22.52,0,0,32c0,5.23,2.11,7.68,5.9,7.68h0c3.79,0,5.9-2.45,5.89-7.69l0-32,22.44,0V438.15h5.46m0-3h-5.46a3,3,0,0,0-3,3v13.48l-19.44,0a3,3,0,0,0-3,3l0,32c0,4.69-1.74,4.69-2.9,4.69s-2.9,0-2.9-4.68l0-32a3,3,0,0,0-3-3h0l-22.53,0a3,3,0,0,0-3,3l0,32c0,21.31,10.29,31.67,31.39,31.67h.07c10.91,0,18.74-2.68,23.93-8.16,5-5.24,7.39-13,7.38-23.58l0-18.48h2.45a3,3,0,0,0,3-3v-27a3,3,0,0,0-3-3Z"/><path class="cls-4" d="M419.94,516.78c-20.43,0-34.7-13.41-34.72-32.62s14.24-32.66,34.7-32.69c9.47,0,17.87,2.93,24.08,8.32V438.15a1.5,1.5,0,0,1,1.5-1.5H451a1.5,1.5,0,0,1,1.5,1.5v27a1.5,1.5,0,0,1-1.5,1.5h-1.09a32.76,32.76,0,0,1,4.83,17.46c0,19.22-14.25,32.66-34.7,32.69Zm0-41.12a7.91,7.91,0,0,0-6,2.46,8.71,8.71,0,0,0-2.23,6,8.36,8.36,0,0,0,8.2,8.46,8.07,8.07,0,0,0,5.78-2.48,8.57,8.57,0,0,0,2.42-6c0-5-3.37-8.46-8.2-8.46v0Z"/><path class="cls-2" d="M451,438.15v27H447a30.79,30.79,0,0,1,6.19,19c0,18.06-13.47,31.16-33.21,31.19h0c-19.71,0-33.2-13.07-33.22-31.12S400.18,453,419.92,453H420c10.76,0,19.66,3.9,25.53,10.38v-25.2H451m-31,55.94h0a9.87,9.87,0,0,0,9.69-10c0-5.48-3.8-9.95-9.7-9.95h0c-5.9,0-9.69,4.49-9.69,10a9.87,9.87,0,0,0,9.7,9.95m31-58.94H445.5a3,3,0,0,0-3,3V456.7A38.62,38.62,0,0,0,420,450h-.06c-10.26,0-19.52,3.44-26.07,9.65a34.73,34.73,0,0,0,0,49.05c6.55,6.19,15.81,9.61,26.06,9.61H420c10.26,0,19.52-3.44,26.07-9.65a33.31,33.31,0,0,0,10.13-24.54,34.72,34.72,0,0,0-3.91-16.27,3,3,0,0,0,1.67-2.69v-27a3,3,0,0,0-3-3Zm-31,58.94v-3a6.85,6.85,0,0,1-6.7-7,7.27,7.27,0,0,1,1.82-5,6.51,6.51,0,0,1,4.87-2c4.61,0,6.71,3.61,6.71,7a7,7,0,0,1-2,4.94,6.53,6.53,0,0,1-4.69,2v3Z"/><path class="cls-4" d="M113.7,447.68a1.51,1.51,0,0,1-.62-.14,1.5,1.5,0,0,1-.79-.83l-1.82-4.82a1.51,1.51,0,0,1,.88-1.94l24.4-9.22a1.5,1.5,0,0,1,1.15-.54,1.23,1.23,0,0,0,.54,0,1.52,1.52,0,0,1,1.15.54L163,440a1.51,1.51,0,0,1,.87,1.94L162,446.71a1.46,1.46,0,0,1-.79.83,1.43,1.43,0,0,1-.61.14,1.39,1.39,0,0,1-.53-.1l-22.94-8.67-22.94,8.67A1.39,1.39,0,0,1,113.7,447.68Z"/><path class="cls-2" d="M137.44,431.69l.09.24,24.93,9.43-1.82,4.82-23.47-8.88-23.47,8.88-1.82-4.82,24.93-9.43.09-.24.27.1.27-.1m0-3h-.54a3,3,0,0,0-1.24.27,2.77,2.77,0,0,0-.74.48l-24.1,9.11a3,3,0,0,0-1.75,3.87l1.82,4.82a3,3,0,0,0,1.57,1.67,2.95,2.95,0,0,0,2.3.07l22.41-8.47L159.58,449a3,3,0,0,0,1.06.2,2.93,2.93,0,0,0,1.23-.27,3,3,0,0,0,1.57-1.67l1.82-4.82a3,3,0,0,0-1.74-3.87l-24.1-9.11a2.82,2.82,0,0,0-.75-.48,2.93,2.93,0,0,0-1.23-.27Z"/><path class="cls-4" d="M418.35,441.92a1.6,1.6,0,0,1-.53-.09l-5.11-1.92a1.5,1.5,0,0,1-.88-1.93l9.46-25.26a1.53,1.53,0,0,1,.78-.84,1.51,1.51,0,0,1,.63-.13,1.37,1.37,0,0,1,.52.1l5.11,1.91a1.5,1.5,0,0,1,.88,1.93L419.75,441a1.47,1.47,0,0,1-1.4,1Z"/><path class="cls-2" d="M422.7,413.25l5.1,1.92-9.45,25.25-5.11-1.91,9.46-25.26m0-3a3,3,0,0,0-1.25.27,3,3,0,0,0-1.56,1.68l-9.46,25.26a3,3,0,0,0,1.75,3.86l5.11,1.91a3,3,0,0,0,1.06.19,3.17,3.17,0,0,0,1.24-.26,3,3,0,0,0,1.57-1.68l9.45-25.26a3,3,0,0,0-1.75-3.86l-5.11-1.92a3,3,0,0,0-1.05-.19Z"/><path class="cls-4" d="M167.9,450.27a1.64,1.64,0,0,1-.53-.09l-5.1-1.92a1.5,1.5,0,0,1-.88-1.93l9.46-25.26a1.53,1.53,0,0,1,.78-.84,1.5,1.5,0,0,1,.62-.13,1.6,1.6,0,0,1,.53.09l5.11,1.92a1.5,1.5,0,0,1,.87,1.93l-9.45,25.26a1.55,1.55,0,0,1-.79.84A1.47,1.47,0,0,1,167.9,450.27Z"/><path class="cls-2" d="M172.25,421.6l5.11,1.91-9.46,25.26-5.11-1.91,9.46-25.26m0-3a3,3,0,0,0-2.81,1.95L160,445.81a3,3,0,0,0,1.76,3.86l5.11,1.91a3,3,0,0,0,2.29-.08,3,3,0,0,0,1.57-1.67l9.46-25.26a3,3,0,0,0-1.76-3.86l-5.11-1.92a2.91,2.91,0,0,0-1.05-.19Z"/><path class="cls-4" d="M36.3,511.13a1.5,1.5,0,0,1-1.5-1.5l0-37.5-16.81,0a1.5,1.5,0,0,1-1.5-1.5l0-20.09a1.5,1.5,0,0,1,1.5-1.5L77,449a1.5,1.5,0,0,1,1.5,1.5l0,20.09a1.49,1.49,0,0,1-1.5,1.5l-16.8,0,0,37.51a1.53,1.53,0,0,1-.44,1.06,1.5,1.5,0,0,1-1.06.44Z"/><path class="cls-2" d="M77,450.49l0,20.09-18.3,0,0,39-22.44,0,0-39-18.31,0,0-20.09L77,450.49m0-3h0l-59,.07a3,3,0,0,0-3,3l0,20.09a3,3,0,0,0,.88,2.12,3,3,0,0,0,2.12.88h0l15.3,0,0,36a3,3,0,0,0,3,3h0l22.43,0a3,3,0,0,0,3-3l0-36,15.31,0a3,3,0,0,0,3-3l0-20.09a3,3,0,0,0-3-3Z"/><path class="cls-4" d="M83.37,511.08a1.5,1.5,0,0,1-1.5-1.5l-.06-59.09a1.49,1.49,0,0,1,1.5-1.5l22.52,0a1.5,1.5,0,0,1,1.5,1.5l.06,59.09a1.49,1.49,0,0,1-1.49,1.5Z"/><path class="cls-2" d="M105.83,450.46l.06,59.1-22.52,0-.06-59.09,22.52,0m0-3h0l-22.53,0a3,3,0,0,0-3,3l.06,59.09a3,3,0,0,0,3,3h0l22.53,0a3,3,0,0,0,3-3l-.06-59.09a3,3,0,0,0-3-3Z"/><path class="cls-4" d="M113.49,511.05a1.5,1.5,0,0,1-1.06-.44,1.46,1.46,0,0,1-.44-1.06l-.07-59.1a1.5,1.5,0,0,1,1.5-1.5l49.69-.05a1.53,1.53,0,0,1,1.06.44,1.5,1.5,0,0,1,.44,1.06l0,17.73a1.5,1.5,0,0,1-1.5,1.5l-25.66,0v.79l23.21,0a1.5,1.5,0,0,1,1.5,1.5l0,16a1.52,1.52,0,0,1-.44,1.06,1.5,1.5,0,0,1-1.06.44l-23.21,0v.8l25.66,0a1.5,1.5,0,0,1,1.06.44,1.52,1.52,0,0,1,.44,1.06l0,17.73a1.5,1.5,0,0,1-1.5,1.5Z"/><path class="cls-2" d="M163.11,450.4l0,17.73-27.17,0V472l24.71,0,0,16L136,488v3.79l27.16,0,0,17.73-49.68.06-.07-59.1,49.69-.05m0-3h0l-49.68.05a3,3,0,0,0-2.12.88,3,3,0,0,0-.88,2.13l.07,59.09a3,3,0,0,0,3,3h0l49.68-.06a3,3,0,0,0,3-3l0-17.73a3,3,0,0,0-.88-2.12,3,3,0,0,0-1.68-.84,3.32,3.32,0,0,0,.11-.83l0-16a3.2,3.2,0,0,0-.11-.83,3,3,0,0,0,2.56-3l0-17.72a3,3,0,0,0-3-3Z"/><path class="cls-4" d="M169.92,511a1.5,1.5,0,0,1-1.5-1.5l-.07-59.1a1.52,1.52,0,0,1,.44-1.06,1.5,1.5,0,0,1,1.06-.44l28.94,0a1.48,1.48,0,0,1,1.36.88l11.08,24.35,0-23.74a1.5,1.5,0,0,1,1.49-1.5l22.53,0a1.5,1.5,0,0,1,1.5,1.5l.06,59.09a1.49,1.49,0,0,1-1.49,1.5l-28.18,0a1.51,1.51,0,0,1-1.35-.85l-11.85-24.65,0,24a1.5,1.5,0,0,1-1.5,1.5Z"/><path class="cls-2" d="M235.23,450.32l.06,59.09-28.17,0L193,480.08h-.59l0,29.38-22.52,0-.07-59.1,28.94,0,13.36,29.36h.59l0-29.37,22.52,0m0-3h0l-22.53,0a3,3,0,0,0-3,3v16.8l-8.2-18a3,3,0,0,0-2.73-1.76h0l-28.93,0a3,3,0,0,0-2.12.88,3,3,0,0,0-.88,2.12l.07,59.1a3,3,0,0,0,3,3h0l22.52,0a3,3,0,0,0,3-3l0-17.42,9,18.71a3,3,0,0,0,2.7,1.7h0l28.18,0a3,3,0,0,0,3-3l-.06-59.09a3,3,0,0,0-3-3Z"/><path class="cls-4" d="M266.5,510.88a1.49,1.49,0,0,1-1.05-.44,1.51,1.51,0,0,1-.45-1.06l-.06-59.09a1.5,1.5,0,0,1,.44-1.06,1.46,1.46,0,0,1,1.06-.44l34.42,0c14.88,0,21.49,5.11,21.51,16.59,0,5.89-2.74,11-6.78,13.28,5,2.45,8.23,8,8.24,14.57,0,5.87-1.82,10.33-5.42,13.28s-8.77,4.36-15.88,4.37Zm22.07-18.14h6.09c3.93,0,4.24-1.06,4.23-2.56s-.31-2.55-4.21-2.55v-1.5l0,1.5h-6.1Zm.31-22.7H294a7.14,7.14,0,0,0,2.89-.42c.32-.17.67-.43.67-1.46s0-2-3.55-2v0h-5.08Z"/><path class="cls-2" d="M300.93,450.25c13.53,0,19.92,4.22,19.94,15.09,0,7.17-4.29,12.41-9.1,13v.59c6.33,1.09,10.55,7.08,10.56,14.25,0,10.81-6.39,16.14-19.81,16.15l-36,0-.06-59.09,34.42,0h.07m-13.55,21.29H294c2.79,0,5.06-.43,5.06-3.38s-2.27-3.46-5-3.46h-6.59v6.84m-.31,22.71h7.59c3.21,0,5.74-.6,5.73-4.06s-2.52-4.05-5.71-4.05h-7.62v8.11m13.86-47h-.08l-34.41,0a3,3,0,0,0-3,3l.06,59.09a3,3,0,0,0,3,3h0l36,0c7.47,0,13-1.55,16.83-4.7s6-8.11,6-14.45-2.7-11.61-7-14.68a17.37,17.37,0,0,0,5.54-13.18c0-16.21-13.1-18.08-22.94-18.08ZM290.38,467.7H294a6.29,6.29,0,0,1,2.05.22,1.49,1.49,0,0,1,0,.24,1,1,0,0,1,0,.19,7.13,7.13,0,0,1-2.05.19h-3.58v-.83Zm-.31,21.44h4.59c2.21,0,2.64.4,2.64.41h0a2.5,2.5,0,0,1,0,1.33s-.47.37-2.64.37h-4.59v-2.1Z"/><path class="cls-4" d="M496.49,512.23c-20.42,0-34.7-13.41-34.72-32.61S476,447,496.47,446.93c18.16,0,31.7,11.74,33,28.54a1.52,1.52,0,0,1-.39,1.13,1.49,1.49,0,0,1-1.1.48l-22.53,0a1.49,1.49,0,0,1-1.4-1c-.93-2.51-2.3-4-4.34-4.58a11,11,0,0,1-3.07,6,11.51,11.51,0,0,1-7.24,3.33,8.37,8.37,0,0,0,2.24,4.91,7.56,7.56,0,0,0,5.55,2.19c3.5,0,5.61-1.53,6.86-4.94a1.5,1.5,0,0,1,1.41-1L528,482a1.49,1.49,0,0,1,1.49,1.61c-1.25,16.82-14.79,28.58-32.93,28.6Z"/><path class="cls-2" d="M496.52,448.43c17.69,0,30.25,11.55,31.45,27.15l-22.53,0c-1.08-2.93-3-5.45-7.1-5.84a9.71,9.71,0,0,1-9.78,9.63l-.74,0c-.1,5.77,3.64,10.1,9.36,10.1h0c4.89,0,7.09-2.71,8.26-5.92l22.53,0c-1.17,15.61-13.73,27.19-31.44,27.21h-.05c-19.71,0-33.2-13.06-33.22-31.11s13.46-31.17,33.2-31.19h0m0-3h0c-10.26,0-19.52,3.44-26.07,9.65a34.69,34.69,0,0,0,0,49c6.55,6.2,15.8,9.61,26.05,9.61h.05c19,0,33.11-12.35,34.43-30a3,3,0,0,0-.8-2.27,3,3,0,0,0-2.19-1h0l-22.52,0a3,3,0,0,0-2.81,2c-1.05,2.84-2.57,3.95-5.45,3.95a6.08,6.08,0,0,1-4.49-1.74,6.41,6.41,0,0,1-1.52-2.61,12.87,12.87,0,0,0,6.51-3.52,12.42,12.42,0,0,0,3-4.88,6.33,6.33,0,0,1,1.92,2.93,3,3,0,0,0,2.81,2h0l22.52,0a3,3,0,0,0,3-3.23c-1.35-17.61-15.51-29.92-34.44-29.92Z"/><path class="cls-4" d="M357,512.38c-20.37,0-29.86-9.58-29.89-30.16l0-32a1.5,1.5,0,0,1,1.5-1.5l22.52,0a1.5,1.5,0,0,1,1.5,1.5l0,32c0,5.47,2.35,6.17,4.4,6.17s4.41-.7,4.41-6.18l0-32a1.5,1.5,0,0,1,1.5-1.5l20.94,0v-15a1.5,1.5,0,0,1,1.5-1.5h5.46a1.5,1.5,0,0,1,1.5,1.5v27a1.5,1.5,0,0,1-1.5,1.5h-3.95l0,20c0,10.22-2.27,17.59-7,22.55-4.9,5.16-12.37,7.67-22.85,7.68Z"/><path class="cls-2" d="M390.84,433.69v27h-5.45l0,21.49c0,19.08-8.07,28.71-28.32,28.73H357c-20.19,0-28.36-9.61-28.39-28.67l0-32,22.52,0,0,32c0,5.23,2.11,7.67,5.9,7.67h0c3.8,0,5.9-2.45,5.9-7.68l0-32,22.44,0V433.69h5.46m0-3h-5.46a3,3,0,0,0-3,3v13.47l-19.44,0a3,3,0,0,0-3,3l0,32c0,4.68-1.75,4.68-2.9,4.68s-2.91,0-2.91-4.67l0-32a3,3,0,0,0-.88-2.12,3,3,0,0,0-2.12-.88h0l-22.52,0a3,3,0,0,0-3,3l0,32c0,21.31,10.29,31.66,31.39,31.66h.08c10.9,0,18.73-2.67,23.93-8.15,5-5.25,7.39-13,7.38-23.58l0-18.49h2.44a3,3,0,0,0,3-3v-27a3,3,0,0,0-3-3Z"/><path class="cls-4" d="M425,512.31c-20.42,0-34.7-13.41-34.72-32.61S404.49,447,424.94,447c9.47,0,17.87,2.93,24.08,8.31V433.69a1.5,1.5,0,0,1,1.5-1.5H456a1.5,1.5,0,0,1,1.5,1.5v27a1.5,1.5,0,0,1-1.5,1.5h-1.09a32.87,32.87,0,0,1,4.82,17.46c0,19.23-14.25,32.67-34.7,32.69Zm0-41.11a7.92,7.92,0,0,0-6,2.45,8.74,8.74,0,0,0-2.23,6,8.35,8.35,0,0,0,8.21,8.45,8,8,0,0,0,5.77-2.48,8.5,8.5,0,0,0,2.43-6c0-5-3.38-8.45-8.2-8.45v0Z"/><path class="cls-2" d="M456,433.69v27h-4a30.72,30.72,0,0,1,6.19,19c0,18.07-13.46,31.17-33.2,31.19H425c-19.71,0-33.2-13.06-33.22-31.11s13.46-31.17,33.2-31.19H425c10.76,0,19.66,3.9,25.53,10.37V433.69H456m-31,55.93h0a9.86,9.86,0,0,0,9.68-10c0-5.48-3.79-9.95-9.69-9.95h0c-5.9,0-9.69,4.48-9.69,10a9.88,9.88,0,0,0,9.71,9.95m31-58.93h-5.46a3,3,0,0,0-3,3v18.55A38.52,38.52,0,0,0,425,445.51h-.05c-10.27,0-19.53,3.44-26.07,9.65a34.7,34.7,0,0,0,0,49c6.56,6.2,15.81,9.61,26.06,9.61H425c10.27,0,19.53-3.44,26.07-9.65a33.29,33.29,0,0,0,10.13-24.54,34.66,34.66,0,0,0-3.91-16.27,3,3,0,0,0,1.68-2.69v-27a3,3,0,0,0-3-3Zm-31,58.93v-3a6.85,6.85,0,0,1-6.71-6.95,7.23,7.23,0,0,1,1.83-5,6.42,6.42,0,0,1,4.87-2c4.6,0,6.7,3.6,6.7,6.95a7,7,0,0,1-2,5,6.55,6.55,0,0,1-4.7,2v3Z"/><path class="cls-4" d="M165.66,443.21a1.6,1.6,0,0,1-.53-.09l-22.94-8.68-22.94,8.68a1.6,1.6,0,0,1-.53.09,1.47,1.47,0,0,1-1.4-1l-1.82-4.82a1.49,1.49,0,0,1,.87-1.93l24.4-9.23a1.51,1.51,0,0,1,1.15-.53,1.23,1.23,0,0,1,.27,0l.27,0a1.5,1.5,0,0,1,.62.13,1.41,1.41,0,0,1,.53.4l24.4,9.23a1.49,1.49,0,0,1,.87,1.93l-1.82,4.82a1.47,1.47,0,0,1-1.4,1Z"/><path class="cls-2" d="M142.46,427.23l.09.24,24.93,9.42-1.82,4.82-23.47-8.87-23.47,8.87-1.82-4.82,24.93-9.42.09-.24.27.1.27-.1m-.54-3a3.09,3.09,0,0,0-1.23.26,3.2,3.2,0,0,0-.75.48l-24.1,9.12a3,3,0,0,0-1.75,3.86l1.82,4.82a3,3,0,0,0,1.58,1.68,3.09,3.09,0,0,0,1.23.26,3,3,0,0,0,1.06-.19L142.19,436l22.41,8.48a3,3,0,0,0,1.06.19,3.17,3.17,0,0,0,1.24-.26,3,3,0,0,0,1.57-1.68l1.82-4.82a3,3,0,0,0-1.75-3.86L144.44,425a3.2,3.2,0,0,0-.75-.48,3.09,3.09,0,0,0-1.23-.26h-.54Z"/><path class="cls-4" d="M423.37,437.46a1.39,1.39,0,0,1-.53-.1l-5.11-1.91a1.5,1.5,0,0,1-.87-1.93l9.45-25.26a1.51,1.51,0,0,1,.79-.84,1.48,1.48,0,0,1,.62-.14,1.66,1.66,0,0,1,.53.1l5.1,1.92a1.5,1.5,0,0,1,.88,1.93l-9.46,25.26a1.48,1.48,0,0,1-.78.83A1.51,1.51,0,0,1,423.37,437.46Z"/><path class="cls-2" d="M427.72,408.78l5.11,1.92L423.37,436,418.26,434l9.46-25.26m0-3a3,3,0,0,0-1.24.27,3,3,0,0,0-1.57,1.68L415.45,433a3,3,0,0,0,1.76,3.86l5.11,1.92a2.91,2.91,0,0,0,1.05.19,3,3,0,0,0,2.81-1.95l9.46-25.26a3,3,0,0,0-1.76-3.86L428.77,406a3,3,0,0,0-1-.2Z"/><path class="cls-4" d="M172.92,445.81a1.37,1.37,0,0,1-.52-.1l-5.11-1.91a1.5,1.5,0,0,1-.88-1.93l9.46-25.26a1.5,1.5,0,0,1,.78-.84,1.51,1.51,0,0,1,.62-.14,1.61,1.61,0,0,1,.53.1l5.11,1.92a1.5,1.5,0,0,1,.88,1.93l-9.46,25.25a1.47,1.47,0,0,1-.78.84A1.52,1.52,0,0,1,172.92,445.81Z"/><path class="cls-2" d="M177.27,417.13l5.11,1.92-9.46,25.26-5.1-1.92,9.45-25.26m0-3a3,3,0,0,0-2.81,1.95L165,441.34a3,3,0,0,0,1.75,3.86l5.11,1.92a3,3,0,0,0,1,.19,3,3,0,0,0,1.25-.27,3,3,0,0,0,1.56-1.68l9.46-25.26a3,3,0,0,0-1.75-3.86l-5.11-1.92a3.2,3.2,0,0,0-1.06-.19Z"/><path class="cls-4" d="M41.33,506.67a1.5,1.5,0,0,1-1.5-1.5l0-37.51-16.8,0a1.5,1.5,0,0,1-1.5-1.5l0-20.09a1.5,1.5,0,0,1,1.49-1.5L82,444.53a1.5,1.5,0,0,1,1.06.44A1.46,1.46,0,0,1,83.5,446l0,20.09a1.5,1.5,0,0,1-1.5,1.5l-16.81,0,0,37.5a1.49,1.49,0,0,1-.43,1.06,1.54,1.54,0,0,1-1.07.44Z"/><path class="cls-2" d="M82,446l0,20.09-18.31,0,0,39-22.43,0,0-39-18.3,0,0-20.09L82,446m0-3h0l-59,.06a3,3,0,0,0-3,3l0,20.09a3,3,0,0,0,3,3H38.29l0,36a3,3,0,0,0,3,3h0l22.44,0a3,3,0,0,0,3-3l0-36,15.31,0a3,3,0,0,0,3-3L85,446a3,3,0,0,0-3-3Z"/><path class="cls-4" d="M88.39,506.61a1.51,1.51,0,0,1-1.5-1.49L86.83,446a1.5,1.5,0,0,1,1.5-1.5l22.52,0a1.49,1.49,0,0,1,1.06.43,1.53,1.53,0,0,1,.44,1.06l.07,59.1a1.5,1.5,0,0,1-1.5,1.5Z"/><path class="cls-2" d="M110.85,446l.07,59.09-22.53,0L88.33,446l22.52,0m0-3h0l-22.52,0a3,3,0,0,0-3,3l.06,59.1a3,3,0,0,0,.89,2.12,3,3,0,0,0,2.11.87h0l22.52,0a3,3,0,0,0,3-3l-.07-59.1a3,3,0,0,0-3-3Z"/><path class="cls-4" d="M118.51,506.58a1.5,1.5,0,0,1-1.5-1.5L116.94,446a1.5,1.5,0,0,1,1.5-1.5l49.69-.06a1.5,1.5,0,0,1,1.5,1.5l0,17.73a1.5,1.5,0,0,1-1.5,1.5l-25.66,0v.8l23.22,0a1.5,1.5,0,0,1,1.5,1.5v16a1.49,1.49,0,0,1-1.49,1.5l-23.22,0v.8l25.66,0a1.5,1.5,0,0,1,1.5,1.5l0,17.73a1.49,1.49,0,0,1-1.49,1.5Z"/><path class="cls-2" d="M168.13,445.93l0,17.73-27.16,0v3.8l24.72,0v16l-24.71,0v3.8l27.16,0,0,17.73-49.68.05L118.44,446l49.69-.06m0-3h0l-49.69.06a3,3,0,0,0-3,3l.07,59.09a3,3,0,0,0,3,3h0L168.2,508a3,3,0,0,0,3-3l0-17.72a3,3,0,0,0-2.56-3,3.2,3.2,0,0,0,.11-.83v-16a2.92,2.92,0,0,0-.12-.83,3,3,0,0,0,2.56-3l0-17.73a3,3,0,0,0-3-3Z"/><path class="cls-4" d="M174.94,506.52a1.5,1.5,0,0,1-1.5-1.5l-.06-59.09a1.5,1.5,0,0,1,1.5-1.5l28.93,0a1.52,1.52,0,0,1,1.37.88l11.08,24.35,0-23.74a1.5,1.5,0,0,1,1.5-1.5l22.52,0a1.5,1.5,0,0,1,1.5,1.49l.07,59.1a1.5,1.5,0,0,1-1.5,1.5l-28.18,0a1.5,1.5,0,0,1-1.35-.85L198.94,481l0,24a1.5,1.5,0,0,1-1.49,1.51Z"/><path class="cls-2" d="M240.25,445.86l.07,59.09-28.18,0L198,475.62h-.59l0,29.38-22.52,0-.06-59.09,28.93,0,13.36,29.37h.59l0-29.38,22.52,0m0-3h0l-22.52,0a3,3,0,0,0-3,3l0,16.81-8.21-18a3,3,0,0,0-2.73-1.76h0l-28.94,0a3,3,0,0,0-3,3l.06,59.09a3,3,0,0,0,3,3h0l22.52,0a3,3,0,0,0,3-3V487.58l9,18.7a3,3,0,0,0,2.7,1.7h0l28.17,0a3,3,0,0,0,3-3l-.07-59.1a3,3,0,0,0-3-3Z"/><path class="cls-4" d="M271.53,506.41a1.49,1.49,0,0,1-1.06-.43,1.52,1.52,0,0,1-.44-1.06l-.07-59.1a1.5,1.5,0,0,1,1.5-1.5l34.42,0c14.89,0,21.5,5.12,21.51,16.59,0,5.89-2.73,11-6.77,13.28,5,2.45,8.23,8,8.23,14.58,0,5.86-1.81,10.33-5.41,13.28s-8.78,4.36-15.89,4.37Zm22.06-18.13h6.09c3.94,0,4.24-1.06,4.24-2.55s-.31-2.55-4.22-2.55v-1.5l0,1.5h-6.09Zm.31-22.71H299a7.29,7.29,0,0,0,2.89-.41c.33-.17.68-.44.67-1.47s0-1.95-3.54-1.95v-1.5l0,1.5H293.9Z"/><path class="cls-2" d="M306,445.78c13.53,0,19.93,4.22,19.94,15.09,0,7.18-4.29,12.42-9.1,13v.59c6.33,1.09,10.56,7.08,10.56,14.26,0,10.81-6.39,16.13-19.8,16.15l-36,0-.07-59.09,34.42,0H306m-13.54,21.29H299c2.78,0,5.06-.42,5.05-3.38s-2.27-3.45-5-3.45h-6.6v6.84m-.32,22.71h7.6c3.2,0,5.73-.59,5.73-4.06s-2.52-4-5.72-4h-7.61v8.1m13.86-47h-.07l-34.42,0a3,3,0,0,0-3,3l.07,59.1a3,3,0,0,0,3,3h0l36,0c7.47,0,13-1.55,16.84-4.71s6-8.11,6-14.44-2.7-11.62-7-14.69a17.35,17.35,0,0,0,5.54-13.17c0-16.21-13.1-18.09-22.94-18.09ZM295.4,463.23H299a6.39,6.39,0,0,1,2,.21,1.7,1.7,0,0,1,0,.25v.19a7.49,7.49,0,0,1-2.06.18H295.4v-.84Zm-.31,21.44h4.59c2.21,0,2.64.4,2.65.4h0a1.5,1.5,0,0,1,.09.65,1.59,1.59,0,0,1-.1.69s-.47.36-2.64.36h-4.59v-2.11Z"/><path class="cls-4" d="M501.52,507.77c-20.43,0-34.7-13.41-34.73-32.62s14.25-32.66,34.7-32.68c18.16,0,31.71,11.73,33,28.53a1.5,1.5,0,0,1-.4,1.13,1.48,1.48,0,0,1-1.1.49l-22.52,0a1.5,1.5,0,0,1-1.41-1c-.93-2.52-2.3-4-4.33-4.59a10.93,10.93,0,0,1-3.08,6,11.45,11.45,0,0,1-7.23,3.32,8.3,8.3,0,0,0,2.23,4.92,7.58,7.58,0,0,0,5.55,2.18c3.5,0,5.62-1.52,6.87-4.93a1.49,1.49,0,0,1,1.4-1l22.53,0a1.49,1.49,0,0,1,1.1.48,1.47,1.47,0,0,1,.39,1.13c-1.25,16.83-14.79,28.59-32.93,28.61Z"/><path class="cls-2" d="M501.54,444c17.69,0,30.25,11.54,31.45,27.15l-22.52,0c-1.09-2.94-3-5.45-7.11-5.85a9.71,9.71,0,0,1-9.78,9.63l-.74,0c-.09,5.77,3.64,10.1,9.36,10.1h0c4.89,0,7.08-2.71,8.26-5.92l22.52,0c-1.17,15.62-13.72,27.2-31.44,27.22h0c-19.72,0-33.21-13.07-33.23-31.12S481.76,444,501.5,444h0m0-3h0c-10.27,0-19.53,3.43-26.08,9.65a34.69,34.69,0,0,0,0,49c6.55,6.2,15.8,9.61,26.06,9.61h.05c18.95,0,33.11-12.36,34.42-30a3,3,0,0,0-.79-2.26,3,3,0,0,0-2.2-1h0l-22.53,0a3,3,0,0,0-2.81,2c-1,2.84-2.57,3.95-5.45,3.95a6.15,6.15,0,0,1-4.49-1.73,6.28,6.28,0,0,1-1.51-2.61,13,13,0,0,0,6.51-3.53,12.65,12.65,0,0,0,3-4.88,6.38,6.38,0,0,1,1.91,2.94,3,3,0,0,0,2.82,2h0l22.52,0a3,3,0,0,0,2.2-1,3,3,0,0,0,.79-2.26C534.63,453.27,520.47,441,501.54,441Z"/><path class="cls-4" d="M362.06,507.92c-20.37,0-29.87-9.59-29.89-30.17l0-32a1.5,1.5,0,0,1,1.5-1.5l22.53,0a1.52,1.52,0,0,1,1.06.44,1.5,1.5,0,0,1,.44,1.06l0,32c0,5.48,2.36,6.18,4.4,6.18s4.42-.71,4.41-6.19l0-32a1.5,1.5,0,0,1,1.49-1.5l21,0v-15a1.5,1.5,0,0,1,1.5-1.5h5.45a1.5,1.5,0,0,1,1.5,1.5v27a1.5,1.5,0,0,1-1.5,1.5h-3.94l0,20c0,10.22-2.27,17.6-7,22.55-4.9,5.16-12.37,7.68-22.84,7.69Z"/><path class="cls-2" d="M395.86,429.22v27h-5.44l0,21.49c0,19.07-8.07,28.71-28.31,28.73h-.07c-20.2,0-28.37-9.62-28.39-28.67l0-32,22.53,0,0,32c0,5.23,2.11,7.68,5.9,7.68h0c3.8,0,5.91-2.46,5.9-7.69l0-32,22.43,0V429.22h5.45m0-3h-5.45a3,3,0,0,0-3,3v13.47l-19.45,0a3,3,0,0,0-3,3l0,32c0,4.69-1.74,4.69-2.9,4.69s-2.9,0-2.91-4.68l0-32a3,3,0,0,0-3-3h0l-22.52,0a3,3,0,0,0-3,3l0,32c0,21.31,10.29,31.67,31.39,31.67h.07c10.91,0,18.73-2.68,23.93-8.16,5-5.24,7.39-13,7.38-23.58l0-18.48h2.44a3,3,0,0,0,3-3v-27a3,3,0,0,0-3-3Z"/><path class="cls-4" d="M430,507.85c-20.42,0-34.7-13.41-34.72-32.62s14.25-32.66,34.7-32.69c9.48,0,17.88,2.93,24.09,8.32V429.22a1.5,1.5,0,0,1,1.5-1.5H461a1.5,1.5,0,0,1,1.5,1.5v27a1.5,1.5,0,0,1-1.5,1.5h-1.09a32.67,32.67,0,0,1,4.82,17.46c0,19.22-14.24,32.66-34.7,32.69Zm0-41.12a8,8,0,0,0-6,2.46,8.7,8.7,0,0,0-2.22,6,8.35,8.35,0,0,0,8.2,8.46,8.07,8.07,0,0,0,5.77-2.48,8.53,8.53,0,0,0,2.43-6c0-5-3.38-8.46-8.2-8.46v0Z"/><path class="cls-2" d="M461,429.22v27h-3.95a30.72,30.72,0,0,1,6.18,19c0,18.06-13.46,31.16-33.2,31.19h0c-19.71,0-33.2-13.07-33.22-31.12S410.23,444.07,430,444H430c10.76,0,19.66,3.9,25.54,10.38v-25.2H461m-31,55.94h0a9.89,9.89,0,0,0,9.69-10c0-5.48-3.8-9.95-9.7-9.95h0c-5.91,0-9.7,4.49-9.69,10a9.87,9.87,0,0,0,9.7,10m31-58.94h-5.45a3,3,0,0,0-3,3v18.55A38.63,38.63,0,0,0,430,441H430c-10.26,0-19.52,3.44-26.07,9.65a34.7,34.7,0,0,0,0,49.05c6.55,6.19,15.8,9.61,26.05,9.61h0c10.27,0,19.53-3.44,26.08-9.65a33.3,33.3,0,0,0,10.12-24.54,34.6,34.6,0,0,0-3.9-16.27A3,3,0,0,0,464,456.2v-27a3,3,0,0,0-3-3Zm-31,58.94v-3a6.84,6.84,0,0,1-6.7-7,7.22,7.22,0,0,1,1.82-5,6.5,6.5,0,0,1,4.87-2c4.61,0,6.7,3.61,6.71,7a7,7,0,0,1-2,4.94,6.55,6.55,0,0,1-4.69,2v3Z"/><path class="cls-3" d="M172.64,438.19a1.39,1.39,0,0,1-.53-.1l-22.94-8.67-22.94,8.67a1.39,1.39,0,0,1-.53.1,1.68,1.68,0,0,1-.62-.13,1.55,1.55,0,0,1-.79-.84l-1.82-4.82a1.5,1.5,0,0,1,.88-1.93l24.4-9.23a1.5,1.5,0,0,1,1.15-.54,1.23,1.23,0,0,0,.54,0,1.52,1.52,0,0,1,1.15.54l24.4,9.23a1.5,1.5,0,0,1,.87,1.93L174,437.22a1.51,1.51,0,0,1-.79.84A1.59,1.59,0,0,1,172.64,438.19Z"/><path class="cls-2" d="M149.44,422.2l.09.24,24.93,9.43-1.82,4.82-23.47-8.88-23.47,8.88-1.82-4.82,24.93-9.43.09-.24.27.11.27-.11m0-3-.27,0-.27,0a3,3,0,0,0-1.24.27,2.77,2.77,0,0,0-.74.48l-24.1,9.11a3,3,0,0,0-1.75,3.87l1.82,4.82a3,3,0,0,0,1.57,1.67,3,3,0,0,0,1.24.27,3.2,3.2,0,0,0,1.06-.19L149.17,431l22.41,8.48a3.2,3.2,0,0,0,1.06.19,3,3,0,0,0,2.8-1.94l1.82-4.82a3,3,0,0,0-1.74-3.87L151.42,420a2.82,2.82,0,0,0-.75-.48,2.93,2.93,0,0,0-1.23-.27Z"/><rect class="cls-3" x="417.53" y="413.12" width="29.97" height="8.46" transform="translate(-110 676.06) rotate(-69.47)"/><path class="cls-2" d="M434.7,403.76l5.1,1.92-9.45,25.26L425.24,429l9.46-25.26m-1.76-3.86-1.05,2.81L422.43,428l-1.05,2.81,2.8,1.05,5.11,1.92,2.81,1.05,1.06-2.81,9.45-25.26,1.05-2.81-2.8-1.05L435.75,401l-2.81-1.05Z"/><rect class="cls-3" x="167.09" y="421.47" width="29.97" height="8.46" transform="translate(-280.44 446.94) rotate(-69.47)"/><path class="cls-2" d="M184.25,412.11l5.11,1.92-9.46,25.26-5.11-1.92,9.46-25.26m-1.76-3.86-1.05,2.81L172,436.32l-1,2.81,2.81,1.05,5.11,1.91,2.81,1.06,1.05-2.81,9.46-25.26,1.05-2.81-2.81-1-5.11-1.92-2.81-1.05Z"/><polygon class="cls-3" points="45.83 462.64 27.53 462.66 27.5 439.57 89.55 439.5 89.58 462.6 71.27 462.62 71.31 501.62 45.87 501.64 45.83 462.64"/><path class="cls-2" d="M88.05,441l0,20.1-18.3,0,0,39-22.44,0,0-39-18.31,0,0-20.09L88.05,441m3-3h-3l-59,.07H26v3l0,20.09v3h3l15.3,0,0,36v3h3l22.43,0h3v-3l0-36H91.08v-3l0-20.09v-3Z"/><rect class="cls-3" x="92.91" y="439.49" width="25.52" height="62.09" transform="translate(-0.5 0.11) rotate(-0.06)"/><path class="cls-2" d="M116.9,441l.06,59.1-22.52,0L94.38,441l22.52,0m3-3h-3l-22.53,0h-3v3l.06,59.09v3h3l22.52,0h3v-3L119.9,441v-3Z"/><polygon class="cls-3" points="123.92 439.47 176.6 439.41 176.63 460.14 149.47 460.17 149.47 460.97 174.18 460.94 174.2 479.98 149.16 480.01 148.97 480.8 176.65 480.77 176.67 501.5 123.99 501.56 123.92 439.47"/><path class="cls-2" d="M175.11,440.91l0,17.73-27.17,0v3.8l24.71,0,0,16-24.72,0-.92,3.8,28.09,0,0,17.72-49.68.06-.07-59.1,49.69,0m3-3h-3l-49.68,0h-3v3l.07,59.09v3h3l49.68-.06h3v-3l0-17.73v-3H175.7v-.8l0-16v-.8h2.45v-3l0-17.73v-3Z"/><polygon class="cls-3" points="180.35 439.4 211.75 439.37 223.23 464.6 223.21 439.36 248.73 439.33 248.8 501.42 218.18 501.46 205.91 475.96 205.94 501.47 180.42 501.5 180.35 439.4"/><path class="cls-2" d="M247.23,440.83l.06,59.1-28.17,0L205,470.59h-.59l0,29.38-22.52,0-.07-59.1,28.94,0,13.36,29.37h.59l0-29.37,22.52,0m3-3h-3l-22.53,0h-3v19.81l-8.2-18-.8-1.76h-1.94l-28.93,0h-3v3l.07,59.09v3h3l22.52,0h3v-3l0-17.42,9,18.71.81,1.7h1.89l28.18,0h3v-3l-.06-59.09v-3Z"/><path class="cls-3" d="M276.94,439.3l35.92,0c14.88,0,21.49,5.12,21.51,16.59,0,5.89-2.74,11-6.77,13.28,5,2.45,8.22,8,8.23,14.58,0,5.86-1.82,10.33-5.42,13.28s-8.77,4.35-15.88,4.36l-37.52,0Zm23.63,44h6.09c3.93,0,4.24-1.06,4.23-2.56s-.31-2.54-4.21-2.54v-1.5l0,1.5h-6.1Zm.31-22.71H306a7.32,7.32,0,0,0,2.89-.41c.32-.17.67-.44.67-1.47s0-2-3.55-2v0h-5.08Z"/><path class="cls-2" d="M312.93,440.76c13.53,0,19.92,4.22,19.94,15.09,0,7.18-4.29,12.41-9.1,13v.59c6.33,1.09,10.55,7.08,10.56,14.26,0,10.8-6.39,16.13-19.81,16.14l-36,0-.06-59.09,34.42,0h.07m-13.55,21.29H306c2.79,0,5.06-.43,5.06-3.38s-2.27-3.46-5-3.46h-6.59v6.84m-.31,22.71h7.59c3.21,0,5.74-.6,5.73-4.06s-2.52-4-5.71-4h-7.62v8.11m13.86-47h-.08l-34.41,0h-3v3l.06,59.09v3h3l36,0c7.47,0,13-1.55,16.83-4.7s6-8.11,6-14.45-2.7-11.61-7-14.68a17.37,17.37,0,0,0,5.54-13.17c0-16.21-13.1-18.09-22.94-18.09Zm-10.55,20.45H306a6.29,6.29,0,0,1,2.05.22,1.63,1.63,0,0,1,0,.24,1,1,0,0,1,0,.19A7.13,7.13,0,0,1,306,459h-3.58v-.84Zm-.31,21.44h4.59c2.21,0,2.64.39,2.64.4h0a1.47,1.47,0,0,1,.09.64,1.6,1.6,0,0,1-.09.7s-.47.36-2.64.36h-4.59v-2.1Z"/><path class="cls-3" d="M508.49,502.74c-20.42,0-34.7-13.41-34.72-32.61s14.25-32.66,34.7-32.69c18.16,0,31.7,11.74,33,28.54l.13,1.61-25.19,0-.36-1c-1.26-3.41-3.37-4.92-6.86-4.92-4.71,0-7.87,3.37-7.86,8.38s3.16,8.37,7.86,8.37c3.5,0,5.61-1.53,6.86-4.94l.36-1,25.19,0-.12,1.61c-1.25,16.82-14.79,28.58-32.93,28.6Z"/><path class="cls-2" d="M508.52,438.94c17.69,0,30.25,11.55,31.45,27.15l-22.53,0c-1.18-3.21-3.37-5.9-8.26-5.9h0c-5.65,0-9.36,4.23-9.35,9.88s3.72,9.87,9.36,9.87h0c4.89,0,7.09-2.71,8.26-5.92L540,474c-1.17,15.62-13.73,27.2-31.44,27.21h-.05c-19.71,0-33.2-13.06-33.22-31.11s13.46-31.17,33.2-31.19h0m0-3h0c-10.27,0-19.53,3.44-26.08,9.65a34.7,34.7,0,0,0,0,49.05c6.55,6.19,15.8,9.6,26.05,9.6h.05c19,0,33.11-12.35,34.43-30l.24-3.23H540l-22.52,0h-2.09l-.72,2c-1,2.84-2.57,4-5.45,4-3.87,0-6.37-2.7-6.37-6.87s2.49-6.88,6.35-6.88c2.89,0,4.41,1.1,5.46,3.93l.72,2h2.1l22.52,0h3.24l-.25-3.23c-1.35-17.61-15.51-29.92-34.44-29.92Z"/><path class="cls-3" d="M369,502.9c-20.37,0-29.86-9.59-29.89-30.17l0-33.5,25.52,0,0,33.5c0,5.47,2.35,6.18,4.4,6.18s4.41-.71,4.41-6.19l0-33.5,22.44,0V422.7h8.46v30h-5.45l0,20c0,10.22-2.27,17.59-7,22.55-4.9,5.16-12.37,7.68-22.85,7.69Z"/><path class="cls-2" d="M402.84,424.2v27h-5.45l0,21.49c0,19.08-8.07,28.71-28.32,28.74H369c-20.19,0-28.36-9.62-28.39-28.67l0-32,22.52,0,0,32c0,5.23,2.11,7.68,5.9,7.68h0c3.8,0,5.9-2.46,5.9-7.69l0-32,22.44,0V424.2h5.46m3-3H394.38v16.47l-19.44,0h-3v3l0,32c0,4.68-1.75,4.68-2.9,4.69s-2.91,0-2.91-4.68l0-32v-3h-3l-22.52,0h-3v3l0,32c0,21.31,10.29,31.67,31.39,31.67h.08c10.9,0,18.73-2.68,23.93-8.16,5-5.25,7.39-13,7.38-23.58l0-18.49h5.44v-33Z"/><path class="cls-3" d="M437,502.82c-20.42,0-34.7-13.41-34.72-32.61s14.25-32.67,34.7-32.69c9.47,0,17.87,2.93,24.08,8.31V422.7h8.46v30h-2.59a32.87,32.87,0,0,1,4.82,17.46c0,19.23-14.25,32.67-34.7,32.69Zm0-41.11a7.92,7.92,0,0,0-6,2.45,8.74,8.74,0,0,0-2.23,6,8.35,8.35,0,0,0,8.21,8.45,8,8,0,0,0,5.77-2.47,8.54,8.54,0,0,0,2.43-6c0-5-3.38-8.45-8.2-8.45v0Z"/><path class="cls-2" d="M468,424.2v27h-4a30.73,30.73,0,0,1,6.19,19c0,18.06-13.46,31.16-33.2,31.18H437c-19.71,0-33.2-13.06-33.22-31.11S417.2,439,436.94,439H437c10.76,0,19.66,3.9,25.53,10.37V424.2H468m-31,55.93h0a9.86,9.86,0,0,0,9.68-10c0-5.48-3.79-10-9.69-10h0c-5.9,0-9.69,4.48-9.69,10a9.88,9.88,0,0,0,9.71,9.95m34-58.93H459.52v21.55A38.52,38.52,0,0,0,437,436h-.05c-10.27,0-19.53,3.44-26.07,9.65a34.7,34.7,0,0,0,0,49c6.56,6.2,15.81,9.61,26.06,9.61H437c10.27,0,19.53-3.44,26.07-9.65a33.29,33.29,0,0,0,10.13-24.54,34.91,34.91,0,0,0-3.74-16H471v-33Zm-34,58.93v-3a6.85,6.85,0,0,1-6.71-6.95,7.23,7.23,0,0,1,1.83-5,6.46,6.46,0,0,1,4.87-2c4.6,0,6.7,3.61,6.7,7a7,7,0,0,1-2,4.95,6.55,6.55,0,0,1-4.7,2v3Z"/></svg>