<svg id="Layer_1" data-name="Layer 1" xmlns="http://www.w3.org/2000/svg" viewBox="0 0 461.3 687.34"><defs><style>.cls-1,.cls-2{fill:#26eac3;}.cls-12,.cls-13,.cls-14,.cls-2,.cls-6,.cls-7,.cls-8{stroke:#231f20;}.cls-12,.cls-13,.cls-2,.cls-3,.cls-4,.cls-5,.cls-6,.cls-7,.cls-8,.cls-9{stroke-miterlimit:10;}.cls-12,.cls-13,.cls-14,.cls-15,.cls-2,.cls-3,.cls-4,.cls-5,.cls-6,.cls-7,.cls-8,.cls-9{stroke-width:3px;}.cls-3{fill:#ffce00;}.cls-3,.cls-4,.cls-5{stroke:#000;}.cls-4{fill:#b671f6;}.cls-5{fill:#fff;}.cls-6{fill:#fe87a3;}.cls-7{fill:#6420e4;}.cls-14,.cls-8{fill:#122f39;}.cls-13,.cls-9{fill:#fcc900;}.cls-15,.cls-9{stroke:#122f39;}.cls-10,.cls-12{fill:#01adc1;}.cls-11{fill:#fee38c;}.cls-14,.cls-15{stroke-linejoin:round;}.cls-15{fill:none;stroke-linecap:round;}</style></defs><title>opportunity</title><rect class="cls-1" x="59.01" y="3.6" width="247.43" height="479.93"/><path class="cls-2" d="M308.54,485.63H56.91V1.5H308.54Z"/><path class="cls-3" d="M74,148.12l-33.9-91a1,1,0,0,1,1.68-.86l96.23,144.25-68-19.2,61.25,135.59a1.73,1.73,0,0,1-3,1.73L3,146.56Z"/><circle class="cls-4" cx="57.3" cy="369.86" r="27.75"/><circle class="cls-5" cx="298.41" cy="80.43" r="27.75"/><path class="cls-6" d="M239.23,332.59c-1.42,22.52-2.18,45.44,2.92,67.35a4,4,0,0,0,1.38,2.59c1,.63,2.29.11,3.36-.42L275.49,388a3.45,3.45,0,0,0,1.3-.93,4,4,0,0,0,.4-2.79q-3.39-32.07-8.51-63.91c-.16-1-.46-2.24-1.38-2.61a2.79,2.79,0,0,0-2.26.5Z"/><path class="cls-7" d="M229.65,253.18c11.36,4.23,20.67,12.82,27.76,22.65s12.15,20.94,17.17,32c.59,1.29,1.18,2.73.73,4.07s-1.82,2.13-3.08,2.8L235.1,334.29A499.26,499.26,0,0,1,229.65,253.18Z"/><path class="cls-7" d="M225.5,250.39c3.11,1.28,6.28,2.63,8.73,4.94,3.81,3.6,5.31,8.95,6.41,14.07,9.88,45.8,1,93.51-11.3,138.72a4.89,4.89,0,0,1-.84,1.94c-.88,1-2.39,1.16-3.74,1.21q-36.51,1.47-73.06,1.41c-2.39,0-4.91,0-7-1.25-3.33-1.94-4.39-6.18-5-10-1.92-12.94-1.69-26.09-2.4-39.15-2-36.86-11.5-73-13.74-109.84,14.94-9.78,33.8-10.67,51.64-11.25,7.1-.23,14.24-.46,21.28.46C206.57,243,216.14,246.55,225.5,250.39Z"/><path class="cls-8" d="M191.42,129.65c3.29.68,4.73,4.5,5.48,7.78,1.91,8.35,2.93,17.42-.61,25.22-.68,1.5-2,3.16-3.61,2.79a3.83,3.83,0,0,1-1.91-1.5A41.16,41.16,0,0,1,182,143c-.34-2.92-.33-6,1-8.65a9.25,9.25,0,0,1,5.16-4.44A6.21,6.21,0,0,1,191.42,129.65Z"/><path class="cls-9" d="M315.05,413.58a126,126,0,0,1,20.74,3.19,59.43,59.43,0,0,1,20.55,9.3,75.56,75.56,0,0,1,7.35,6.73c2.1,2,4.37,3.63,6.18,6a20.94,20.94,0,0,1,4,8.09,16.86,16.86,0,0,1-3.67.54,14.07,14.07,0,0,1-3.48-.2c-1.79-.2-3.6-.42-5.36-.79-3.33-.7-6.63-1.32-9.93-2.26a108.2,108.2,0,0,1-20.88-8.27,81.44,81.44,0,0,1-17.3-12.09c-1.62-1.51-3.13-3.11-4.61-4.76-.89-1-3.61-2.85-2.87-4.32,1-2,5.94-1.39,7.61-1.26Z"/><path class="cls-10" d="M291.67,446.19a9.71,9.71,0,0,1,4.81-3.25,4.35,4.35,0,0,0-1,2.59,5.37,5.37,0,0,0,.64,2.13c7.46,16,19.94,29.47,34.58,39.4s31.37,16.48,48.55,20.68c2,.48,4.31.82,5.74-.6a4.71,4.71,0,0,0,1-3.89,20.34,20.34,0,0,0-2.84-7.33l-1.66-3c3.26,4.55,6,9.61,6.57,15.14A17.44,17.44,0,0,1,385,520.27c-3.46,4.53-7.14,4.1-12.45,3.61a73.39,73.39,0,0,1-30.94-10,118.8,118.8,0,0,1-13.31-9.56c-14.37-11.57-31.08-26.44-37-44.45C289.76,455.33,288.8,450,291.67,446.19Z"/><path class="cls-11" d="M386.06,503.25a4.71,4.71,0,0,1-1,3.89c-1.43,1.42-3.78,1.08-5.74.6-17.18-4.2-33.92-10.75-48.55-20.68s-27.12-23.36-34.58-39.4a5.37,5.37,0,0,1-.64-2.13,4.35,4.35,0,0,1,1-2.59l.19-.26c4-5.31,11.41-6.84,18.07-6.57,15.88.63,30.61,9.22,41.74,20.56,10.31,10.52,17.94,23.31,25.08,36.23l1.66,3A20.34,20.34,0,0,1,386.06,503.25Z"/><path class="cls-12" d="M291.67,446.19a9.71,9.71,0,0,1,4.81-3.25,4.35,4.35,0,0,0-1,2.59,5.37,5.37,0,0,0,.64,2.13c7.46,16,19.94,29.47,34.58,39.4s31.37,16.48,48.55,20.68c2,.48,4.31.82,5.74-.6a4.71,4.71,0,0,0,1-3.89,20.34,20.34,0,0,0-2.84-7.33l-1.66-3c3.26,4.55,6,9.61,6.57,15.14A17.44,17.44,0,0,1,385,520.27c-3.46,4.53-7.14,4.1-12.45,3.61a73.39,73.39,0,0,1-30.94-10,118.8,118.8,0,0,1-13.31-9.56c-14.37-11.57-31.08-26.44-37-44.45C289.76,455.33,288.8,450,291.67,446.19Z"/><path class="cls-13" d="M386.06,503.25a4.71,4.71,0,0,1-1,3.89c-1.43,1.42-3.78,1.08-5.74.6-17.18-4.2-33.92-10.75-48.55-20.68s-27.12-23.36-34.58-39.4a5.37,5.37,0,0,1-.64-2.13,4.35,4.35,0,0,1,1-2.59l.19-.26c4-5.31,11.41-6.84,18.07-6.57,15.88.63,30.61,9.22,41.74,20.56,10.31,10.52,17.94,23.31,25.08,36.23l1.66,3A20.34,20.34,0,0,1,386.06,503.25Z"/><path class="cls-14" d="M252.54,475c-.1-.38-20.47-.16-21.76-.22-15.57-.81-31.2-2.81-46.25-6.94-16.42-4.51-33.68-11.86-44.4-25.69-4.91-7.36-8.57-15-9.55-23.94-1.09-9.86,2.54-17.62,6-26.62a7.56,7.56,0,0,1,1.59-2.8c1.19-1.14,3-1.35,4.62-1.47,6.32-.46,12.79-.63,19.13-.68a265.69,265.69,0,0,1,45.5,3.51c7.39,1.22,14.6,3,21.91,4.6,5.12,1.12,10.72,1.42,15.53,3.76,19.37,9.4,44.72,19.25,54.41,35.94s81.26,143.43,81.26,143.43-38-6-64.11,31.31C316.45,609.17,266.15,528.65,252.54,475Z"/><path class="cls-6" d="M159.56,194.47c0-.18,12.08,3.62,13.15,4a93.56,93.56,0,0,1,12.43,5.9c1.75,1,3.37,2.2,5.1,3.2.84.48,1.74.65,2.23,1.45s.38,2.69.5,3.62c.61,4.93.91,9.9,1.54,14.83.87,6.81,1.72,13.62,2.7,20.41a3.5,3.5,0,0,0,.25,1,3.4,3.4,0,0,0,1,1.11c3.06,2.69,9.42,6.11,10.44,10.32,1,3.93-1.86,6.49-5.36,7-16.56,2.61-38.95-7.35-51.21-18.07a1.47,1.47,0,0,1-.47-.58,1.61,1.61,0,0,1,0-1C156.06,230.41,157.29,212.18,159.56,194.47Z"/><path class="cls-8" d="M238.13,393.74c1.63.54,27.6-35.16,29.76-37.68,18.82-22,39.54-44.59,64.57-59.56,21.43-12.82,55.68-15,61,17.42,7,42.41-9,92.47-19.61,132.73,0,0-21.62-23.85-52.93-29.82S238.13,393.74,238.13,393.74Z"/><path class="cls-6" d="M200.62,164.28c3.85,6.68,7.29,13.73,8.62,21.32,1.44,8.17-.16,20-8,24.55-11.1,6.38-23.2-1-31.79-7.92-9.8-7.86-17-13.79-19.15-27.07-1.31-7.91.47-16.69,6.21-22.29,3.78-3.68,8.86-5.69,13.93-7.13C186.47,141.18,193.49,151.91,200.62,164.28Z"/><polygon class="cls-3" points="222.74 423.48 166.83 401.47 260 401.47 222.74 423.48"/><path class="cls-6" d="M139,337.12a14.84,14.84,0,0,1,.32,6.44c-.19,1.85-2.07,7.75-.42,9.22a2.07,2.07,0,0,0,1,.4,93.12,93.12,0,0,1,18.55,5.35c9.68,4,19.31,7.94,29,11.82A193.12,193.12,0,0,1,207,379.24c6,3.2,9.27,6.67,16.7,5.29,4.2-.77,8.4-2.24,12.63-1.67,5.15.7,9.84,4.36,15,3.75-.4,2.73-2,5.13-3.51,7.43l-19.5,29.21c-1.39,2.09-17.21-11.27-18.72-12.48a40.41,40.41,0,0,0-9.39-6c-3.55-1.47-7.17-.15-10.95-.22-9.77-.21-19.6-.41-29.19-2.28-3.53-.69-7-1.59-10.48-2.54A494.45,494.45,0,0,1,99.7,383.22a11.63,11.63,0,0,1-2.92-1.48c-2.49-1.9-3.94-6.78-4.52-9.81-1-5-.77-10.55-.85-15.61-.16-10.76.72-21.69,4.39-31.87a3.05,3.05,0,0,1,.81-1.38,3.09,3.09,0,0,1,1.82-.48c12.79-.55,26.36,1.43,36.4,9.38A12.22,12.22,0,0,1,139,337.12Z"/><path class="cls-13" d="M316.51,609.22c-1.82-3.73,5.31-9.61,7.51-12a73.81,73.81,0,0,1,19.84-15c9.41-4.89,23.37-11.37,34.13-7.4,8.83,3.27-9.58,18.51-11.89,20.54a84.26,84.26,0,0,1-19.49,13.35,43,43,0,0,1-14.11,4.16c-3.56.36-13.74-.16-15.82-3.41C316.62,609.41,316.56,609.32,316.51,609.22Z"/><path class="cls-6" d="M359.92,585.15a39.16,39.16,0,0,1,2.54,5.11c1.33,2.69,3,5.26,4.43,7.88l6.19,11-38.74,31.31L325.25,615c-.72-2-2.26-4.78-1.83-6.93.62-3.17,4.49-6.73,6.64-9,5.77-6,12.82-10.62,20-14.77,2-1.15,4.26-2.32,6.49-1.74A5.83,5.83,0,0,1,359.92,585.15Z"/><path class="cls-12" d="M338.22,659.68a11.54,11.54,0,0,0,5.24,2,30.8,30.8,0,0,0,15.7-1.93c5.4-2,9.91-6,15.33-7.61,6.13-1.86,12.13-4.9,17.88-7.7a221.92,221.92,0,0,0,33.25-19.91c6-4.36,12.52-7.47,17.8-12.89,3-3,8.27-8.93,7-13.49-.73-2.52-2.8-4.24-5.16-5.46a13.22,13.22,0,0,1,6.86,1.93,16.41,16.41,0,0,1,6.71,8.54c2.89,8.05-.91,17.94-6.12,24.27-3.95,4.8-9,8.55-14.11,12.08-12.16,8.4-25.27,16.87-38.94,22.62C387.35,667.3,380,680.38,367,684.31a45.38,45.38,0,0,1-11.91,1.49c-3.79.1-7.67.1-11.22-1.19-6.1-2.21-10.4-8.09-11.81-14.42a31.14,31.14,0,0,1,2.05-18.89C334.79,654.5,335.66,657.72,338.22,659.68Z"/><path class="cls-13" d="M332.66,646c-2.19-5.69-4.42-11.53-5.09-17.64-.17-1.54-.23-3.25.71-4.48a6.56,6.56,0,0,1,3.21-1.87c2.14-.75,4.51-1.13,6.58-1.9,2.27-.85,4-2.72,6-4.14,3.22-2.37,7.24-4.33,11.13-3.36,2.38.59,4.36,2.19,6.25,3.74-.15-2.39-1.6-4.5-2.07-6.85-1-5.17,2.78-9.92,6.32-13.81a7.07,7.07,0,0,1,6.26-3.17c18.14-1.09,36-3.75,54.25-3.45,4.77.08,9.61.3,14.17,1.71a28.82,28.82,0,0,1,4.89,1.91c2.36,1.22,4.43,2.94,5.16,5.46,1.3,4.56-4,10.45-7,13.49-5.28,5.42-11.78,8.53-17.8,12.89a221.92,221.92,0,0,1-33.25,19.91c-5.75,2.8-11.75,5.84-17.88,7.7-5.42,1.65-9.93,5.57-15.33,7.61a30.8,30.8,0,0,1-15.7,1.93,11.54,11.54,0,0,1-5.24-2c-2.56-2-3.43-5.18-4.15-8.38-.33-1.46-.63-2.91-1.05-4.25Q332.86,646.51,332.66,646Z"/><path class="cls-14" d="M157.08,170.09a10,10,0,0,1,.23-11.55,10.73,10.73,0,0,1,11-3.77c4.87,1.26,7.91,1.67,12.36-1.24l5.83-3.82a21.05,21.05,0,0,1,.24,10c.29-1.31,3-3.52,3.78-4.73a39.26,39.26,0,0,0,3.28-5.87,40.32,40.32,0,0,0,3.44-13c.6-6.6,2.17-18.06-5.11-21.84-3.37-1.74-7.7-.19-10.24,2.63s-3.7,6.58-4.7,10.24c-.59,2.19-1.66,4.85-3.93,5-1.54-3.59.8-8-.79-11.55-1.89-4.28-8.53-4.38-11.92-1.16s-4.24,8.27-4.39,12.94.18,9.52-1.57,13.86c-2.27,5.64-7.57,9.35-12.3,13.17s-9.44,8.73-9.62,14.81c-.24,7.88,7,13.69,13.52,18.14l14.36,9.81a9.88,9.88,0,0,0,2.71,1.46c2.79.82,5.86-1.07,7.16-3.68s1.18-5.7.63-8.56a31.2,31.2,0,0,0-9.72-17.2A28.09,28.09,0,0,1,157.08,170.09Z"/><path class="cls-6" d="M160.32,179.45a15.78,15.78,0,0,1,5.17,2.59c2.63,2,5.29,4.64,6.44,7.85,1,2.76.09,6.86-2.74,8.36a4.86,4.86,0,0,1-1.67.48c-5.76.75-10.73-4.47-13.11-9.15a12.45,12.45,0,0,1-1.59-5.68C152.83,179,156.62,178.38,160.32,179.45Z"/><path class="cls-6" d="M357.4,431l.26.2a.53.53,0,0,1,.23.28.63.63,0,0,1,0,.3c-1,2.83-2.33,5.47-3.46,8.21s-2.06,5.68-3,8.5l-6.09-1.57a19.27,19.27,0,0,0-4.63-.79,6.44,6.44,0,0,0-4.36,1.48,8.63,8.63,0,0,0-1.33,1.68,34.7,34.7,0,0,0-4,8.67,79.13,79.13,0,0,0-3.68-8.51,17.09,17.09,0,0,0-1.57-2.68,16.12,16.12,0,0,0-3-3c-2-1.6-7-1.78-7-4.37,0-75.29-3.21-1.2-4.79-1.91,0,0,4.49-9.7,4.78-10.33l4.86-10.48c.27-.59.68-2.14,1.25-2.4s2.07.22,2.66.31a39.57,39.57,0,0,1,5.36,1.22c1.23.38,2.45.82,3.65,1.28A92.61,92.61,0,0,1,357.4,431Z"/><path class="cls-15" d="M232.53,391.68c4.06.05,7.48,2.52,11.35,3.38"/><polygon class="cls-3" points="265.22 341.34 222.74 423.48 309.95 423.48 356.7 341.34 265.22 341.34"/><path class="cls-7" d="M148.13,250.85c15.78,7.43,16.27,33.39,15.21,48.65a261.47,261.47,0,0,1-8.43,50.11,93.58,93.58,0,0,0-67.75-27.36A337.3,337.3,0,0,1,102.37,278c3.82-9,8.33-18.26,16.08-24.06A29.43,29.43,0,0,1,148.13,250.85Z"/></svg>