<svg id="Layer_1" data-name="Layer 1" xmlns="http://www.w3.org/2000/svg" viewBox="0 0 59.95 46.2"><defs><style>.cls-1{fill:#fc233c;stroke:#231f20;stroke-miterlimit:10;stroke-width:3px;}</style></defs><title>quote_1</title><path class="cls-1" d="M26.69,44.7H1.5V23.05a18.74,18.74,0,0,1,1.94-9,18.45,18.45,0,0,1,5-5.93,27.25,27.25,0,0,1,6.89-3.8q3.8-1.42,7.51-2.55l3.71,6.74a40,40,0,0,0-4.81,2.17,13.83,13.83,0,0,0-3.26,2.39A8,8,0,0,0,16.66,16,11.53,11.53,0,0,0,16.07,20H26.69Zm31.16,0H32.71V23.05a18.74,18.74,0,0,1,1.94-9,18.64,18.64,0,0,1,5-5.93,26.73,26.73,0,0,1,6.86-3.8Q50.32,2.92,54,1.79l3.76,6.74A39.8,39.8,0,0,0,53,10.7a13.9,13.9,0,0,0-3.27,2.39A8,8,0,0,0,47.87,16,11.53,11.53,0,0,0,47.28,20H57.85Z"/></svg>