<svg id="Layer_1" data-name="Layer 1" xmlns="http://www.w3.org/2000/svg" viewBox="0 0 59.95 46.2"><defs><style>.cls-1{fill:#fc233c;stroke:#231f20;stroke-miterlimit:10;stroke-width:3px;}</style></defs><title>quote_2</title><path class="cls-1" d="M33.26,1.5H58.45V23.15a18.67,18.67,0,0,1-1.94,9,18.49,18.49,0,0,1-5,5.94,26.92,26.92,0,0,1-6.89,3.79q-3.8,1.44-7.51,2.56l-3.71-6.75a38.56,38.56,0,0,0,4.81-2.16,13.83,13.83,0,0,0,3.26-2.39,8.28,8.28,0,0,0,1.86-2.95,11.78,11.78,0,0,0,.59-3.91H33.26ZM2.1,1.5H27.24V23.15a18.67,18.67,0,0,1-1.94,9,18.56,18.56,0,0,1-5,5.94,26.4,26.4,0,0,1-6.86,3.79q-3.79,1.44-7.5,2.56L2.16,37.66A38.37,38.37,0,0,0,7,35.5a13.9,13.9,0,0,0,3.27-2.39,8.12,8.12,0,0,0,1.85-2.95,11.53,11.53,0,0,0,.59-3.91H2.1Z"/></svg>