<svg id="Layer_1" data-name="Layer 1" xmlns="http://www.w3.org/2000/svg" viewBox="0 0 49.14 37.79"><defs><style>.cls-1{fill:#01e56f;stroke:#231f20;stroke-miterlimit:10;stroke-width:2px;}</style></defs><title>quote_green_1</title><path class="cls-1" d="M21.9,36.79H1v-18a15.53,15.53,0,0,1,1.61-7.45A15.32,15.32,0,0,1,6.78,6.46,22.82,22.82,0,0,1,12.5,3.31q3.15-1.18,6.23-2.12l3.08,5.6a32.17,32.17,0,0,0-4,1.79,11.4,11.4,0,0,0-2.71,2A6.73,6.73,0,0,0,13.57,13a9.86,9.86,0,0,0-.49,3.24H21.9Zm25.85,0H26.89v-18a15.53,15.53,0,0,1,1.61-7.45,15.55,15.55,0,0,1,4.16-4.92,22.28,22.28,0,0,1,5.69-3.15c2.1-.79,4.17-1.5,6.23-2.12l3.12,5.6a33.57,33.57,0,0,0-4,1.79,11.53,11.53,0,0,0-2.7,2A6.6,6.6,0,0,0,39.47,13,9.6,9.6,0,0,0,39,16.26h8.77Z"/></svg>