<svg id="Layer_1" data-name="Layer 1" xmlns="http://www.w3.org/2000/svg" viewBox="0 0 49.14 37.79"><defs><style>.cls-1{fill:#01e56f;stroke:#231f20;stroke-miterlimit:10;stroke-width:2px;}</style></defs><title>quote_green_2</title><path class="cls-1" d="M27.24,1h20.9V19a15.53,15.53,0,0,1-1.61,7.45,15.32,15.32,0,0,1-4.17,4.92,22.82,22.82,0,0,1-5.72,3.15q-3.15,1.19-6.23,2.12L27.33,31a32.17,32.17,0,0,0,4-1.79,11.4,11.4,0,0,0,2.71-2,6.73,6.73,0,0,0,1.54-2.45,9.86,9.86,0,0,0,.49-3.24H27.24ZM1.39,1H22.25V19a15.53,15.53,0,0,1-1.61,7.45,15.55,15.55,0,0,1-4.16,4.92,22.28,22.28,0,0,1-5.69,3.15c-2.1.79-4.17,1.5-6.23,2.12L1.44,31a33.57,33.57,0,0,0,4-1.79,11.53,11.53,0,0,0,2.7-2,6.6,6.6,0,0,0,1.54-2.45,9.6,9.6,0,0,0,.49-3.24H1.39Z"/></svg>