<svg id="Layer_1" data-name="Layer 1" xmlns="http://www.w3.org/2000/svg" viewBox="0 0 500.14 537.6"><defs><style>.cls-1,.cls-6{fill:#01adc1;}.cls-1,.cls-14,.cls-2,.cls-3,.cls-4,.cls-8,.cls-9{stroke:#231f20;}.cls-1,.cls-10,.cls-14,.cls-15,.cls-2,.cls-3,.cls-4,.cls-5,.cls-8{stroke-miterlimit:10;}.cls-1,.cls-10,.cls-11,.cls-14,.cls-15,.cls-2,.cls-3,.cls-4,.cls-5,.cls-8,.cls-9{stroke-width:3px;}.cls-2{fill:#6420e4;}.cls-3{fill:#fe87a3;}.cls-4,.cls-9{fill:#122f39;}.cls-5,.cls-8{fill:#fcc900;}.cls-11,.cls-5{stroke:#122f39;}.cls-7{fill:#fee38c;}.cls-11,.cls-9{stroke-linejoin:round;}.cls-10{fill:#ffce00;}.cls-10,.cls-15{stroke:#000;}.cls-11{fill:none;stroke-linecap:round;}.cls-12{fill:#39257a;}.cls-13{fill:#fc8a7f;}.cls-14{fill:#966122;}.cls-15{fill:#00e66f;}</style></defs><title>xaydungsututin</title><path class="cls-1" d="M431.82,482.56c-4.32,4.41-1,12.32,1.4,17.36,1.84,3.9,33-19.41,35.61-21.21,4.29-2.91,8.86-5.39,13.28-8.08a54.89,54.89,0,0,0,6.67-4.4c1.18-1,3.62-2.66,4.32-4,.51-.93.07-2.07-.36-3q-3.33-7.37-6.71-14.72-2.53-5.55-5.11-11.08c-1.61-3.44-4.19-6.94-4.81-10.7l-17.21,6.74c-2.87,1.13-5.94,2.41-7.59,5-1.92,3-1.41,6.88-1.1,10.43.94,10.85-3.47,17.81-9.34,26.55a61.38,61.38,0,0,1-7.58,9.62C432.81,481.56,432.31,482.05,431.82,482.56Z" transform="translate(-19.7 -1.2)"/><path class="cls-1" d="M399,427.33a121.93,121.93,0,0,0-16.77-.42,6.47,6.47,0,0,0-7.06,4.94c-3.58,8.22-2.92,17.31-9.18,24.63s-17.74,12.74-26.57,15.88a3.68,3.68,0,0,0-1.72,1,3.9,3.9,0,0,0-.61,1.52c-.85,3.43-.5,7-1.44,10.26,16.71-1.9,33.55-2.54,50.25-4.57,1.71-.2,3.65-.89,5.35-.83,1.45,0,3,.71,4.45.87a26.2,26.2,0,0,0,11.45-1.33,6,6,0,0,0,2.74-1.64c1.25-1.51,1-3.72.65-5.66-1.58-9.13-2.75-18.47-4.77-27.52-.77-3.45-2.2-7-3.25-10.42C402,432.63,401,427.52,399,427.33Z" transform="translate(-19.7 -1.2)"/><path class="cls-2" d="M484.1,430.27q-.37-7.45-.73-14.9c-1.18-24.06-1.31-46.06-11.87-68.31-1.61-3.38-3.39-6.71-4.33-10.32a45.26,45.26,0,0,1-1.11-9.65q-1-24.87-.15-49.78c.17-5,.45-10.26,2.79-14.73.86-1.64,2-3.2,2.33-5a12,12,0,0,0-.17-3.78c-2.33-15.16-2.5-33.55-8.7-47.71-3.9-8.92-10.93-16.51-21-16.25-.25-.2-.5-.4-.76-.59a20.81,20.81,0,0,0-5.45-3,13.9,13.9,0,0,0-8-.58c-6.08,1.51-9.84,7.42-13,12.84-14.66,25.29-27.51,52.13-40.71,78.37L366,291.29c-5.45,10.82-11,22.31-10.22,34.4a34,34,0,0,0,2.07,9.61c.78,2.1,1.77,4.12,2.44,6.26a44.06,44.06,0,0,1,1.48,8.16c2.29,20.17,3.33,40.44,4.54,60.69.78,12.92,2.38,25.54,3.46,38.44,2.91-1.17,6.17-.83,9.31-.8,9,.07,17.78-2.64,26.37-5.33a4.68,4.68,0,0,0,2.12-1.09c1.85-2-.38-8.82-.63-11.29a295.8,295.8,0,0,1-2-29.59q-.06-23.87-1.71-47.68c-.36-5.12-.84-10.44-3.47-14.84-1.33-2.23-3.26-4.37-3.25-7a9.87,9.87,0,0,1,1.5-4.46c4.21-7.86,9.11-15.23,13.39-23,2.92-5.32,5.17-11,7.72-16.5,1.37-2.95,2.88-5.86,4.49-8.73q.64,10.23,1.28,20.46c.85,13.74-.12,27.29,3.84,40.66,1.58,5.35,5,9.84,6.6,15.29,1.92,6.56,2.51,13.44,3,20.23,1.68,21.92,3.84,43.65,5.42,65.55.24,3.21-.58,8.52,2.12,10.6,3,2.27,11.48,2.25,15.2,3a9.56,9.56,0,0,0,4.38.15,13.91,13.91,0,0,0,3-1.3,25,25,0,0,0,6.9-6c2.3-2.94,6.07-5.75,7.75-9.07C484.33,435.72,484.23,432.93,484.1,430.27Z" transform="translate(-19.7 -1.2)"/><path class="cls-3" d="M329.24,130.3c.07-.19.13-.38.19-.57a4.67,4.67,0,0,0,.29-2.06c-.45-3.3-4.7-3.66-5.74-6.5-.31-.87.06-2.1-.1-3.06a10,10,0,0,0-1.13-3.19,16.44,16.44,0,0,0-4.14-4.7,81,81,0,0,1-8.55-8c-1-1.1-3.7-6.62-5.26-2.53a4.62,4.62,0,0,0,.27,3.22c1.41,3.81,8,7.65,5.07,12-2.46-1-4.89-2-7.29-3.17-2.16-1-4.26-1.82-6.44-2.68a16.76,16.76,0,0,1-3.25-1.56,17.19,17.19,0,0,1-2.08-1.73l-3.9-3.62c-.81-.76-2.06-2.52-3.35-2.33s-1.47,1.92-1.35,3.19a1.73,1.73,0,0,0-1.85,1.09,4.17,4.17,0,0,0-.13,2.3,2.26,2.26,0,0,0-2.1,3,2.09,2.09,0,0,0-1.67,2.15,5.5,5.5,0,0,0,1,2.77,42,42,0,0,0,10.91,11.87c3.85,2.85,9.22,6.33,14.2,6.32,2.63,0,5.21-1.21,7.82-.89,2.05.25,3.69,1.49,5.5,2.33,2.35,1.09,4.61,2.36,6.89,3.62a1.25,1.25,0,0,0,.92.24,1.23,1.23,0,0,0,.49-.32A18,18,0,0,0,329.24,130.3Z" transform="translate(-19.7 -1.2)"/><path class="cls-3" d="M501.16,314.46a43.54,43.54,0,0,0-2.19,5.79,3.2,3.2,0,0,0,.16,2.42c1.08,1.76,4.22-.45,5.1-1.47a15.3,15.3,0,0,0,2.77-5.79,13.64,13.64,0,0,1,2.59-5c1.13-1.39,2.91-1.67,3.94-3.26a.64.64,0,0,1,.22-.24.48.48,0,0,1,.2-.07,6.78,6.78,0,0,0,1.28-.15,2.6,2.6,0,0,0,1-.84,5.45,5.45,0,0,0,1-2.51,7.49,7.49,0,0,0,0-2.5,67.26,67.26,0,0,0-2-9.55c-.72-2.84-2.43-5.26-3.38-8a24.35,24.35,0,0,1-1.5-9c0-.3,0-.61.06-.91.23-2.36.94-4.68.9-7.06a3,3,0,0,0-.27-1.4,3.65,3.65,0,0,0-.94-1,17.28,17.28,0,0,0-4.76-3.17c-2-.78-5.3-.69-7,.74a8.5,8.5,0,0,0-2.38,4.73c-1,4.19-.85,8.59-2,12.7-.9,3.35-2.74,6.4-3.42,9.8-1.33,6.75,2,13.55-1.26,20a1.63,1.63,0,0,0-.25.76c0,.71.87,1.09,1.59,1.11,3.76.07,4.93-4.4,5.25-7.38.23-2.09-.16-4.38,1-6.15a1.23,1.23,0,0,1,.9-.68c1.09-.07,1.19,1.38,1.45,2.07a31.45,31.45,0,0,0,1.88,3.47c.79,1.44.69,2.58.78,4.17a31.45,31.45,0,0,1,.2,5.13A13.26,13.26,0,0,1,501.16,314.46Z" transform="translate(-19.7 -1.2)"/><path class="cls-3" d="M125.64,295.77c-1,15.4-1.49,31.07,2,46.05a2.71,2.71,0,0,0,.94,1.77,2.44,2.44,0,0,0,2.3-.29l19.55-9.68a2.26,2.26,0,0,0,.89-.63,2.7,2.7,0,0,0,.27-1.91q-2.31-21.93-5.81-43.7c-.11-.71-.32-1.53-.95-1.78a1.87,1.87,0,0,0-1.54.34Z" transform="translate(-19.7 -1.2)"/><path class="cls-2" d="M119.09,241.47c7.77,2.89,14.14,8.77,19,15.49s8.31,14.32,11.74,21.86a2.92,2.92,0,0,1-1.6,4.69l-25.39,13.42A340.78,340.78,0,0,1,119.09,241.47Z" transform="translate(-19.7 -1.2)"/><path class="cls-2" d="M116.25,239.57a18.9,18.9,0,0,1,6,3.37c2.6,2.46,3.63,6.12,4.38,9.62,6.76,31.32.7,63.94-7.72,94.85a3.32,3.32,0,0,1-.58,1.33,3.43,3.43,0,0,1-2.55.83q-25,1-50,1a9.39,9.39,0,0,1-4.77-.85c-2.27-1.33-3-4.23-3.39-6.84C56.31,334,56.47,325,56,316.08c-1.37-25.2-7.85-49.91-9.39-75.11,10.22-6.68,23.11-7.29,35.31-7.69a90.56,90.56,0,0,1,14.55.32C103.31,234.49,109.86,236.94,116.25,239.57Z" transform="translate(-19.7 -1.2)"/><path class="cls-4" d="M93,157c2.25.47,3.24,3.08,3.75,5.32,1.3,5.71,2,11.91-.42,17.24-.46,1-1.37,2.17-2.47,1.91a2.55,2.55,0,0,1-1.3-1,28.14,28.14,0,0,1-6-14.3,10.25,10.25,0,0,1,.7-5.91,6.29,6.29,0,0,1,3.53-3A4.17,4.17,0,0,1,93,157Z" transform="translate(-19.7 -1.2)"/><path class="cls-5" d="M177.48,351.15a85.85,85.85,0,0,1,14.18,2.18,40.44,40.44,0,0,1,14.06,6.36,51.92,51.92,0,0,1,5,4.6,39.56,39.56,0,0,1,4.22,4.07,14.31,14.31,0,0,1,2.73,5.54,11.78,11.78,0,0,1-2.5.36,9.61,9.61,0,0,1-2.39-.14c-1.22-.13-2.46-.28-3.66-.53-2.28-.48-4.53-.9-6.79-1.55a73.14,73.14,0,0,1-14.27-5.66,55.52,55.52,0,0,1-11.84-8.26c-1.11-1-2.13-2.13-3.15-3.25-.6-.68-2.47-1.95-2-3,.68-1.34,4.06-1,5.2-.86Z" transform="translate(-19.7 -1.2)"/><path class="cls-6" d="M161.49,373.44a6.71,6.71,0,0,1,3.3-2.22,3,3,0,0,0-.67,1.77,3.82,3.82,0,0,0,.45,1.46c5.1,11,13.63,20.14,23.64,26.93s21.45,11.28,33.19,14.14c1.34.33,2.95.57,3.93-.4a3.2,3.2,0,0,0,.7-2.67,13.64,13.64,0,0,0-1.94-5c-.37-.69-.75-1.38-1.13-2.07,2.22,3.11,4.08,6.57,4.49,10.35a11.89,11.89,0,0,1-2.16,8.36c-2.36,3.1-4.88,2.81-8.5,2.47a50.12,50.12,0,0,1-21.16-6.87,80,80,0,0,1-9.1-6.54c-9.83-7.91-21.26-18.07-25.32-30.38C160.19,379.69,159.53,376,161.49,373.44Z" transform="translate(-19.7 -1.2)"/><path class="cls-7" d="M226,412.45a3.2,3.2,0,0,1-.7,2.67c-1,1-2.59.73-3.93.4-11.74-2.86-23.19-7.34-33.19-14.14s-18.54-16-23.64-26.93a3.82,3.82,0,0,1-.45-1.46,3,3,0,0,1,.67-1.77l.13-.18c2.75-3.63,7.8-4.67,12.35-4.49,10.85.43,20.93,6.31,28.54,14.06,7.05,7.19,12.27,15.94,17.15,24.77.38.69.76,1.38,1.13,2.07A13.64,13.64,0,0,1,226,412.45Z" transform="translate(-19.7 -1.2)"/><path class="cls-1" d="M161.49,373.44a6.71,6.71,0,0,1,3.3-2.22,3,3,0,0,0-.67,1.77,3.82,3.82,0,0,0,.45,1.46c5.1,11,13.63,20.14,23.64,26.93s21.45,11.28,33.19,14.14c1.34.33,2.95.57,3.93-.4a3.2,3.2,0,0,0,.7-2.67,13.64,13.64,0,0,0-1.94-5c-.37-.69-.75-1.38-1.13-2.07,2.22,3.11,4.08,6.57,4.49,10.35a11.89,11.89,0,0,1-2.16,8.36c-2.36,3.1-4.88,2.81-8.5,2.47a50.12,50.12,0,0,1-21.16-6.87,80,80,0,0,1-9.1-6.54c-9.83-7.91-21.26-18.07-25.32-30.38C160.19,379.69,159.53,376,161.49,373.44Z" transform="translate(-19.7 -1.2)"/><path class="cls-8" d="M226,412.45a3.2,3.2,0,0,1-.7,2.67c-1,1-2.59.73-3.93.4-11.74-2.86-23.19-7.34-33.19-14.14s-18.54-16-23.64-26.93a3.82,3.82,0,0,1-.45-1.46,3,3,0,0,1,.67-1.77l.13-.18c2.75-3.63,7.8-4.67,12.35-4.49,10.85.43,20.93,6.31,28.54,14.06,7.05,7.19,12.27,15.94,17.15,24.77.38.69.76,1.38,1.13,2.07A13.64,13.64,0,0,1,226,412.45Z" transform="translate(-19.7 -1.2)"/><path class="cls-9" d="M134.74,393.13c-.07-.26-14-.11-14.88-.16a148.16,148.16,0,0,1-31.62-4.74c-11.23-3.08-23-8.11-30.36-17.56-3.35-5-5.86-10.27-6.53-16.37-.75-6.74,1.74-12.05,4.12-18.2a5.3,5.3,0,0,1,1.09-1.92,5,5,0,0,1,3.16-1c4.32-.32,8.75-.43,13.08-.47a182.17,182.17,0,0,1,31.11,2.4c5.06.83,10,2.06,15,3.15,3.5.76,7.33,1,10.62,2.57,13.25,6.42,30.58,13.16,37.2,24.57s55.56,98.07,55.56,98.07-26-4.08-43.83,21.41C178.44,484.88,144.05,429.83,134.74,393.13Z" transform="translate(-19.7 -1.2)"/><path class="cls-3" d="M71.17,201.33c0-.12,8.26,2.48,9,2.76a65.42,65.42,0,0,1,8.5,4c1.19.67,2.3,1.5,3.49,2.19.56.33,1.18.44,1.52,1a8,8,0,0,1,.34,2.47c.42,3.37.62,6.77,1,10.14.6,4.66,1.18,9.31,1.85,14a2.71,2.71,0,0,0,.17.68,2.39,2.39,0,0,0,.66.76c2.09,1.84,6.44,4.18,7.14,7.06.65,2.68-1.28,4.43-3.67,4.81-11.32,1.78-26.63-5-35-12.35a.84.84,0,0,1-.31-1.06C68.77,225.91,69.61,213.44,71.17,201.33Z" transform="translate(-19.7 -1.2)"/><path class="cls-4" d="M124.89,337.58c1.11.37,18.87-24,20.34-25.76,12.87-15,27-30.49,44.16-40.73,14.65-8.76,38.07-10.27,41.7,11.92,4.75,29-6.18,63.22-13.41,90.75,0,0-14.78-16.31-36.19-20.39S124.89,337.58,124.89,337.58Z" transform="translate(-19.7 -1.2)"/><path class="cls-3" d="M99.24,180.69c2.63,4.56,5,9.39,5.9,14.57,1,5.59-.12,13.7-5.49,16.79-7.59,4.36-15.86-.7-21.73-5.41-6.71-5.38-11.6-9.43-13.1-18.51-.9-5.41.32-11.42,4.25-15.25,2.58-2.51,6.06-3.88,9.53-4.87C89.57,164.89,94.36,172.23,99.24,180.69Z" transform="translate(-19.7 -1.2)"/><polygon class="cls-10" points="94.67 356.71 56.44 341.67 120.15 341.67 94.67 356.71"/><path class="cls-3" d="M57.14,298.87a10,10,0,0,1,.21,4.4c-.12,1.26-1.41,5.3-.28,6.3a1.44,1.44,0,0,0,.7.28,63.52,63.52,0,0,1,12.68,3.65c6.62,2.75,13.21,5.44,19.86,8.09a135.37,135.37,0,0,1,13.32,6.07c4.12,2.19,6.34,4.57,11.42,3.63,2.87-.53,5.74-1.54,8.63-1.15,3.52.48,6.73,3,10.26,2.56a12.92,12.92,0,0,1-2.4,5.08l-13.33,20c-1,1.43-11.77-7.71-12.8-8.53A27.61,27.61,0,0,0,99,345.12c-2.43-1-4.9-.1-7.49-.15-6.68-.14-13.4-.28-20-1.56-2.41-.47-4.79-1.09-7.16-1.73a341,341,0,0,1-34.14-11.29,8.35,8.35,0,0,1-2-1c-1.7-1.31-2.69-4.64-3.09-6.71-.66-3.41-.53-7.21-.58-10.68-.11-7.35.49-14.82,3-21.79a1.58,1.58,0,0,1,1.8-1.27c8.75-.37,18,1,24.89,6.41A8.5,8.5,0,0,1,57.14,298.87Z" transform="translate(-19.7 -1.2)"/><path class="cls-8" d="M178.48,484.91c-1.24-2.55,3.63-6.56,5.13-8.17a51,51,0,0,1,13.57-10.26c6.44-3.34,16-7.77,23.33-5.05,6.05,2.23-6.54,12.65-8.12,14a58.06,58.06,0,0,1-13.33,9.13,29.62,29.62,0,0,1-9.64,2.85c-2.44.24-9.41-.12-10.83-2.34C178.55,485.05,178.52,485,178.48,484.91Z" transform="translate(-19.7 -1.2)"/><path class="cls-3" d="M208.16,468.45a27.12,27.12,0,0,1,1.74,3.5c.91,1.84,2,3.6,3,5.39l4.23,7.54-26.49,21.4-6.21-17.4c-.5-1.37-1.55-3.26-1.26-4.73.43-2.17,3.07-4.6,4.54-6.14a61,61,0,0,1,13.67-10.09c1.36-.79,2.92-1.59,4.44-1.2A4,4,0,0,1,208.16,468.45Z" transform="translate(-19.7 -1.2)"/><path class="cls-1" d="M193.33,519.42a7.82,7.82,0,0,0,3.58,1.36,21,21,0,0,0,10.73-1.32c3.69-1.39,6.78-4.07,10.48-5.2A85.67,85.67,0,0,0,230.35,509a152.43,152.43,0,0,0,22.73-13.62c4.12-3,8.56-5.11,12.17-8.81,2-2.08,5.66-6.11,4.77-9.22a6.45,6.45,0,0,0-3.53-3.74,9,9,0,0,1,4.69,1.32,11.19,11.19,0,0,1,4.59,5.84c2,5.5-.62,12.26-4.19,16.59a45.75,45.75,0,0,1-9.64,8.27c-8.31,5.74-17.28,11.53-26.62,15.46-8.4,3.54-13.45,12.48-22.34,15.16a30.61,30.61,0,0,1-8.15,1,20.59,20.59,0,0,1-7.67-.81c-4.17-1.51-7.11-5.53-8.08-9.86a21.45,21.45,0,0,1,1.4-12.92C191,515.88,191.57,518.07,193.33,519.42Z" transform="translate(-19.7 -1.2)"/><path class="cls-8" d="M189.52,510.06c-1.49-3.89-3-7.88-3.48-12.06a4.18,4.18,0,0,1,.49-3.06,4.38,4.38,0,0,1,2.19-1.28c1.46-.51,3.09-.78,4.5-1.3s2.75-1.86,4.07-2.83c2.21-1.63,5-3,7.62-2.3a11.37,11.37,0,0,1,4.27,2.56c-.1-1.63-1.1-3.08-1.41-4.69-.7-3.53,1.89-6.78,4.31-9.44a4.83,4.83,0,0,1,4.28-2.17c12.41-.74,24.63-2.56,37.1-2.35a34.67,34.67,0,0,1,9.69,1.16,20.93,20.93,0,0,1,3.34,1.31,6.45,6.45,0,0,1,3.53,3.74c.89,3.11-2.74,7.14-4.77,9.22-3.61,3.7-8.05,5.83-12.17,8.81A152.43,152.43,0,0,1,230.35,509a85.67,85.67,0,0,1-12.23,5.26c-3.7,1.13-6.79,3.81-10.48,5.2a21,21,0,0,1-10.73,1.32,7.82,7.82,0,0,1-3.58-1.36c-1.76-1.35-2.35-3.54-2.85-5.74-.22-1-.43-2-.71-2.9C189.69,510.53,189.61,510.29,189.52,510.06Z" transform="translate(-19.7 -1.2)"/><path class="cls-9" d="M69.47,184.66a6.87,6.87,0,0,1,.15-7.89,7.32,7.32,0,0,1,7.54-2.58c3.33.86,5.41,1.14,8.45-.85l4-2.61a14.47,14.47,0,0,1,.17,6.86c.19-.9,2-2.4,2.58-3.23a26.77,26.77,0,0,0,2.24-4,27.62,27.62,0,0,0,2.35-8.86c.41-4.52,1.49-12.35-3.49-14.94-2.3-1.19-5.26-.12-7,1.8s-2.53,4.5-3.21,7c-.41,1.5-1.14,3.32-2.7,3.43-1.05-2.46.55-5.46-.53-7.9-1.3-2.92-5.83-3-8.15-.79s-2.9,5.65-3,8.85.12,6.51-1.08,9.47c-1.55,3.86-5.18,6.39-8.41,9s-6.45,6-6.58,10.12c-.16,5.39,4.79,9.36,9.25,12.41l9.82,6.7a6.64,6.64,0,0,0,1.85,1c1.91.57,4-.73,4.89-2.51a9.24,9.24,0,0,0,.44-5.86,21.42,21.42,0,0,0-6.65-11.76A18.75,18.75,0,0,1,69.47,184.66Z" transform="translate(-19.7 -1.2)"/><path class="cls-3" d="M71.69,191.06a10.93,10.93,0,0,1,3.53,1.77,12.7,12.7,0,0,1,4.4,5.37c.67,1.89.07,4.69-1.87,5.72a3.48,3.48,0,0,1-1.14.33c-3.94.51-7.34-3.06-9-6.26a8.64,8.64,0,0,1-1.08-3.89C66.57,190.72,69.15,190.33,71.69,191.06Z" transform="translate(-19.7 -1.2)"/><path class="cls-3" d="M206.44,363l.18.14a.4.4,0,0,1,.15.19.31.31,0,0,1,0,.21c-.67,1.93-1.59,3.74-2.36,5.61s-1.41,3.89-2.07,5.81l-4.16-1.07a12.76,12.76,0,0,0-3.17-.54,4.4,4.4,0,0,0-3,1,5.62,5.62,0,0,0-.91,1.15,24,24,0,0,0-2.75,5.93,55.54,55.54,0,0,0-2.52-5.82,11.62,11.62,0,0,0-1.07-1.84,11.15,11.15,0,0,0-2-2c-1.37-1.1-4.76-1.22-4.76-3,0-51.48-2.2-.83-3.28-1.31,0,0,3.07-6.63,3.27-7.06l3.32-7.17c.19-.4.47-1.46.86-1.64s1.41.15,1.82.22a26.92,26.92,0,0,1,3.66.83c.84.26,1.67.55,2.5.87A63.73,63.73,0,0,1,206.44,363Z" transform="translate(-19.7 -1.2)"/><path class="cls-11" d="M121.06,336.17c2.77,0,5.11,1.72,7.76,2.31" transform="translate(-19.7 -1.2)"/><polygon class="cls-10" points="123.72 300.56 94.67 356.71 154.29 356.71 186.26 300.56 123.72 300.56"/><path class="cls-2" d="M63.35,239.88c10.79,5.08,11.12,22.83,10.4,33.26A177.49,177.49,0,0,1,68,307.41,64,64,0,0,0,21.66,288.7a233.23,233.23,0,0,1,10.4-30.29c2.62-6.17,5.7-12.48,11-16.44A20.11,20.11,0,0,1,63.35,239.88Z" transform="translate(-19.7 -1.2)"/><path class="cls-10" d="M518,203.42c-.72-11.93-8.37-22.61-13.4-33.14-3.71-7.76-7.41-15.6-11.87-23-1.74-2.88-3.6-5.69-5.62-8.4a8.48,8.48,0,0,0-3.71-3.27,4.62,4.62,0,0,0-1.15-.24c-2.81-2.33-6.46-2.8-10-3.38-1.17-.2-2.34-.4-3.46-.69a60.94,60.94,0,0,0-16.82-2.08c-11.14.18-22.35-1.4-33.41.48a19.79,19.79,0,0,0-7.36,2.55,30.12,30.12,0,0,0-4,2l-25.41,14.46a5.17,5.17,0,0,1-2.33.86,5.22,5.22,0,0,1-2.66-1c-11.29-7-22.65-13.71-33.71-21.06-4.72-3.13-9.74-7.81-14.8-10.06-3.72-1.67-5.63,2.61-7.57,5.54-2.67,4-7,10-4.4,14.44,3.29,5.57,10.47,10.62,15.16,15.06,10.47,9.92,21.85,19.92,34.09,27.72l.24.15a12.53,12.53,0,0,0,4.1,1.89,13,13,0,0,0,4.3-.09c12.09-1.69,23.68-5.66,35-10.09a90.06,90.06,0,0,1,.73,11.37c-.1,11.4-1.22,23.17-6.66,33.2,19.42,9.25,42.2,8.54,63.23,4,1.88-.4,5.56-24.71,6.24-28a56.47,56.47,0,0,1,3.72-10.81l1.49,2.52c3.46,5.93,7,11.81,10.38,17.8,2.49,4.45,2.89,9.75,3.16,14.8-.1,8.87.35,17.81.13,26.76q-.34,14.26-1.07,28.5A21.19,21.19,0,0,0,502,275a53.08,53.08,0,0,0,11.83-2c.43-10.28,1.74-20.39,2.94-30.59q1.1-9.07,1.41-18.24Q518.56,213.79,518,203.42Z" transform="translate(-19.7 -1.2)"/><path class="cls-2" d="M463.69,128.07c-.46-1.08-.72-2.35-1.86-2.93a8.05,8.05,0,0,0-1.92-.59l-6.85-1.46c-3.09-.67-6.27-1.33-9.38-.79a9.1,9.1,0,0,0-6.44,4.33c-1.45,2.55-3.79,2.9-5.88,4.85a14.51,14.51,0,0,0-3,4.85l-5.85,12.81c5.54.67,10.92-1.83,15.9-4.32a2.47,2.47,0,0,1,1.28-.37c.72.05,1.23.71,1.63,1.31a139.83,139.83,0,0,0,9.84,13.56,71,71,0,0,1,7.06-11.66c2.73-3.64,7.23-7,7.88-11.86C466.48,132.67,464.85,130.79,463.69,128.07Z" transform="translate(-19.7 -1.2)"/><path class="cls-12" d="M451.21,159.92l-.33-.38a126.29,126.29,0,0,1-9-12.33l-.85-1.27c-.39-.58-.83-1.12-1.39-1.17a2.27,2.27,0,0,0-1.1.34c-4.58,2.3-9.09,4.36-13.83,4.47a16.94,16.94,0,0,1-2.26-.11l-.44-.06,6-13.22a15,15,0,0,1,3.1-4.95,14.61,14.61,0,0,1,2.54-1.81,8.14,8.14,0,0,0,3.28-3,9.42,9.42,0,0,1,6.68-4.48,13,13,0,0,1,2.12-.2,32.69,32.69,0,0,1,7.38,1l6.85,1.47a8.25,8.25,0,0,1,2,.62,4,4,0,0,1,1.77,2.48l.24.61c.29.68.61,1.31.92,1.92.93,1.82,1.81,3.55,1.48,6-.48,3.58-3,6.34-5.37,9-.93,1-1.81,2-2.56,3a69.69,69.69,0,0,0-7,11.61Zm-11.69-15.81h.16a2.72,2.72,0,0,1,1.89,1.46l.85,1.27a128.16,128.16,0,0,0,8.64,11.88,69.31,69.31,0,0,1,6.87-11.26c.77-1,1.66-2,2.6-3.06,2.34-2.6,4.76-5.28,5.21-8.66.3-2.23-.5-3.79-1.41-5.59-.32-.62-.65-1.26-.94-2-.09-.2-.17-.41-.25-.63a3.5,3.5,0,0,0-1.46-2.12,7.26,7.26,0,0,0-1.84-.56L453,123.41a31.6,31.6,0,0,0-7.23-1,13.06,13.06,0,0,0-2,.19,8.74,8.74,0,0,0-6.21,4.16A8.69,8.69,0,0,1,434,130a14.35,14.35,0,0,0-2.43,1.73,14.53,14.53,0,0,0-3,4.74L423,148.86a16.19,16.19,0,0,0,1.71.06c4.61-.1,9-2.14,13.56-4.4A3,3,0,0,1,439.52,144.11Z" transform="translate(-19.7 -1.2)"/><path class="cls-3" d="M442.22,118.2c-2.44,6.13-4.87,13.09-8.85,18.41a1.66,1.66,0,0,0-.47,1.14c.05.46.48.77.88,1a28.07,28.07,0,0,0,12.36,3.89,17.88,17.88,0,0,0,11.92-3.34,6.52,6.52,0,0,0,2.87-3.22,13.77,13.77,0,0,0,.45-3.33,117.24,117.24,0,0,1,1.87-13.9,181.13,181.13,0,0,0,2.4-20.36,2.69,2.69,0,0,0-.17-1.44,2.3,2.3,0,0,0-2.21-.9,20.29,20.29,0,0,0-6.6,1.48L452,99.52a6.65,6.65,0,0,0-5,5.28C445.49,109.4,443.94,113.86,442.22,118.2Z" transform="translate(-19.7 -1.2)"/><path class="cls-12" d="M448.08,143.05a16.14,16.14,0,0,1-2-.07,28.24,28.24,0,0,1-12.5-3.94,1.86,1.86,0,0,1-1-1.25,2,2,0,0,1,.53-1.38c3.45-4.59,5.7-10.36,7.87-15.93.32-.81.63-1.62.94-2.4,1.51-3.79,3-7.92,4.8-13.38a6.94,6.94,0,0,1,5.2-5.49l4.62-1.87a20.76,20.76,0,0,1,6.72-1.51h.15a2.46,2.46,0,0,1,2.37,1.08,3,3,0,0,1,.21,1.61,182.38,182.38,0,0,1-2.41,20.39,119.83,119.83,0,0,0-1.86,13.87l0,.25a12.62,12.62,0,0,1-.45,3.16,6.86,6.86,0,0,1-3,3.4A18.74,18.74,0,0,1,448.08,143.05Zm15.34-46.56h-.13a19.75,19.75,0,0,0-6.49,1.45l-4.65,1.88a8.82,8.82,0,0,0-3.26,1.91,8.75,8.75,0,0,0-1.56,3.18c-1.81,5.47-3.3,9.61-4.81,13.41-.31.79-.62,1.59-.94,2.39-2.19,5.62-4.45,11.43-7.95,16.1a1.47,1.47,0,0,0-.41.89c0,.32.39.57.73.78a27.66,27.66,0,0,0,12.22,3.84A17.62,17.62,0,0,0,457.88,139a6.3,6.3,0,0,0,2.73-3,11.56,11.56,0,0,0,.42-3l0-.24a119.41,119.41,0,0,1,1.87-13.93,184.72,184.72,0,0,0,2.41-20.34,2.41,2.41,0,0,0-.14-1.26C464.82,96.53,463.83,96.48,463.42,96.49Z" transform="translate(-19.7 -1.2)"/><path class="cls-13" d="M453.86,115.53a24.07,24.07,0,0,0,5.54-3.71A34.47,34.47,0,0,0,469.58,95c1.2-4.87-.13-14.38-2.91-18.5-2.18-3.23-6.64-4.35-10.44-3.46s-7,3.44-9.65,6.3a42.1,42.1,0,0,0-11.09,25.39c-.28,3.87.16,8.19,3,10.81C442.51,119.15,448.81,118,453.86,115.53Z" transform="translate(-19.7 -1.2)"/><path class="cls-3" d="M445.39,118.16h0a9.8,9.8,0,0,1-7.1-2.42c-2.45-2.24-3.5-6-3.13-11.07a42.28,42.28,0,0,1,11.17-25.6c3.28-3.52,6.49-5.61,9.83-6.39a11.84,11.84,0,0,1,2.39-.3,9.67,9.67,0,0,1,8.4,3.9c2.69,4,4.21,13.64,2.95,18.76a34.77,34.77,0,0,1-10.28,17,24.63,24.63,0,0,1-5.61,3.76A21.34,21.34,0,0,1,445.39,118.16Z" transform="translate(-19.7 -1.2)"/><path class="cls-14" d="M468,73.39a14.9,14.9,0,0,0-3.6-3.51,5.36,5.36,0,0,0-4.81-.59c-.77.32-1.42.88-2.17,1.23-2,.91-4.29.3-6.21-.68s-3.66-2.35-5.7-3a2.5,2.5,0,0,0-1.82-.09,2.29,2.29,0,0,0-1.11,1.45,5.74,5.74,0,0,0,1.1,5.51c1.27,1.47,3.38,2.46,3.63,4.38,3.35,0,6.78,0,9.9,1.27s5.87,3.94,6.15,7.28c.33,4-2.92,7.75-2.38,11.75a24.56,24.56,0,0,0,.62,2.53,26.13,26.13,0,0,1,.56,3.84L463.48,118c2.43-3.88,2.76-8.78,5.06-12.75,1.22-2.11,2.82-4.28,4.24-6.26s2.88-3.25,3.4-5.74a11.83,11.83,0,0,0-1.86-9.8,6.08,6.08,0,0,0,2.32-.34.63.63,0,0,0,.44-.33c.13-.35-.31-.62-.66-.73l-1.79-.57A9.81,9.81,0,0,0,477.48,80c.26-.19.53-.51.36-.78-.26-.42-3.29.46-3.73.56.58-.58,1.87-1.65.93-2.54-1.1-1-2,.92-2.94,1a1.11,1.11,0,0,1-.79-.51C470.25,76.47,469.17,74.87,468,73.39Z" transform="translate(-19.7 -1.2)"/><path class="cls-14" d="M444.54,118.77a23.15,23.15,0,0,0,15-5.9,16.8,16.8,0,0,0,4.38-6.88c1-2.82,1.09-5.94,3-8.41.26-.35.55-.68.79-1a8.34,8.34,0,0,0,1-2.59,2.05,2.05,0,0,0-.07-1.6c-1.21-1.79-4,.06-4.88,1.17A14.22,14.22,0,0,0,461.9,97a43.28,43.28,0,0,1-4.42,8c-.85,1.2-2.1,2.5-3.54,2.17s-2.06-2.1-2.72-3.21c-1-1.67-1.63-3.59-3.17-4.88a10.48,10.48,0,0,0-6.41-2.25,6.41,6.41,0,0,0-4.37,2,13.84,13.84,0,0,1,.26-4.49c-2.37,2.91-2.54,7-4.41,10.27a11,11,0,0,1-5.3,4.64,4.24,4.24,0,0,0,1.71,2.77c2.34,2.09,4.94,3.43,7.54,5.09C439.41,118.67,441.76,118.81,444.54,118.77Z" transform="translate(-19.7 -1.2)"/><path class="cls-3" d="M463.09,93.14a6.8,6.8,0,0,0-1.17.63,11,11,0,0,0-4,6.36c-.37,1.37-.38,3.11.8,3.9a2.65,2.65,0,0,0,2.27.19,6.43,6.43,0,0,0,2-1.26,19.83,19.83,0,0,0,4-4.74,6,6,0,0,0,1.05-3C468,92.14,465.18,92.24,463.09,93.14Z" transform="translate(-19.7 -1.2)"/><path class="cls-15" d="M232.83,111.86l-94.42-15.5a7.44,7.44,0,0,0-8.56,6.14L121.4,154a7.43,7.43,0,0,0,6.14,8.55l50.73,8.34-12.51,16,34.18-12.47L222,178a7.45,7.45,0,0,0,8.56-6.14L239,120.42A7.45,7.45,0,0,0,232.83,111.86Z" transform="translate(-19.7 -1.2)"/><path class="cls-15" d="M323.48,2.81l94.25,16.52A7.45,7.45,0,0,1,423.79,28l-9,51.36a7.45,7.45,0,0,1-8.63,6.06l-50.63-8.88L362,95.75l-28.15-23-22-3.85a7.45,7.45,0,0,1-6.05-8.62l9-51.37A7.45,7.45,0,0,1,323.48,2.81Z" transform="translate(-19.7 -1.2)"/></svg>