<svg id="Layer_1" data-name="Layer 1" xmlns="http://www.w3.org/2000/svg" viewBox="0 0 511.8 488.15"><defs><style>.cls-1{fill:#231f20;}.cls-2{fill:#fdfdfd;}.cls-3{fill:#26eac3;}.cls-4,.cls-9{fill:#a764ff;}.cls-12,.cls-5{fill:#cc9987;}.cls-10,.cls-12,.cls-13,.cls-14,.cls-15,.cls-16,.cls-5,.cls-6,.cls-7,.cls-9{stroke:#231f20;}.cls-13,.cls-5,.cls-7{stroke-linejoin:round;}.cls-15,.cls-5{stroke-width:2px;}.cls-6{fill:#f6c506;}.cls-10,.cls-12,.cls-6,.cls-9{stroke-miterlimit:10;}.cls-10,.cls-12,.cls-13,.cls-14,.cls-16,.cls-6,.cls-7,.cls-9{stroke-width:3px;}.cls-13,.cls-7{fill:#122f39;}.cls-8{fill:#cfe0fa;}.cls-10{fill:#ff3f66;}.cls-11{fill:#151f58;}.cls-13,.cls-14,.cls-15,.cls-16{stroke-linecap:round;}.cls-14,.cls-15,.cls-16{fill:#fff;stroke-linejoin:bevel;}.cls-16{fill-rule:evenodd;}</style></defs><title>noidunghocthuvi</title><circle class="cls-1" cx="111.75" cy="323.19" r="96.9" transform="translate(-210.65 147.75) rotate(-45)"/><g id="QfoS7x.tif"><path class="cls-2" d="M140,283.53a25.33,25.33,0,0,0,1.68,2.66l.15.12A25.91,25.91,0,0,1,140,283.53Zm1.86,2.83h0l1,.71ZM158.27,304v-7.62a25.4,25.4,0,0,1-3-.69,27,27,0,0,1-4.92-1.93,25,25,0,0,1-4.35-2.87,22.5,22.5,0,0,1-2-1.86l-.29-.31-.25-.27a16.85,16.85,0,0,1-1.59-2.06,2.45,2.45,0,0,1-.72-.48,25.28,25.28,0,0,1-3-3.08,26.91,26.91,0,0,1-3.55-5.58,31.32,31.32,0,0,1-2.22-6.24c-.18-.79-.35-1.57-.52-2.36v-.12c0-.06,0-.14,0-.2H117c-.34,0-.41.1-.41.42q0,35,0,70.09c0,2.05,0,4.1,0,6.15,0,1.17-.12,2.33-.24,3.49a27.74,27.74,0,0,1-.79,4.35,8,8,0,0,1-.89,1.81,16.46,16.46,0,0,1-3.15,3.95,14.73,14.73,0,0,1-3,2.15,15.77,15.77,0,0,1-4.74,1.72c-.59.11-1.19.19-1.79.25s-1.2.05-1.79.05a16.66,16.66,0,0,1-6-1.24,14.7,14.7,0,0,1-3.84-2.26,11.84,11.84,0,0,1-3.12-3.79A26.34,26.34,0,0,1,86,352.07a15.45,15.45,0,0,0,1.2,3.2.2.2,0,0,1,0,.13s0,0,0,.05a7.42,7.42,0,0,1-1.23-.84l-.07-.06a11.45,11.45,0,0,1-1.33-1.18A12.74,12.74,0,0,1,81.83,349a21.22,21.22,0,0,1-.82-2.9,16.9,16.9,0,0,1-.29-2.36c0-.47-.07-.94-.06-1.42a18.75,18.75,0,0,1,.78-5,15.36,15.36,0,0,1,2.32-4.65A14.25,14.25,0,0,1,88,328.85a16.5,16.5,0,0,1,4.88-1.94,21.45,21.45,0,0,1,2.27-.36,23.67,23.67,0,0,1,3.57-.11,13.92,13.92,0,0,1,2.49.25c.34.07.4,0,.4-.35V310.22c-1.23,0-2.46-.06-3.69,0a34.25,34.25,0,0,0-4.27.49,33,33,0,0,0-4.71,1.16,30.75,30.75,0,0,0-3.22,1.27A33.46,33.46,0,0,0,81,315.76,38.23,38.23,0,0,0,78,318.11a33.78,33.78,0,0,0-2.79,2.69,34.52,34.52,0,0,0-3.08,3.84,39,39,0,0,0-3,5.07,40.49,40.49,0,0,0-1.68,4,40.9,40.9,0,0,0-1.6,5.93c-.19,1-.3,1.92-.42,2.88a38.65,38.65,0,0,0-.25,5.69c0,1.1.13,2.2.25,3.29a35.37,35.37,0,0,0,2.77,10.38,34.59,34.59,0,0,0,3,5.43,12.92,12.92,0,0,1,.8,1.26c0,.06,1.51,1.79,2.36,2.71-.63-.68-1.23-1.4-1.81-2.12a.12.12,0,0,1,0-.16l.27.16c.24.18.45.39.68.58l.07.06c1,.79,2,1.54,3.12,2.23a36.79,36.79,0,0,0,4.26,2.35,43.41,43.41,0,0,0,5.71,2.2,30.5,30.5,0,0,0,3,.62c.89.18,1.79.29,2.68.44.41.07.83.1,1.24.14a36.42,36.42,0,0,0,4,.19c1.16,0,2.32-.1,3.48-.24a39.38,39.38,0,0,0,4-.67,31,31,0,0,0,5.84-1.92,31.77,31.77,0,0,0,6.19-3.63,33.68,33.68,0,0,0,4.27-3.91,29.91,29.91,0,0,0,2.76-3.46,36,36,0,0,0,3.08-5.31,39.87,39.87,0,0,0,2.4-6.44c.34-1.23.62-2.47.86-3.72.18-.91.3-1.83.44-2.74.08-.51.11-1,.14-1.54.41-7,.13-14,.18-21s0-14.06,0-21.09v-.37l.73.61a29.6,29.6,0,0,0,3.61,2.58,34.71,34.71,0,0,0,3.51,1.88,44.6,44.6,0,0,0,6.44,2.43c1.59.47,3.21.86,4.84,1.19,1.24.25,2.49.46,3.74.63.76.1,1.53.17,2.31.22.51,0,1,0,1.52.06.27,0,.31-.09.31-.33C158.26,308.79,158.27,306.38,158.27,304Zm-86.1,64.81,0,0v0l.06,0Zm.26.22-.06,0,0,0s0,0,0,0S72.48,369,72.43,369Zm1.91,2.31.17.17Zm48.27-103h0Zm9.18,0s0,.1,0,.2c0-.06,0-.14,0-.2Z" transform="translate(-14.85 -25.93)"/><path class="cls-3" d="M162.92,316.14c0,.29-.06.37-.36.36-1.09,0-2.18-.14-3.27-.26-.88-.09-1.74-.21-2.61-.35s-2-.37-2.93-.58a50,50,0,0,1-5.63-1.57,45.39,45.39,0,0,1-4.35-1.75,34,34,0,0,1-5.09-2.88A25.28,25.28,0,0,1,136,307c-.09,0-.05.11-.05.16.05,2.95-.07,5.9-.07,8.85q0,15.49,0,31a24.29,24.29,0,0,1-.23,3.18c-.1.7-.16,1.4-.27,2.1-.16,1-.36,2-.58,3a37.52,37.52,0,0,1-1.13,4.06,40,40,0,0,1-1.91,4.71,37.74,37.74,0,0,1-3.13,5.31c-.55.79-1.15,1.54-1.77,2.28s-1.13,1.28-1.73,1.88a30.21,30.21,0,0,1-2.66,2.39c-.86.67-1.73,1.31-2.65,1.9a29.64,29.64,0,0,1-4.87,2.54,31.44,31.44,0,0,1-4.61,1.51c-.95.24-1.91.42-2.87.57s-2,.25-2.92.39c-.27,0-.56-.08-.82.07H99.88c-.06-.13-.17-.06-.26-.07a30.47,30.47,0,0,1-3.16-.32c-.84-.11-1.66-.27-2.49-.39a25.78,25.78,0,0,1-5.39-1.48c-1-.39-2.06-.83-3.07-1.29a38.21,38.21,0,0,1-5-2.81,32.3,32.3,0,0,1-2.69-2,34.75,34.75,0,0,1-3.22-3l0,0-.07-.08-.17-.17c-.85-.92-2.4-2.65-2.36-2.71a6.5,6.5,0,0,1,.81.59l.68.58.07.06c1,.79,2,1.54,3.12,2.23a36.79,36.79,0,0,0,4.26,2.35,43.41,43.41,0,0,0,5.71,2.2,30.5,30.5,0,0,0,3,.62c.89.18,1.79.29,2.68.44.41.07.83.1,1.24.14a36.42,36.42,0,0,0,4,.19c1.16,0,2.32-.1,3.48-.24a39.38,39.38,0,0,0,4-.67,31,31,0,0,0,5.84-1.92,31.77,31.77,0,0,0,6.19-3.63,33.68,33.68,0,0,0,4.27-3.91,29.91,29.91,0,0,0,2.76-3.46,36,36,0,0,0,3.08-5.31,39.87,39.87,0,0,0,2.4-6.44c.34-1.23.62-2.47.86-3.72.18-.91.3-1.83.44-2.74.08-.51.11-1,.14-1.54.41-7,.13-14,.18-21s0-14.06,0-21.09v-.37l.73.61a29.6,29.6,0,0,0,3.61,2.58,34.71,34.71,0,0,0,3.51,1.88,44.6,44.6,0,0,0,6.44,2.43c1.59.47,3.21.86,4.84,1.19,1.24.25,2.49.46,3.74.63.76.1,1.53.17,2.31.22.51,0,1,0,1.52.06.27,0,.31-.09.31-.33,0-2.41,0-4.82,0-7.22v-7.62h0a8.07,8.07,0,0,0,1.37.26c.71.11,1.42.18,2.13.26.3,0,.6,0,.9.06s.21.08.19.22a.57.57,0,0,0,0,.13Q162.91,306.72,162.92,316.14Z" transform="translate(-14.85 -25.93)"/><path class="cls-4" d="M101.65,310.2l-.07,0c-1.23,0-2.46-.06-3.69,0a34.25,34.25,0,0,0-4.27.49,33,33,0,0,0-4.71,1.16,30.75,30.75,0,0,0-3.22,1.27A33.46,33.46,0,0,0,81,315.76,38.23,38.23,0,0,0,78,318.11a33.78,33.78,0,0,0-2.79,2.69,34.52,34.52,0,0,0-3.08,3.84,39,39,0,0,0-3,5.07,40.49,40.49,0,0,0-1.68,4,40.9,40.9,0,0,0-1.6,5.93c-.19,1-.3,1.92-.42,2.88a38.65,38.65,0,0,0-.25,5.69c0,1.1.13,2.2.25,3.29a35.37,35.37,0,0,0,2.77,10.38,34.59,34.59,0,0,0,3,5.43,12.92,12.92,0,0,1,.8,1.26c-.26-.23-.54-.44-.78-.68a34.83,34.83,0,0,1-3.52-4,34.27,34.27,0,0,1-2.88-4.46,35.42,35.42,0,0,1-3.74-11c-.15-.94-.26-1.9-.36-2.86a4.19,4.19,0,0,0-.11-1.17V339.9c.08,0,.06-.13.06-.2a24.37,24.37,0,0,1,.26-2.71A35.21,35.21,0,0,1,62,331.6a37.54,37.54,0,0,1,1.62-4.72,38.06,38.06,0,0,1,3.91-7.17c.69-1,1.43-1.92,2.2-2.84a33.59,33.59,0,0,1,8.28-7,31.43,31.43,0,0,1,6.59-3,29.8,29.8,0,0,1,4.94-1.16c.92-.13,1.83-.24,2.76-.33a34.34,34.34,0,0,1,4.42-.11,29.19,29.19,0,0,1,3.49.31c.38.06.77.1,1.15.13s.31.13.31.36C101.64,307.48,101.65,308.84,101.65,310.2Z" transform="translate(-14.85 -25.93)"/><path class="cls-4" d="M131.79,268.3H117c-.34,0-.41.1-.41.42q0,35,0,70.09c0,2.05,0,4.1,0,6.15,0,1.17-.12,2.33-.24,3.49a27.74,27.74,0,0,1-.79,4.35,8,8,0,0,1-.89,1.81,16.46,16.46,0,0,1-3.15,3.95,14.73,14.73,0,0,1-3,2.15,15.77,15.77,0,0,1-4.74,1.72c-.59.11-1.19.19-1.79.25s-1.2.05-1.79.05a16.66,16.66,0,0,1-6-1.24,14.7,14.7,0,0,1-3.84-2.26,11.84,11.84,0,0,1-3.12-3.79l.73.39a16.4,16.4,0,0,0,4.3,1.61,16.76,16.76,0,0,0,5,.37,15.64,15.64,0,0,0,6.22-1.75,15.82,15.82,0,0,0,3-2,17.08,17.08,0,0,0,3.41-4,10.24,10.24,0,0,0,1.51-4c.14-1,.29-2,.43-3a13.77,13.77,0,0,0,.13-1.81c0-1,.08-2.06.08-3.1q0-37.08,0-74.18a2.8,2.8,0,0,0,0-.29c0-.17,0-.25.22-.23a1.76,1.76,0,0,0,.23,0H130.9c.48,0,.5,0,.49.49a22.07,22.07,0,0,0,.39,4A2.38,2.38,0,0,1,131.79,268.3Z" transform="translate(-14.85 -25.93)"/><path class="cls-3" d="M106.29,314.66v16.63c0,.43,0,.41-.41.33s-.87-.11-1.31-.15c-.64-.06-1.28-.06-1.91-.08a20.48,20.48,0,0,0-5,.46,16,16,0,0,0-4.46,1.63,15.37,15.37,0,0,0-2.67,1.86,14.58,14.58,0,0,0-3.26,4.14,15.63,15.63,0,0,0-1.57,4.4c-.13.63-.21,1.27-.28,1.9a18.54,18.54,0,0,0,0,2.47,15.2,15.2,0,0,0,.4,3.08c.06.25.12.5.19.74a26.34,26.34,0,0,0,1.27,3.36l0,0a7.75,7.75,0,0,1-1.31-.85,11.45,11.45,0,0,1-1.33-1.18A12.74,12.74,0,0,1,81.83,349a21.22,21.22,0,0,1-.82-2.9,16.9,16.9,0,0,1-.29-2.36c0-.47-.07-.94-.06-1.42a18.75,18.75,0,0,1,.78-5,15.36,15.36,0,0,1,2.32-4.65A14.25,14.25,0,0,1,88,328.85a16.5,16.5,0,0,1,4.88-1.94,21.45,21.45,0,0,1,2.27-.36,23.67,23.67,0,0,1,3.57-.11,13.92,13.92,0,0,1,2.49.25c.34.07.4,0,.4-.35V310.22l.07,0a1.09,1.09,0,0,0,.47.08,26.77,26.77,0,0,1,3.33.31,2.06,2.06,0,0,0,.6.08c.22,0,.24.08.24.26Z" transform="translate(-14.85 -25.93)"/><path class="cls-4" d="M141.84,286.37h0a2.45,2.45,0,0,1-.72-.48,25.28,25.28,0,0,1-3-3.08,26.91,26.91,0,0,1-3.55-5.58,31.32,31.32,0,0,1-2.22-6.24c-.18-.79-.35-1.57-.52-2.36v-.09c0-.1,0-.23,0-.23h4c.19,0,.24.06.24.24a24.78,24.78,0,0,0,.26,3.44,34.5,34.5,0,0,0,1.21,5.49,32.38,32.38,0,0,0,1.78,4.62c.24.51.49,1,.74,1.43h0a25.91,25.91,0,0,0,1.83,2.78h0s0,0,0,0h0Z" transform="translate(-14.85 -25.93)"/><path class="cls-4" d="M158.33,292.27c0,1.36,0,2.72,0,4.08h0a25.4,25.4,0,0,1-3-.69,27,27,0,0,1-4.92-1.93,25,25,0,0,1-4.35-2.87,22.5,22.5,0,0,1-2-1.86l-.29-.31a18,18,0,0,1-1.84-2.32h0l1,.73a.91.91,0,0,0,.16.11,23.72,23.72,0,0,0,3.83,2.17,26.71,26.71,0,0,0,2.68,1.07,34.92,34.92,0,0,0,8.6,1.59C158.29,292,158.33,292.11,158.33,292.27Z" transform="translate(-14.85 -25.93)"/></g><path class="cls-5" d="M413.7,190.28l68.19-36.19,4.32,40.51s-66.42,42.84-77,40.18S413.7,190.28,413.7,190.28Z" transform="translate(-14.85 -25.93)"/><path class="cls-5" d="M449.68,56.79S426.76,80.7,416.8,88.33s-32.88,20.26-32.88,20.26l13.29,29.56s28.22-14.61,39.52-24.25S477.9,67.74,477.9,67.74Z" transform="translate(-14.85 -25.93)"/><path class="cls-6" d="M446.36,56l-10,8.19s-5.75-.44-4,5.76a8.69,8.69,0,0,0-8,4.43c-2.66,4.87,1.83,29,27.67,29,1.33,0,6-1.77,5.54-4.87,0,0,9.74-17.71,18.37-23.25S446.36,56,446.36,56Z" transform="translate(-14.85 -25.93)"/><path class="cls-6" d="M437.39,171.36S434,202,451.38,217c3.07,2.66,8.19.9,8.51-3.15a5.89,5.89,0,0,0,0-.84S487,195,485.13,191.94s-9.22-29.55-9.22-29.55l-4-5-28.89,13S437.72,166.71,437.39,171.36Z" transform="translate(-14.85 -25.93)"/><path class="cls-7" d="M417.88,187c-.34.13.33-.09,0,0a4.17,4.17,0,0,0-5-1.77,6,6,0,0,0-3.59,4.31,31.45,31.45,0,0,0-1.12-3.93,3.36,3.36,0,0,0-1.7-2.25c-1.6-.58-3,1.22-3.75,2.74a155.38,155.38,0,0,0-13-14.54C386.16,168,383.28,164,379.2,161c-7.1-5.27-16.63-9.65-25.12-4.83a26.56,26.56,0,0,0-6.6,5.64,13.07,13.07,0,0,0-2.65,3.91,13.87,13.87,0,0,0-.67,3c-1.69,12.29,4.86,21.86,12.19,30.89,6.49,8,13.07,15.93,20.31,23.26,5.63,5.7,13.69,11.66,21.46,14.07a20.42,20.42,0,0,0,9,.62,9.13,9.13,0,0,0,7-5.32C420.05,219,420.51,204.21,417.88,187Z" transform="translate(-14.85 -25.93)"/><path class="cls-8" d="M340.44,116.89a28.73,28.73,0,0,0-3.72,1q-3.53.57-5.62,1.07-4.71,1.36-8.67,2.86a4.15,4.15,0,0,0-2.11,1.22L344,117A6.42,6.42,0,0,0,340.44,116.89Z" transform="translate(-14.85 -25.93)"/><path class="cls-7" d="M386.65,103.36c-1.18-.37-2.44-.92-3.58-.46-1.81.71-1.89,3.21-1.56,5.12-1.3-.17-2.57-.55-3.88-.61a4.65,4.65,0,0,0-3.62,1.15,2.52,2.52,0,0,0-.1,3.51,57.35,57.35,0,0,1-10.48,1.75c-3,.12-5.63-.46-8.66-.09-8.75,1.07-18.12,3.55-23.57,10.86a19.76,19.76,0,0,0-2.86,17.21c3.64,13.15,17.05,22,30.37,21.47,7.3-.33,13.13-3.15,19.29-6.54,6.77-3.73,14.45-5.49,21.08-9.71a32.25,32.25,0,0,0,3.1-2.21l.07,0a7.45,7.45,0,0,0,4.43-9.62c-4.14-11.4-11.27-22.15-18.44-31.68A3.31,3.31,0,0,1,386.65,103.36Z" transform="translate(-14.85 -25.93)"/><path class="cls-9" d="M488.07,74.26c1.12-1.19,2.07-3.59,4-3.57,1.38,0,2.36,1.74,3.94,1.74s2.91-1.2,3.85-2.46c2.27-3.07,2.83-5.38.94-8.7A84.1,84.1,0,0,0,491.4,48a76.16,76.16,0,0,0-14.81-12.62c-3.87-2.67-8.23-6-12.63-7.67a3,3,0,0,0-1.35-.29,3.24,3.24,0,0,0-1.51.68c-.42.3-.84.6-1.24.92a30.92,30.92,0,0,0-2.92,2.56,5.23,5.23,0,0,0-1.43,2,2.05,2.05,0,0,0,.53,2.26,2.36,2.36,0,0,1,.66.55c.28.44,0,1-.34,1.44-4.77,6.71-17.52,17-7.91,24.73a2.85,2.85,0,0,1,1,1.18,3.54,3.54,0,0,1-.11,1.7c-.48,2.8,1.47,5.4,3.35,7.54,2.74,3.11,6.14,6.39,10.28,6.21a4.25,4.25,0,0,1,1.67.09,3.8,3.8,0,0,1,1.22,1c5.12,5.23,11.39,2.09,16.44-1.31A33.6,33.6,0,0,0,488.07,74.26Z" transform="translate(-14.85 -25.93)"/><path class="cls-9" d="M524.39,216.15a17,17,0,0,0-.6-1.69,5.71,5.71,0,0,1-.57-1.72,6,6,0,0,1,.35-1.91c1-3.71-.86-7.14-.66-10.86a14.72,14.72,0,0,0-2.45-8.93,5,5,0,0,1-.84-1.58,4.5,4.5,0,0,1,.08-1.71c.54-3.14.71-6.62-1.1-9.25a16.28,16.28,0,0,1-1.27-1.84,9.73,9.73,0,0,1-.64-3.18,16.48,16.48,0,0,0-3.48-8.33,8.3,8.3,0,0,1-1.35-2,11.75,11.75,0,0,1-.46-1.86,7.26,7.26,0,0,0-2.84-4.21,5.56,5.56,0,0,1-1.45-1.18,4.54,4.54,0,0,1-.57-2,16.75,16.75,0,0,0-8.69-12.16c-1.78-.93-3-.65-4.78.17-4.44,2-6.64,6.19-10.61,8.68-2.56,1.61-5,3.39-7.61,4.94-.78.47-7.66,3.69-7.65,4.18.18,7.65,5.47,15.25,12.78,17.53q-1.26,9.13-1.82,18.33c-.08,1.31-.05,2.86,1,3.64,1.47,1.09,3.49.27,5,1.38s3.2,2.62,4.85,3.86a125.36,125.36,0,0,1,10.34,8,47.38,47.38,0,0,0,6,4.37c2.09,1.2,4.34,2.06,6.39,3.33a1.19,1.19,0,0,1,.33.26,1.2,1.2,0,0,1,.18.5l.37,1.87c.45,2.33,2.49,2.16,4.57,2.4a10.55,10.55,0,0,0,4.94-.37C526.1,223.34,525.35,219.44,524.39,216.15Z" transform="translate(-14.85 -25.93)"/><path class="cls-10" d="M501.82,184.09a2.69,2.69,0,0,0,0-1.46,2.57,2.57,0,0,0-1.26-1.19,19.52,19.52,0,0,0-10.37-2.4c-2.74,6-2.64,12.89-4.44,19.23-.28,1-.6,1.93-.91,2.89,3.48,3,7.36,5.65,11.11,8.36a46.13,46.13,0,0,0,2.17-8Q500,192.83,501.82,184.09Z" transform="translate(-14.85 -25.93)"/><path class="cls-10" d="M470.93,59.58a3.13,3.13,0,0,0-2.47-1.89,8.43,8.43,0,0,0-3.23.27,53.87,53.87,0,0,0-15.68,6.29,7.1,7.1,0,0,1-.18,1.2c-.48,2.8,1.47,5.4,3.35,7.54,2.74,3.11,6.14,6.39,10.28,6.21a4.25,4.25,0,0,1,1.67.09l0,0a123.33,123.33,0,0,0,6.05-17.08A4.64,4.64,0,0,0,470.93,59.58Z" transform="translate(-14.85 -25.93)"/><polygon class="cls-11" points="227.97 116.2 227.96 116.22 227.97 116.2 227.97 116.2"/><polygon class="cls-11" points="227.92 116.26 227.91 116.26 227.96 116.22 227.92 116.26"/><polygon class="cls-11" points="227.75 116.41 227.75 116.41 227.75 116.41 227.75 116.41"/><path class="cls-12" d="M131.82,197.8a19.24,19.24,0,0,0-6.64,3.4c-10,7.52-18.12,19.48-24.69,30.07-.87,1.41-1.76,3-1.54,4.61a7.21,7.21,0,0,0,1.84,3.43,89,89,0,0,0,15.76,15.08,5.07,5.07,0,0,0,3.29,1.35,4.92,4.92,0,0,0,2.82-1.68c4.48-4.42,8-9.7,12.05-14.47,1.46-1.7,4.55-6.13,6.82-6.64,1.57-.35,1.32,1.35,1.6,2.83.64,3.35,1.27,6.52,1.64,9.94a7.71,7.71,0,0,0,.69,2.9,3.62,3.62,0,0,0,1.79,1.53c2.16,1,5.32.57,6.07-1.65a4.83,4.83,0,0,0,.14-1.47c0-7.76,1.75-15.55,2.4-23.28a42.64,42.64,0,0,0,.12-5.47,17,17,0,0,0-2-7.43c9.2-11.26,23.16-27.54,23.16-27.54,28.78-35.42,61.1-38.08,61.1-38.08l3.54-34.09C174.64,113.85,139.47,181.23,131.82,197.8Z" transform="translate(-14.85 -25.93)"/><path class="cls-12" d="M266.59,196.15s-11.67,99.36-63.59,124a18.59,18.59,0,0,0-3.76-1.88,43.79,43.79,0,0,0-5.26-1.53c-7.57-1.71-15.5-2.43-22.91-4.72a5,5,0,0,0-1.45-.31c-2.34,0-3.67,2.94-3.4,5.29a3.64,3.64,0,0,0,.92,2.17,8,8,0,0,0,2.55,1.53c3.16,1.38,6,2.94,9,4.56,1.32.7,3,1,2.2,2.37-1.17,2-6.31,3.63-8.37,4.5-5.78,2.46-11.87,4.2-17.44,7.14a4.9,4.9,0,0,0-2.45,2.18,5.05,5.05,0,0,0,.3,3.55,89,89,0,0,0,9.64,19.57,7.2,7.2,0,0,0,2.71,2.79c1.5.7,3.26.33,4.86-.08,12.08-3.08,25.93-7.22,36.11-14.49,3.56-2.54,5.64-5.26,6.59-8.17a165.41,165.41,0,0,0,60-54.14c25.68-39,26.12-93.87,26.12-93.87Z" transform="translate(-14.85 -25.93)"/><path class="cls-6" d="M351.66,125c-.16-.27-.33-.53-.5-.8-6.68-10.64-17.43-15.24-29-8.1-1.61,1-3.2,2.23-5.09,2.38-4.61.38-12.2-5.3-16.51-7a41.33,41.33,0,0,0-21-2.11c-7.12,1-8.4-1.45-15-3.68a27.38,27.38,0,0,0-20.45,1.16,25.84,25.84,0,0,0-3.47,2.07c-7.08-1.15-27.29-5.41-42.62-2.2-19,4,2.65,61.1,10.62,63.32,4.48,1.24,17.92-6.89,28.83-14.25l16,31.44c1.93,3.8,4,7.7,6.3,11.35-5.15,9.38-11.34,21.9-12.59,29.9-2.22,14.17,47.82,21.26,60.21,18.16,7.91-2,5.55-24.85,2.8-41.15a46.66,46.66,0,0,0,5.5-6.34c1.34-1.86,2.67-3.89,4.74-4.85a12,12,0,0,1,4.08-.81c7.11-.57,13.21-.9,20.12.21a52.07,52.07,0,0,0,15,.07c5.55-.84,8.14-5.53,8.72-10.69C370.54,162.67,362.49,142.43,351.66,125Z" transform="translate(-14.85 -25.93)"/><path class="cls-5" d="M271.43,132.54c-5.57-1.84-11.94-2-17.27.63a29.22,29.22,0,0,0-4,2.43,5.81,5.81,0,0,0,.17-1,7.53,7.53,0,0,0-2-5c-1.72-1.5-4.55-1.06-6.35,0a10,10,0,0,0-4.73,10.18,9.13,9.13,0,0,0,4.36,5.93,23.74,23.74,0,0,0-1.71,4.86c-2.59,11.17,4.31,25.08,14.53,29.94,15.3,7.28,33.09-4.78,35.34-20.63C291.48,147.62,282.94,136.33,271.43,132.54Z" transform="translate(-14.85 -25.93)"/><path class="cls-13" d="M307.48,178.79c-2.31-5.77-2-12.21-2.51-18.41a19.05,19.05,0,0,0-.68-3.91c-1-3.09-3.38-6-5.69-8.13a17.19,17.19,0,0,0-9.47-4.08c.47-.26.86-.49,1.11-.64a21.21,21.21,0,0,0,4.7-4c.25-.28.52-.67.36-1s-.57-.4-.92-.4c-2.33,0-4.36,1.38-6.21,2.84l-.63.5,4.56-6c.36-.47.67-1.25.16-1.56-2.32.36-4,2.35-5.4,4.23-.4.53-.78,1-1.14,1.58a18.18,18.18,0,0,0-10.65-11.48c-5.32-2-12.07-2.5-17.45-.46a24.59,24.59,0,0,0-10.77,8,38,38,0,0,1,13.44,1.05,27.05,27.05,0,0,1,7.44,3.33,25.44,25.44,0,0,1,3.19,2.57,5.16,5.16,0,0,1,1.69,3.29,1,1,0,0,0,.38.69,1.17,1.17,0,0,0,.46.08h.43a8.92,8.92,0,0,1,4.54,4.17,15.7,15.7,0,0,1,1.57,7.51c-.09,4.66-2.36,10.06-.81,14.6,1.76,5.15,8,8.62,13.07,9.51,5.54,1,12,1.56,17.29-.71A8,8,0,0,1,307.48,178.79Z" transform="translate(-14.85 -25.93)"/><circle class="cls-9" cx="319.25" cy="284.28" r="40.6"/><path class="cls-14" d="M333.11,299c-.09,2.59,0,5.2,0,8h10.09c-.43,3.32-.8,6.39-1.29,9.44,0,.3-.8.67-1.23.7-2.43.07-4.86,0-7.51,0v33.64a39.47,39.47,0,0,1-10.7-1.66V317.19h-8.82V307h8.64c0-.77.09-1.38.09-2,.06-2.67,0-5.35.22-8,.55-5.81,4.12-9.9,9.87-10.7,3.56-.49,7.28-.09,11-.09v9.22c-1.32,0-2.67,0-4,0a16.74,16.74,0,0,0-3.54.25A3.31,3.31,0,0,0,333.11,299Z" transform="translate(-14.85 -25.93)"/><circle class="cls-6" cx="269.33" cy="455.88" r="56.69" transform="translate(-256.95 567.1) rotate(-74.44)"/><polygon class="cls-14" points="233.33 451.72 233.33 408.19 285.24 429.95 233.33 451.72"/><circle class="cls-9" cx="136.81" cy="467.44" r="44.13" transform="translate(-364.33 468.67) rotate(-76.88)"/><path class="cls-15" d="M163.12,452.9c0-7.16-4.5-11.79-11.6-11.86q-14.73-.15-29.47,0c-7,.07-11.45,4.67-11.55,11.61-.07,4.9,0,9.81,0,14.71s0,9.6,0,14.4c.06,7.32,4.53,12,11.78,12.07q14.56.17,29.15,0c7.11-.08,11.66-4.75,11.7-11.83Q163.2,467.45,163.12,452.9Zm-4.7,29.19c0,4.52-2.48,7-7,7.06q-14.57.09-29.15,0c-4.55,0-7-2.52-7-7q-.06-14.7,0-29.41c0-4.49,2.53-7.07,7-7.1q14.56-.11,29.15,0c4.49,0,7,2.6,7,7.07.06,4.91,0,9.81,0,14.71S158.48,477.19,158.42,482.09Z" transform="translate(-14.85 -25.93)"/><path class="cls-15" d="M136.84,453.62a13.76,13.76,0,1,0,13.67,14A13.75,13.75,0,0,0,136.84,453.62Zm-.17,22.91a9.28,9.28,0,0,1-9-9,9.17,9.17,0,0,1,18.34,0A9.29,9.29,0,0,1,136.67,476.53Z" transform="translate(-14.85 -25.93)"/><path class="cls-15" d="M154.68,453.3a2.84,2.84,0,0,1-3.28,2.84,2.88,2.88,0,0,1-3-3.42c.14-1.93,1.4-2.82,3.32-2.93C153.68,450.12,154.84,451.24,154.68,453.3Z" transform="translate(-14.85 -25.93)"/><g id="xsrjP0"><path class="cls-16" d="M426.25,336.69c-1.63-1-3.06-2.5-5.24-2.28-.83.08-.65-.61-.66-1.06q-.06-12.32-.1-24.6c0-.59,0-1.08.69-1.41,6.25-3.18,8.94-9.41,12.76-14.73A24.51,24.51,0,0,0,438.18,274c-.27-1.85.59-2.68,2.25-3.06,2-.47,4,.08,4.69,1.45a33.49,33.49,0,0,1,3.61,10.74c.37,3.11-.74,6.14-1.11,9.21-.28,2.26-.8,4.48-1.22,6.76.55.4,1.19.19,1.78.2q10.4,0,20.78-.06c2.92,0,4.35.82,4.76,2.76a5.53,5.53,0,0,1-3,6c-.51.26-1.45,0-1.51.84s.9.74,1.38,1.07c2.52,1.71,2.06,5.26-.83,7.32-.7.5-2.05.27-2.08,1.3,0,.81,1.25.8,1.83,1.37,2,2,1,5.73-2,7.25a9.83,9.83,0,0,0-1.21.48c-.34.23-.68.49,0,1,3,2.13,2.95,5.12-.06,7.3l-.9.65a5.87,5.87,0,0,1-3.65.81q-16.29.09-32.58.12A3.87,3.87,0,0,1,426.25,336.69Z" transform="translate(-14.85 -25.93)"/><path class="cls-16" d="M395.32,322.34c0-5.21,0-10.43-.08-15.63,0-1.06.1-1.58,1.4-1.57,6.36.05,12.7,0,19.06-.06,1.24,0,1.44.41,1.43,1.52q0,15.72.12,31.45c0,1.33-.35,1.71-1.69,1.69-6.17-.05-12.33,0-18.49.08-1.53,0-1.74-.51-1.73-1.85C395.4,332.76,395.33,327.55,395.32,322.34Z" transform="translate(-14.85 -25.93)"/></g><circle class="cls-6" cx="90.2" cy="175.98" r="29.36" transform="translate(-74.68 21.22) rotate(-22.21)"/><path class="cls-14" d="M106.57,179.72c-4.85,9.77-16.37,15.57-16.37,15.57s-11.53-5.8-16.36-15.57c-4-8.15-1.48-16.95,4.89-18.88C87.85,158.08,90.2,174,90.2,174s2.34-15.9,11.48-13.14C108.05,162.77,110.6,171.57,106.57,179.72Z" transform="translate(-14.85 -25.93)"/></svg>