<svg id="Layer_1" data-name="Layer 1" xmlns="http://www.w3.org/2000/svg" viewBox="0 0 532.7 427.51"><defs><style>.cls-1,.cls-2{fill:#122f39;}.cls-1,.cls-3,.cls-4,.cls-5,.cls-7,.cls-9{stroke:#231f20;}.cls-1{stroke-linecap:round;stroke-linejoin:round;}.cls-1,.cls-11,.cls-12,.cls-3,.cls-4,.cls-5,.cls-7,.cls-9{stroke-width:3px;}.cls-3{fill:#cc9987;}.cls-11,.cls-12,.cls-3,.cls-4,.cls-5,.cls-7,.cls-9{stroke-miterlimit:10;}.cls-10,.cls-11,.cls-4{fill:#a779fa;}.cls-5{fill:#fff;}.cls-6{fill:#f9c2cf;}.cls-7{fill:#fd9f98;}.cls-8{fill:#231f20;}.cls-9{fill:#f6c506;}.cls-11,.cls-12{stroke:#122f39;}.cls-12{fill:none;}</style></defs><title>congnghethoithuong</title><path class="cls-1" d="M372.15,67.62s6-11.23,23.6-9.74,19.84,26.22,22.09,40.45S431.32,126,431.32,126L401,135.4s-17.6-21.72-18.35-42.31S372.15,67.62,372.15,67.62Z" transform="translate(-4.4 -56.25)"/><path class="cls-2" d="M357.8,159.21h0a3.79,3.79,0,0,0-2.3-.23l-.21.08a1.39,1.39,0,0,0-.49.86c-.15.55-.3,1.1-.44,1.64a1,1,0,0,0,0,.71c.33.77,2.29,1.33,3,1.58a1.39,1.39,0,0,0,1,.06,1.31,1.31,0,0,0,.55-.59,7.49,7.49,0,0,0,1-3.43A19.06,19.06,0,0,0,357.8,159.21Z" transform="translate(-4.4 -56.25)"/><path class="cls-2" d="M376.39,155.09a23.52,23.52,0,0,0,2.11,3.46.67.67,0,0,0,.3.28c.26.09.52-.12.71-.31l.59-.6a1.58,1.58,0,0,0-.21-1,7.86,7.86,0,0,0-2.31-2.84,1.07,1.07,0,0,0-.46-.24.78.78,0,0,0-.77.77C376.33,155,376.21,154.72,376.39,155.09Z" transform="translate(-4.4 -56.25)"/><path class="cls-3" d="M123.66,156.2a11.48,11.48,0,0,0-4.31.76c-1.48.78-2.77,1.91-4.3,2.65a6.67,6.67,0,0,0-1.77,1.08,6.76,6.76,0,0,0-1.09,1.6,15.69,15.69,0,0,1-4.09,4.61c-1.08.81-2.66,1.46-3.67.58a2.19,2.19,0,0,1-.61-2,5.76,5.76,0,0,1,.78-2c4.76-8.49,14.08-17.9,24.64-15.78a9.79,9.79,0,0,1,6.43,3.9A25,25,0,0,1,123.66,156.2Z" transform="translate(-4.4 -56.25)"/><path class="cls-2" d="M114.27,156.68c-2.76.73-5.79,1.89-7.83,3.9,2-2.51,3.75-5.2,6.15-7.34,1.69-1.52,5.29-4.65,7.72-4.65a17.5,17.5,0,0,1,6.84-1.08c2,.11,3,1.21,2.51,3.24s-3.58,3.48-5.39,4.31c-3,1.41-6.44.72-9.62,1.52Z" transform="translate(-4.4 -56.25)"/><path class="cls-3" d="M457.17,390.59c1.42,12.38,4.42,34.86-6.55,44.08-3.66,3.08-8.87,3.47-13.64,3.11a56.67,56.67,0,0,1-16-3.56,10.09,10.09,0,0,1-4.66-3c-2.23-2.93-1.06-7.13.44-10.49A80.06,80.06,0,0,1,445,387.22a14.68,14.68,0,0,1,5.39-2.58,5.71,5.71,0,0,1,5.48,1.7A8.13,8.13,0,0,1,457.17,390.59Z" transform="translate(-4.4 -56.25)"/><path class="cls-4" d="M368,396.1c1.07,6.4.26,12.9-3.61,16.52a32.72,32.72,0,0,1-32.3,6.95,6.9,6.9,0,0,1-2.83-1.56c-1.16-1.22-1.39-3-1.52-4.7-.52-6.56-.37-13.27,1.64-19.53s6-12.06,11.84-15.15,13.44-3,18.6,1.06C363.72,382.75,366.91,389.37,368,396.1Z" transform="translate(-4.4 -56.25)"/><path class="cls-5" d="M369.34,370.08c.82,6.93,1.24,14.36-.8,21.14-3.93,13-28.7,22-38.48,10.12-2-2.5-1.63-6.14-1-9.3A203.42,203.42,0,0,1,335,369c2.72-8.58,6.27-17.54,13.61-22.76a15.42,15.42,0,0,1,9.32-3.16,9.43,9.43,0,0,1,8.16,4.95,15.46,15.46,0,0,1,1.12,5.41C367.65,358.68,368.66,364.41,369.34,370.08Z" transform="translate(-4.4 -56.25)"/><path class="cls-6" d="M374.8,226.76c5,3.08,10.59,7.83,13.1,13.3,2.2,4.78,5.44,9.57,6.62,14.75.57,2.48.81,5.18-.31,7.46-1.51,3.09-5,4.56-8.29,5.61-12.36,4-25.35,5.66-37.84,9.22-7.7,2.2-15.45,5.15-23.43,4.57a4.56,4.56,0,0,1-2.1-.52,4.8,4.8,0,0,1-1.51-1.79c-4.83-8.5-5.45-18.68-6-28.44-.15-3-.3-6.11.59-9,1.4-4.48,5.11-7.83,8.91-10.59,6.88-5,14.73-8.88,23.13-10.13A40.75,40.75,0,0,1,374.8,226.76Z" transform="translate(-4.4 -56.25)"/><path class="cls-2" d="M324.6,282.39a5.18,5.18,0,0,1-2.42-.62,5.42,5.42,0,0,1-1.76-2c-5-8.83-5.57-19.42-6.06-28.77-.16-2.9-.33-6.2.62-9.24,1.53-4.92,5.7-8.44,9.17-11,7.79-5.65,15.68-9.11,23.45-10.26a40.25,40.25,0,0,1,5.92-.43,41.23,41.23,0,0,1,21.65,6.08c3,1.84,10.26,6.84,13.38,13.61.68,1.48,1.49,3,2.26,4.47a43.75,43.75,0,0,1,4.41,10.43c.77,3.34.65,5.87-.36,7.94-1.62,3.31-5.32,4.88-8.72,6a213.2,213.2,0,0,1-20.86,5.19c-5.61,1.2-11.41,2.44-17,4-1.3.37-2.61.77-3.92,1.16-5.72,1.73-11.64,3.51-17.66,3.51h0C326,282.46,325.28,282.44,324.6,282.39Zm23.21-60.48c-7.54,1.12-15.22,4.49-22.82,10-3.28,2.38-7.23,5.7-8.64,10.22-.87,2.79-.71,5.82-.56,8.74.48,9.18,1,19.59,5.88,28.13a3,3,0,0,0,3,1.95c.65,0,1.32.07,2,.07h0c5.81,0,11.62-1.76,17.25-3.45,1.31-.4,2.62-.8,3.94-1.17,5.64-1.61,11.46-2.85,17.09-4.05,6.86-1.47,13.95-3,20.72-5.16,3.11-1,6.48-2.41,7.86-5.24.87-1.76.95-4,.26-7-.79-3.47-2.57-6.83-4.28-10.08-.79-1.49-1.6-3-2.29-4.53-3-6.42-10-11.22-12.83-13a39.86,39.86,0,0,0-26.61-5.46Z" transform="translate(-4.4 -56.25)"/><path class="cls-7" d="M359.05,339.36a4.67,4.67,0,0,1,5.44.59q4.62,3.74,4.51,6.52.71,4.84.4,5.26a51.5,51.5,0,0,1-2.06,9.76c-1.22,7.25-.64,14-.69,21.33a9.22,9.22,0,0,1-.8,4.46c-2.05,3.69-9.92,4.41-13.77,4.44-5.1,0-10.55-1.11-12.61-6.35-1.25-3.17-1.14-6.7-.68-10.07a50.87,50.87,0,0,1,10.58-24.55C351.49,348.09,355,341.41,359.05,339.36Z" transform="translate(-4.4 -56.25)"/><path class="cls-1" d="M530.17,259.47a12.06,12.06,0,0,0-5.75-5.22,19.48,19.48,0,0,0-7.11-2.79,64,64,0,0,0-16.21-2.15,77,77,0,0,0-11,1.28q-34.51,5.76-68.52,14.15c-8.34,2.06-15.89,4.71-22.94,9.58l-1.24.88a99,99,0,0,0-8,6.57c.15-1.08.29-2.17.45-3.26q1-7.12,2.17-14.23c.24-1.54.87-3.59.34-5.15s-2.55-1.95-3.1-3.14q-.33-.72-8.94-3.93a86.31,86.31,0,0,0-41.62-.46,76.36,76.36,0,0,0-19.87,7.49c-2.53,1.41-6.19,3.12-8.11,5.34a6.13,6.13,0,0,0-.59.8c-1.58,2.52-1.94,6.42-2.68,9.18l-4.69,17.4c-.72,2.68-1.43,5.36-2.16,8a21.75,21.75,0,0,1-.85,2.81c-13.49,11.5-22.52,26.1-27.52,43.4-3.63,12.62-6.5,22.47-13.52,46-2.25,7.54-5.81,15.59-7,23.36-.87,5.68-.4,12.08-.41,17.85q5.32,21.58,10.91,23.27,14.08,7.35,24.11,5.08,16.51-8.08,22.35-13.47c6-5.53,9.69-12.61,14.72-18.88,1.84-2.29,3.74-4.69,4.43-7.56a20,20,0,0,0,.42-3.28c.76-10.48,3.68-19.83,7.13-29.75a325.55,325.55,0,0,1,17.79-41.52,106.72,106.72,0,0,0,5.41-11.45,66.05,66.05,0,0,0,2.94-11.36,31.13,31.13,0,0,0,.57-5l6.1-.67.89-.1a43.44,43.44,0,0,0-.24,4.71c0,4.25.91,8.91,4.2,11.59,2.79,2.28,6.65,2.61,10.25,2.69,21.48.45,42.49-5.69,63.05-11.15l9.43-3.38,3.56-.78c-1.21,9.68-4.57,19.19-7.47,28.63a129.48,129.48,0,0,1-13.18,28.43c-2.71,4.52-5.59,8.93-8.54,13.3-1.9,1.9-3.3,4.49-5.1,6.54a2.31,2.31,0,0,0-.72,1.33,2.27,2.27,0,0,0,.9,1.57l.14.14c7.18,6.81,16.31,11.08,25.68,14a86.34,86.34,0,0,0,14.24,3.34c5.14.67,9.76,1.84,15.06,1.54a2.78,2.78,0,0,0,1.92-.62,2.84,2.84,0,0,0,.59-1.55c.65-4.15.87-8.36,1.82-12.45a71.69,71.69,0,0,1,4.88-13.07q10.8-24,21.59-48.05c6.53-14.53,13.84-29.6,16.9-45.3l6.47-15.82C537.57,276.59,533.7,266.16,530.17,259.47Z" transform="translate(-4.4 -56.25)"/><path class="cls-4" d="M162.3,158.46c2.22-3,8.35-10.81,11.46-12,2.17-.83,4.5.54,6.47,1.78,9.05,5.71,19,9.7,29.08,13.28,3.94,1.4,8.2,2.15,12.06,3.64,4.16,1.62,7,4.83,12,3.8,1.58-.33,3-1.08,4.58-1.53a12.83,12.83,0,0,1,10.62,1.68A9.48,9.48,0,0,0,252,171a6.82,6.82,0,0,0,3.08-.46c17.33-5.36,34.6-13.38,50.84-20.88,1.09-.5,2.24-1,3.4-1.41a55.38,55.38,0,0,1,19.83-8.61c9.87-2.09,20.09-1.32,30.14-.54,14.52,1.12,40.48.38,50.19,13.45A44.54,44.54,0,0,1,415.6,164c1.06,2.18,2.14,4.36,3.3,6.46l7.74,20.1,3.87,14.46q2.34,6.3,8.83,30.82,3,17.63,2.4,19.11-.42,4.39-2.48,5.14c-1.42,2.38-3.77,4-5.88,5.85-9,7.73-13.94,18.77-19.16,29.14-6.11,12.15-14.43,23-20.67,35a2.09,2.09,0,0,1-2.88,1.3,50.17,50.17,0,0,1-28.88-17.92c-1.14-1.45-2.36-3.1-1.86-5.07a6.62,6.62,0,0,1,.92-1.89c2.27-3.64,4.58-7.24,7.14-10.68,2.23-3,3.82-6.7,5.72-9.95,4.38-7.47,8.82-14.89,13.42-22.23,1.31-2.07,2.62-4.13,3.95-6.19-3.22-2.26-10.94-5.62-11.75-5.9a96.1,96.1,0,0,0-22-4.24c-16.08-1.51-31.87,1.46-45.16,11.05a58.64,58.64,0,0,0-4.84,3.91q-3.81-23-6.74-46.09c-.48-3.77-1.19-7.51-1.8-11.25l-.27.1a255.72,255.72,0,0,1-41.82,12.28,59.05,59.05,0,0,1-12.89,1.53c-9.71-.21-18.6-4.63-26.69-9.65-7.64-4.76-15.71-7.51-23.93-11.32-10.08-4.68-20.2-9.57-28.76-16.65a17.69,17.69,0,0,1-3.23-3.24C157.38,172.76,158.61,163.47,162.3,158.46Z" transform="translate(-4.4 -56.25)"/><path class="cls-2" d="M307,425.29l36-76.85a4,4,0,0,1,4.81-1.46l6.9,3.92q.06-.22,4,4.32a21.59,21.59,0,0,1,2.72,6.72c.24,3.83-.46,6.89-2.1,9.21a79.19,79.19,0,0,0-6,8.52c-7.76,9.53-13.65,17.87-19.06,29-3.29,6.77-7.91,13.6-15,16C318.06,425.08,306.55,426.28,307,425.29Z" transform="translate(-4.4 -56.25)"/><path class="cls-5" d="M404.59,433.78q.44-4.48,8.53-19.76c1.53-2.43,2.76-3.53,3.67-3.32l.58-.09q1.25-.78,3.39,4.11.78.46,2.1,9.73a4.72,4.72,0,0,0,2.44,2.65,17.31,17.31,0,0,0,6.26.23,96.77,96.77,0,0,0,18.19-6c-.09-.07.05-.1.43-.11a17.75,17.75,0,0,1,0-5.59,11.89,11.89,0,0,1,1.94-4c2.58-2.13,4.16-3.07,4.74-2.84,2.83,0,4.57.2,5.22.67q1.47.3,9.37,6c.31.08.89,1.18,1.74,3.31a55.63,55.63,0,0,0,2.48,8.57q.42,1.71,3.94,6.2,3.42,3.65,11.9,8.07l.36.3,5.49,1.9a71.88,71.88,0,0,1,8.28,5,24.43,24.43,0,0,1,6.07,7.68,6,6,0,0,1,.74,5,6.54,6.54,0,0,1-1.78,2.27c-9.89,9-21.27,5.17-33,4.35q-4.86-1.68-10.1-3l-23.8-11.27A169.44,169.44,0,0,0,416,448.63c-6.45-2.05-9.37-3.12-8.78-3.24Q403.34,441.33,404.59,433.78Z" transform="translate(-4.4 -56.25)"/><path class="cls-4" d="M493,466.9c4.89.23,10-.79,13.73-4.14.88-.8,5.76-6.39,4.49-7.64a15.31,15.31,0,0,1,4.32,12.74c-1.68,12.38-14.32,14.21-24.46,14.34q-.7.27-10.08-.8l-4.59-1.68-18.49-5.1-12.16-4.45-5.93-1.3q-13.05-1.61-18-1.09a72.39,72.39,0,0,1-11.37-2.47c-4.33-2.38-8.16-4.93-9.21-10.09a29.28,29.28,0,0,1,0-9.06c.41-3.62,1-7.41,3.2-10.33a9,9,0,0,0,4.8,5.31,30.46,30.46,0,0,0,7,2.16c10.47,2.39,21.27,5.19,30.81,10.07q8.52,4.36,17.05,8.72,4.57,1.76,17.3,4.25Z" transform="translate(-4.4 -56.25)"/><path class="cls-3" d="M376.33,118.19c.07.6.12,1.2.18,1.81.43,4.79.77,9.58,1.25,14.37.46,4.54,2.39,8.21,5.29,11.78,4.1,5-2.61,6.59-6.58,8.65q-7.37,3.81-15,7.1c-1.57.68-3.34,1.35-5,.81a7.3,7.3,0,0,1-2.4-1.63c-5.29-4.75-10.25-8.75-14.26-14.65,3.07-3.14,4.43-6.42,5.3-10.69l2.55-12.46c1.3-6.33,2.86-13.13,7.73-17.38a9.17,9.17,0,0,1,3-1.82,8.89,8.89,0,0,1,2.81-.4,15.37,15.37,0,0,1,14.4,10.88A22.1,22.1,0,0,1,376.33,118.19Z" transform="translate(-4.4 -56.25)"/><path class="cls-2" d="M347.71,123.28c1.3-6.33,2.86-13.13,7.73-17.38l.58-.47a12.89,12.89,0,0,1,11.33-.37c5.07,2.36,8.77,7.58,8.19,13a10.62,10.62,0,0,1-.89,3.29,19.34,19.34,0,0,1-6.38,7.39,33.9,33.9,0,0,1-19.74,6.64,17.8,17.8,0,0,1-3.25-.25Z" transform="translate(-4.4 -56.25)"/><path class="cls-3" d="M359.24,65.41l.24,0a9.78,9.78,0,0,1,7.92,1.93q5.91,5.28,6.1,6a77.89,77.89,0,0,1,4.08,7.32c3.56,7.41,4.49,16.69,3.77,24.9-.49,5.63-2.46,11.32-6.49,15.28s-9.3,5.68-14.57,7.14c-4.12,1.14-8.48,2.11-12.63,1.1-5-1.21-6.4-5.67-8-10.09a51.29,51.29,0,0,1,2.82-40.93c1.95-3.63,4.54-6.37,7.34-9.31C352.16,66.29,355.92,65.63,359.24,65.41Z" transform="translate(-4.4 -56.25)"/><path class="cls-2" d="M365.08,346c.22.7.36,1.44.47,1.83a25.3,25.3,0,0,0,3.76,7.57c1.22,1.7,2.61,2.78,3.32,4.9.2.6-1.84-.29-2-.39a13.72,13.72,0,0,1-2.28-2.87c-1.56-2.09-8.31-9.17-5.48-12.14C364.07,343.68,364.7,344.77,365.08,346Z" transform="translate(-4.4 -56.25)"/><path class="cls-3" d="M353.13,326.84A64.31,64.31,0,0,1,361.54,315c1.79-2.14,3.61-4.26,5.34-6.47A36.72,36.72,0,0,1,385.47,320a2.38,2.38,0,0,1,.73,1.45,2.26,2.26,0,0,1-.44,1.2,27.89,27.89,0,0,0-2.49,4.07,14.72,14.72,0,0,0-.72,5.13c-.09,4.59-.08,9.14,0,13.73a18.41,18.41,0,0,1-.16,3.06c0,.13,0,.26,0,.4.1,1.1.21,2.21.31,3.31a8.46,8.46,0,0,0,.23,1.41,2.19,2.19,0,0,0,.12.33,6,6,0,0,0,1.64,2l5.52,5c1,.92,2.92,2.45,3.08,4,.13,1.18-.6,2-2.18,2.3q-1,.62-6.69-2.88l-.65-.45c-1.15.05-2.3.06-3.45.05-.73,0-1.45,0-2.18-.07a7.33,7.33,0,0,1-3.64-1.23,2.53,2.53,0,0,1,0,.76c-.09.49-.74.75-1.95.77a10.27,10.27,0,0,1-4.26-1.09,40.89,40.89,0,0,1-6.58-4.84,12.43,12.43,0,0,1-2.31-3h-.21l-1.47,0c0,1.84-.07,3.68,0,5.52a24,24,0,0,0,.85,6.88c.69,2.11,2,4,2.34,6.2.26,1.57-.46,3.66-2.05,3.61a3.1,3.1,0,0,1-1.9-1.06,27.72,27.72,0,0,1-8.08-18.69c-.25-5.52-1.63-12.23-.72-17.67C349,335.74,351.08,330.85,353.13,326.84Z" transform="translate(-4.4 -56.25)"/><path class="cls-3" d="M174.6,151.79l.92.26a23.3,23.3,0,0,1-7.37,20.44c-1-1.8-2.73-3-4.32-4.24a7.69,7.69,0,0,0-1.42-1,8,8,0,0,0-2.88-.61,32.31,32.31,0,0,1-7.64-1.8c-2.1-.77-3.79-.56-6-.76-4.52-.4-9.59-.72-13.63-3-5.17-2.88-9.61-6.52-16-6.24a14.73,14.73,0,0,0-8.25,3,28.48,28.48,0,0,1-4.2,3.26c-1.33.68-3.39,1.25-4.7.21-1.49-1.2-.09-3,.82-4.06a30.82,30.82,0,0,1,6.38-5.68c4.2-2.81,9-4.55,13.78-6.26,3.6-1.29,6.09-2.72,10-2.72,8.36.18,17.37.41,25.53,2.32a57.45,57.45,0,0,1,9.86,3.78A74,74,0,0,0,174.6,151.79Z" transform="translate(-4.4 -56.25)"/><path class="cls-7" d="M474.06,450.09c-9.21-5.08-16.47-13.34-21.24-22.71-1.73-3.39-3.17-7-3.19-10.85s1.66-7.79,4.94-9.71c4.39-2.56,10.27-.64,13.83,3s5.37,8.57,7.21,13.3,4,9.61,7.9,12.82c7.12,5.82,19.62,6.42,11,16.78a8.77,8.77,0,0,1-1.84,1.81C488.75,457.05,477.76,452.13,474.06,450.09Z" transform="translate(-4.4 -56.25)"/><path class="cls-7" d="M428.68,423.78A12.9,12.9,0,0,0,435,425c1.94-.09,4.16-.36,5.57,1a.61.61,0,0,1,.2.28.64.64,0,0,1-.11.42c-1.5,2.67-6,3.88-8.8,4-2.37.11-4.43-.66-6.73-.92a21.07,21.07,0,0,1-5.47-.9c-1.48-.55-2.91-1.25-4.41-1.72a15.49,15.49,0,0,0-4.58-.72c-1.37,0-3.13-.09-3.56-1.38a2.31,2.31,0,0,1,.08-1.42,4.83,4.83,0,0,1,1.3-2,9,9,0,0,0,1.74-1.64c.6-1,.41-2.21.43-3.36a6.93,6.93,0,0,1,4.47-6.48c4.2-1.32,5.8,1.88,6.91,5.24C423.39,419.29,425.54,422.24,428.68,423.78Z" transform="translate(-4.4 -56.25)"/><path class="cls-3" d="M159.37,155.68c2.79,3.93,3.06,9.14-3.27,10.45-5.58,1.15-12.11.49-17.69-.46a36.21,36.21,0,0,0-8-.92c-2.62.16-5.07,1.87-7.77,2.11a4.78,4.78,0,0,1-3.7-.9c-2.16-2-1.51-4.42,1-5.61,2.29-1.11,4.95-1,7.38-1.63a59.38,59.38,0,0,0,5.81-1.25" transform="translate(-4.4 -56.25)"/><path class="cls-2" d="M378.58,109.53a9.78,9.78,0,0,1-7.48,4,27,27,0,0,0,6.64-5.7,4.76,4.76,0,0,0,.95-1.5C379,107.78,379.47,108.3,378.58,109.53Z" transform="translate(-4.4 -56.25)"/><path class="cls-1" d="M337.54,77.32c2.46-5,6.71-11.39,11.56-14.39a21.66,21.66,0,0,1,9-2.88l1.26,0a17.35,17.35,0,0,1,5,.77c5.18,1.6,10,2.41,14.4,5.95C381.61,69,384,72.19,386,75.13A28.41,28.41,0,0,1,390.52,85a32.88,32.88,0,0,1-2.21,21.06,29.52,29.52,0,0,1-11.11,12.83c-.22.14-1.36-9.44-1.38-10.15a20.83,20.83,0,0,0-3.2-9.61c-2.2-3.74-5-7.1-7-11a8.83,8.83,0,0,1-1.22-4.41,16.3,16.3,0,0,0,3.83,15.11c-2-2.12-4.32-4-6.1-6.31a17.39,17.39,0,0,1-2.49-4.7,24.83,24.83,0,0,1-.89-3.2q-1.1-5.07-1.7-10.23a32.25,32.25,0,0,1-5.77,4.29c-2.2,1.22-4.64,2-6.8,3.27a22.57,22.57,0,0,0-6.43,4.92c-.78.91-3.65,4-3.63,5.08A31.69,31.69,0,0,1,337.54,77.32Z" transform="translate(-4.4 -56.25)"/><path class="cls-3" d="M377,96.23a4.68,4.68,0,0,1,7.35-.74c2.3,2.11,1.46,5.42,1,8.16a19.33,19.33,0,0,1-3.61,8.21c-.95,1.25-2.28,2.5-3.85,2.38a3.44,3.44,0,0,1-2.48-1.57,7.42,7.42,0,0,1-1.06-2.82A18.53,18.53,0,0,1,377,96.23Z" transform="translate(-4.4 -56.25)"/><path class="cls-8" d="M127.2,169.11a31.92,31.92,0,0,0-31.5,27.3,2.46,2.46,0,0,1-2.43,2.11,19.61,19.61,0,1,0-.39,39.22h63.73a24.49,24.49,0,0,0,1.48-48.93A2.44,2.44,0,0,1,156,187.4a31.88,31.88,0,0,0-28.81-18.29Z" transform="translate(-4.4 -56.25)"/><path class="cls-9" d="M155.94,185.13c-4.43-10.38-16.16-17.8-29.94-17.8-17.58,0-31.83,12.07-31.83,27,0,.2,0,.4,0,.6-8.46,1-18.82,5.39-22.58,20,0,0-5.61,27,37.83,27S172.73,243,181,226.49C188.4,211.62,182.72,192.79,155.94,185.13Z" transform="translate(-4.4 -56.25)"/><path class="cls-8" d="M126.51,231.84a3.67,3.67,0,0,1-3.67-3.67V202.48a7.35,7.35,0,0,0-14.69,0v25.69a3.67,3.67,0,1,1-7.34,0V202.48a14.69,14.69,0,0,1,29.37,0v25.69A3.67,3.67,0,0,1,126.51,231.84Z" transform="translate(-4.4 -56.25)"/><path class="cls-8" d="M126.51,217.16h-22a3.67,3.67,0,1,1,0-7.34h22a3.67,3.67,0,0,1,0,7.34Z" transform="translate(-4.4 -56.25)"/><path class="cls-8" d="M148.53,231.84a3.67,3.67,0,0,1-3.67-3.67v-36.7a3.67,3.67,0,0,1,7.34,0v36.7A3.67,3.67,0,0,1,148.53,231.84Z" transform="translate(-4.4 -56.25)"/><path class="cls-10" d="M122.51,277.2l3-1v-2.58a1.43,1.43,0,0,1,1.43-1.42H146c.76-.79,1.54-1.55,2.34-2.29l1.17-1.05H126.93a4.77,4.77,0,0,0-3.37,1.4,4.58,4.58,0,0,0-1,1.51,4.7,4.7,0,0,0-.37,1.85v3.68A2,2,0,0,1,122.51,277.2Z" transform="translate(-4.4 -56.25)"/><path class="cls-10" d="M154.2,280.66V299.5a1.42,1.42,0,0,1-1.43,1.42H126.93a1.42,1.42,0,0,1-1.43-1.42V286.86q-1.52-1.56-3.33-3.2V299.5a4.67,4.67,0,0,0,.37,1.85,4.73,4.73,0,0,0,1,1.52,5,5,0,0,0,1.51,1,4.75,4.75,0,0,0,1.86.37h25.84a4.71,4.71,0,0,0,1.86-.37,4.85,4.85,0,0,0,1.51-1,4.73,4.73,0,0,0,1-1.52,4.68,4.68,0,0,0,.38-1.85V275.94A55.88,55.88,0,0,0,154.2,280.66Z" transform="translate(-4.4 -56.25)"/><path class="cls-10" d="M133.59,277a38.18,38.18,0,0,1,5.4,8.18A56.78,56.78,0,0,1,163.71,262a3.84,3.84,0,0,1,3.18-.1l.78.33a.77.77,0,0,1,.13,1.34c-11.15,7.46-17.72,18-22.46,30.28a5.41,5.41,0,0,1-3,3.06l-3.91,1.6a2.33,2.33,0,0,1-3-1.18c-3-6.3-7-11-12.69-16a1.22,1.22,0,0,1,.43-2.09l8.54-2.75A1.77,1.77,0,0,1,133.59,277Z" transform="translate(-4.4 -56.25)"/><path class="cls-10" d="M194.51,338l3-1v-2.59a1.43,1.43,0,0,1,1.42-1.42H218c.76-.79,1.54-1.55,2.34-2.29l1.16-1.05H198.92a4.78,4.78,0,0,0-4.39,2.91,4.89,4.89,0,0,0-.37,1.85v3.68A2.09,2.09,0,0,1,194.51,338Z" transform="translate(-4.4 -56.25)"/><path class="cls-10" d="M226.19,341.48v18.84a1.43,1.43,0,0,1-1.42,1.43H198.92a1.43,1.43,0,0,1-1.42-1.43V347.68c-1-1-2.13-2.1-3.34-3.2v15.84a4.75,4.75,0,0,0,1.39,3.37,4.75,4.75,0,0,0,3.37,1.39h25.85a4.75,4.75,0,0,0,3.37-1.39,4.75,4.75,0,0,0,1.39-3.37V336.76C228.37,338.24,227.25,339.82,226.19,341.48Z" transform="translate(-4.4 -56.25)"/><path class="cls-10" d="M205.59,337.82A39,39,0,0,1,211,346a56.67,56.67,0,0,1,24.72-23.21,3.82,3.82,0,0,1,3.17-.1l.78.33a.77.77,0,0,1,.13,1.34c-11.15,7.46-17.71,18-22.46,30.28a5.45,5.45,0,0,1-3,3.07l-3.91,1.6a2.34,2.34,0,0,1-3-1.18c-3-6.31-7-11-12.7-16a1.23,1.23,0,0,1,.44-2.1l8.54-2.75A1.78,1.78,0,0,1,205.59,337.82Z" transform="translate(-4.4 -56.25)"/><path class="cls-10" d="M74.06,386.68l3-1v-2.58a1.43,1.43,0,0,1,1.43-1.43H97.54c.76-.79,1.54-1.55,2.34-2.29l1.17-1.05H78.48a4.72,4.72,0,0,0-1.86.38,4.8,4.8,0,0,0-1.51,1,4.58,4.58,0,0,0-1,1.51,4.72,4.72,0,0,0-.38,1.86v3.67Z" transform="translate(-4.4 -56.25)"/><path class="cls-10" d="M105.75,390.15V409a1.43,1.43,0,0,1-1.43,1.43H78.48A1.43,1.43,0,0,1,77.05,409V396.34c-1-1-2.12-2.1-3.34-3.2V409a4.75,4.75,0,0,0,4.77,4.76h25.84a4.71,4.71,0,0,0,1.86-.37,4.78,4.78,0,0,0,2.91-4.39V385.42A56.06,56.06,0,0,0,105.75,390.15Z" transform="translate(-4.4 -56.25)"/><path class="cls-10" d="M85.14,386.48a38.56,38.56,0,0,1,5.4,8.18,56.78,56.78,0,0,1,24.72-23.21,3.84,3.84,0,0,1,3.18-.1l.78.33a.77.77,0,0,1,.12,1.34c-11.15,7.46-17.71,18-22.46,30.28a5.4,5.4,0,0,1-3,3.07L90,408a2.35,2.35,0,0,1-3-1.18c-3-6.31-7-11-12.69-16a1.23,1.23,0,0,1,.43-2.1L83.25,386A1.8,1.8,0,0,1,85.14,386.48Z" transform="translate(-4.4 -56.25)"/><path class="cls-10" d="M195.94,435.23l3-1v-2.58a1.43,1.43,0,0,1,1.43-1.43h19.06c.76-.78,1.54-1.55,2.34-2.28q.57-.54,1.17-1.05H200.36a4.71,4.71,0,0,0-1.86.37,4.58,4.58,0,0,0-1.51,1,4.77,4.77,0,0,0-1.4,3.37v3.67Z" transform="translate(-4.4 -56.25)"/><path class="cls-10" d="M227.63,438.7v18.84A1.43,1.43,0,0,1,226.2,459H200.36a1.43,1.43,0,0,1-1.43-1.42V444.9c-1-1-2.12-2.11-3.34-3.21v15.85a4.71,4.71,0,0,0,.38,1.85,4.79,4.79,0,0,0,2.53,2.53,4.72,4.72,0,0,0,1.86.38H226.2a4.77,4.77,0,0,0,3.37-1.4,4.58,4.58,0,0,0,1-1.51,4.7,4.7,0,0,0,.37-1.85V434C229.8,435.46,228.69,437,227.63,438.7Z" transform="translate(-4.4 -56.25)"/><path class="cls-10" d="M207,435a39.21,39.21,0,0,1,5.4,8.18A56.65,56.65,0,0,1,237.14,420a3.76,3.76,0,0,1,3.18-.1l.77.32a.76.76,0,0,1,.13,1.34c-11.15,7.46-17.71,18-22.46,30.28a5.44,5.44,0,0,1-3,3.07l-3.91,1.6a2.35,2.35,0,0,1-3-1.18c-3-6.31-7-11-12.7-16a1.24,1.24,0,0,1,.44-2.1l8.54-2.74A1.79,1.79,0,0,1,207,435Z" transform="translate(-4.4 -56.25)"/><path class="cls-2" d="M133.88,462.21h23.54a3,3,0,0,0,3-3v-9.58a.58.58,0,0,1,.17-.41l9.66-9.55a1.86,1.86,0,0,0,.53-1.3,1.81,1.81,0,0,0-.53-1.29l-2-2a1.81,1.81,0,0,0-1.29-.53,1.86,1.86,0,0,0-1.3.53l-4.23,4.25a.6.6,0,0,1-.41.17.64.64,0,0,1-.23-.05.58.58,0,0,1-.35-.53V425.21a3.05,3.05,0,0,0-3-3H133.88a3,3,0,0,0-3,3v34A3,3,0,0,0,133.88,462.21Zm0-38.78h23.54a1.78,1.78,0,0,1,1.78,1.78v16.06a.58.58,0,0,1-.17.41l-3.61,3.61c-1.85,1.85-2.51,2.51-2.62,2.66l0,.05-3.18,6.83a.63.63,0,0,0,.13.71.6.6,0,0,0,.44.18.66.66,0,0,0,.27-.06l6.81-3.18c.1-.05.11-.05.57-.51l.41-.41a.61.61,0,0,1,.63-.12.58.58,0,0,1,.35.54v7.19a1.79,1.79,0,0,1-1.78,1.79H133.88a1.79,1.79,0,0,1-1.79-1.79v-34A1.79,1.79,0,0,1,133.88,423.43Zm29.46,15.95a.58.58,0,0,1,.41.17l2,2a.58.58,0,0,1,.17.41.55.55,0,0,1-.17.41l-9.05,9-.17.11-3.62,1.69a.54.54,0,0,1-.25.06.58.58,0,0,1-.52-.83l1.69-3.63a.61.61,0,0,1,.12-.16l9-9A.6.6,0,0,1,163.34,439.38Zm3.64-3.64h0a.58.58,0,0,1,.41.17l2,2a.59.59,0,0,1,.17.42.58.58,0,0,1-.17.41l-2,1.92a.57.57,0,0,1-.81,0l-2-2a.57.57,0,0,1-.17-.41.58.58,0,0,1,.17-.41l1.93-1.93A.58.58,0,0,1,167,435.74Z" transform="translate(-4.4 -56.25)"/><path class="cls-2" d="M136.69,431.23h18a.63.63,0,0,0,0-1.25h-18a.63.63,0,1,0,0,1.25Z" transform="translate(-4.4 -56.25)"/><path class="cls-2" d="M136.69,437.67h14.14a.63.63,0,1,0,0-1.25H136.69a.63.63,0,1,0,0,1.25Z" transform="translate(-4.4 -56.25)"/><path class="cls-2" d="M136.69,444.11H147a.63.63,0,1,0,0-1.26H136.69a.63.63,0,0,0,0,1.26Z" transform="translate(-4.4 -56.25)"/><path class="cls-2" d="M50.3,402.74h0a1.82,1.82,0,0,0-.32,1v2h.55a1.32,1.32,0,0,1,1.32,1.31v3.77a1.32,1.32,0,0,1-1.32,1.32H48.28a.72.72,0,1,1,0-1.44h2.13v-3.52H43.2v3.52h2.2a.72.72,0,1,1,0,1.44H43.07a1.32,1.32,0,0,1-1.31-1.32v-3.77a1.31,1.31,0,0,1,1.31-1.31h.27l-.05-2.2a3.52,3.52,0,0,0-.18-1,3.92,3.92,0,0,1-.2-1.76H32.07c-.1,0-.07.05-.25.44a1.52,1.52,0,0,1-1.45,1.05H27.53a1.53,1.53,0,0,1-1.45-1.05c-.18-.39-.15-.44-.24-.44H15a4.07,4.07,0,0,1-.21,1.76,3.52,3.52,0,0,0-.18,1l0,2.2h.26a1.32,1.32,0,0,1,1.32,1.31v3.77a1.32,1.32,0,0,1-1.32,1.32H11.66a.72.72,0,1,1,0-1.44h3.05v-3.52H7.49v3.52h1.3a.72.72,0,1,1,0,1.44H7.37a1.32,1.32,0,0,1-1.31-1.32v-3.77a1.31,1.31,0,0,1,1.31-1.31h.55v-2a1.82,1.82,0,0,0-.32-1l-2.41-3.53a4.53,4.53,0,0,1,.59-5.81L10.35,389v-7.84a1.54,1.54,0,0,1,1.54-1.54h1.44V378a1.21,1.21,0,0,1,1.21-1.21h4.57a.72.72,0,1,1,0,1.44H14.77v13a1.92,1.92,0,0,1,1.72,2.81l-1.08,2.09H27.1a1.14,1.14,0,0,0,1.13-1.14v-13.6a3.19,3.19,0,0,0-3.19-3.2H22a.72.72,0,1,1,0-1.44H25A4.62,4.62,0,0,1,29,379a4.62,4.62,0,0,1,3.91-2.16h10.5A1.21,1.21,0,0,1,44.57,378v1.54H46a1.54,1.54,0,0,1,1.55,1.54V389l4.57,4.45a4.53,4.53,0,0,1,.58,5.81ZM46,381H44.57V392l1.55,1.61V381.11A.1.1,0,0,0,46,381Zm-13.15-2.75h0a3.19,3.19,0,0,0-3.19,3.2v13.6a1.14,1.14,0,0,0,1.13,1.14H42.49l-1.08-2.09a1.93,1.93,0,0,1,1.73-2.81v-13Zm-21,2.75a.1.1,0,0,0-.11.1v12.45L13.33,392V381ZM9.36,405.74h3.77l0-2.23a4.77,4.77,0,0,1,.27-1.45,2.67,2.67,0,0,0-.46-2.55,1.32,1.32,0,0,1-.14-1.47l2.37-4.59a.49.49,0,0,0-.09-.57.48.48,0,0,0-.69,0L10,397.5a.72.72,0,0,1-1,0,.73.73,0,0,1,0-1l1.39-1.44V391l-3.57,3.47a3.1,3.1,0,0,0-.4,4l2.41,3.53a3.25,3.25,0,0,1,.57,1.84Zm22.71-6.42H43.33a4.66,4.66,0,0,1,.43-.66l-.53-1H30.8a2.6,2.6,0,0,1-1.85-.79,2.58,2.58,0,0,1-1.85.79H14.67l-.53,1a3.93,3.93,0,0,1,.43.66H25.84a1.53,1.53,0,0,1,1.45,1.05c.18.39.15.45.24.45h2.84c.09,0,.06-.05.25-.45A1.52,1.52,0,0,1,32.07,399.32Zm12.71,6.42h3.77v-2a3.24,3.24,0,0,1,.56-1.84l2.41-3.53a3.09,3.09,0,0,0-.4-4L47.56,391v4.1l1.38,1.44a.72.72,0,0,1-1,1l-4.42-4.61a.49.49,0,0,0-.7,0,.49.49,0,0,0-.09.57L45.06,398a1.32,1.32,0,0,1-.14,1.47,2.67,2.67,0,0,0-.45,2.55,4.76,4.76,0,0,1,.26,1.45Z" transform="translate(-4.4 -56.25)"/><path class="cls-2" d="M32.73,382.41a.72.72,0,1,1,0-1.44H39.6a.72.72,0,1,1,0,1.44Z" transform="translate(-4.4 -56.25)"/><path class="cls-2" d="M32.73,386.1a.72.72,0,1,1,0-1.44H39.6a.72.72,0,0,1,0,1.44Z" transform="translate(-4.4 -56.25)"/><path class="cls-2" d="M32.73,389.79a.72.72,0,1,1,0-1.44H39.6a.72.72,0,1,1,0,1.44Z" transform="translate(-4.4 -56.25)"/><path class="cls-2" d="M32.73,393.49a.72.72,0,1,1,0-1.44H39.6a.72.72,0,0,1,0,1.44Z" transform="translate(-4.4 -56.25)"/><path class="cls-2" d="M25.17,381a.72.72,0,1,1,0,1.44H18.31a.72.72,0,0,1,0-1.44Z" transform="translate(-4.4 -56.25)"/><path class="cls-2" d="M25.17,384.66a.72.72,0,0,1,0,1.44H18.31a.72.72,0,0,1,0-1.44Z" transform="translate(-4.4 -56.25)"/><path class="cls-2" d="M25.17,388.35a.72.72,0,1,1,0,1.44H18.31a.72.72,0,0,1,0-1.44Z" transform="translate(-4.4 -56.25)"/><path class="cls-2" d="M25.17,392.05a.72.72,0,0,1,0,1.44H18.31a.72.72,0,0,1,0-1.44Z" transform="translate(-4.4 -56.25)"/><path class="cls-2" d="M152.66,352.45a4.72,4.72,0,0,1,3.43,4.53v5.66H122.58V357a4.72,4.72,0,0,1,3.44-4.53l8.62-2.4v-.54a13.55,13.55,0,0,0-.69-4.28,13.69,13.69,0,0,0-1.61-3.28L130,338.46a10.79,10.79,0,0,1,9.4-16.09h.37a44.42,44.42,0,0,0,10.8-1.32l.43-.11.84,1.13a7.86,7.86,0,0,1-.72,10.26l-.23.23a4,4,0,0,1,.51,2,7.2,7.2,0,0,0,1.43,4.29l.25.33a1.74,1.74,0,0,1,.33,1,1.67,1.67,0,0,1-1.59,1.67l-.82,1.63a2.74,2.74,0,0,0-.27,1.16,3.93,3.93,0,0,1-3.92,3.93l-1,0L144,348v2.08Zm-9.19-1.16-3,2L143,355.4l1-4Zm8.28-11.67a8.52,8.52,0,0,1-1.69-5.09,2.77,2.77,0,0,0-2.76-2.76h-4.14a4.46,4.46,0,0,0-3.51,1.69,4.53,4.53,0,0,0-1,2.81v1.54h-1.34a1.34,1.34,0,1,0,0,2.68h1.34v.68a8.71,8.71,0,0,1-2.57,6.2l-.25.25a15,15,0,0,1,.14,1.89v.69l3.35,2.24,3.35-2.24v-2.63l-3.55-1.06.39-1.29,6.61,2h.67a2.59,2.59,0,0,0,2.58-2.59,3.84,3.84,0,0,1,.42-1.76l1.18-2.37h.75a.33.33,0,0,0,.33-.33.31.31,0,0,0-.07-.2ZM135.2,351.29l-.49.14,1,4,2.51-2.09Zm-1.75-10.09a14.7,14.7,0,0,1,1.77,3.6c.13.39.24.78.34,1.18a7.41,7.41,0,0,0,1.74-4.14,2.69,2.69,0,0,1,0-5.37v-.2a5.82,5.82,0,0,1,5.83-5.84h4.14a4,4,0,0,1,2.75,1.07l.12-.12a6.45,6.45,0,0,0,1.9-4.6,6.56,6.56,0,0,0-1.3-3.91l-.31-.41a45.9,45.9,0,0,1-10.69,1.25h-.37a9.46,9.46,0,0,0-8.26,14.05Zm21.3,20.1V357a3.36,3.36,0,0,0-2.45-3.23l-7.05-2-1.5,6-4.41-3.68-4.42,3.68-1.5-6-7,2a3.36,3.36,0,0,0-2.45,3.23v4.32Z" transform="translate(-4.4 -56.25)"/><path class="cls-2" d="M161.39,335.19a9.4,9.4,0,0,1,0,13.29l-.95-1a8.05,8.05,0,0,0,0-11.39Z" transform="translate(-4.4 -56.25)"/><path class="cls-2" d="M159.49,337.09a6.7,6.7,0,0,1,0,9.49l-.94-.95a5.37,5.37,0,0,0,0-7.59Z" transform="translate(-4.4 -56.25)"/><path class="cls-2" d="M157.6,339a4,4,0,0,1,0,5.69l-.95-.94a2.7,2.7,0,0,0,0-3.8Z" transform="translate(-4.4 -56.25)"/><path class="cls-2" d="M81.07,286.72h0a12.33,12.33,0,0,0-3.86,7.94.31.31,0,0,1,0,.1,10.67,10.67,0,0,1-2.8,6.11,8.05,8.05,0,0,1-5,2.41q-.34,0-.69,0a7.68,7.68,0,0,1-4.21-1.25,8.39,8.39,0,0,1-3.33-4.48,95.25,95.25,0,0,1-3-13.29c-.76-4.92-1.42-11.72-.29-16.18a12.15,12.15,0,0,1,4.17-6.53A14.48,14.48,0,0,1,69,258.63a17.07,17.07,0,0,1,8.89,1.05A14.78,14.78,0,0,1,85,265.6a.89.89,0,0,1-.29,1.21.88.88,0,0,1-1.2-.29c-3.22-5.25-9.45-6.87-14.2-6.15-4.94.75-8.54,3.8-9.65,8.17-2,8,1.95,24.71,3.2,28.48a6.13,6.13,0,0,0,6.41,4.51c2.45-.22,5.54-2.18,6.22-7a14,14,0,0,1,4.42-9.12c3.72-3.46,5.61-6.15,5.61-11.23,0-.2,0-.42,0-.67a.86.86,0,0,1,.84-.9h0a.88.88,0,0,1,.88.85c0,.26,0,.5,0,.72a14.37,14.37,0,0,1-1.63,7.07A21.27,21.27,0,0,1,81.07,286.72Z" transform="translate(-4.4 -56.25)"/><path class="cls-2" d="M76.3,281.59h0c2.73-2.54,3.93-4,3.93-7.38,0-2.74-.86-6.37-5-8a9.12,9.12,0,0,0-8.67.82,4.9,4.9,0,0,0-1.84,2.83,3.58,3.58,0,0,0,.18,2.45c.39.9,1,.92,2.49.75l.65-.07a4.16,4.16,0,0,1,2.88,7.46.86.86,0,0,1-1.22-.16.88.88,0,0,1,.16-1.23,2.43,2.43,0,0,0,.93-1.6,2.37,2.37,0,0,0-.47-1.78,2.41,2.41,0,0,0-2.13-.94l-.6.06c-1.41.16-3.34.38-4.3-1.77a5.33,5.33,0,0,1-.27-3.58,6.72,6.72,0,0,1,2.46-3.81,9.42,9.42,0,0,1,5.1-1.86,12,12,0,0,1,5.3.8c3.93,1.6,6.1,5,6.1,9.67,0,4.19-1.7,6.07-4.5,8.66a22.34,22.34,0,0,0-4.07,5.7C72.2,290.8,70.54,292,68.77,292a3.26,3.26,0,0,1-.7-.07c-2.1-.38-3.73-2.49-4.15-5.37a.88.88,0,0,1,1.74-.25c.3,2.12,1.37,3.65,2.72,3.9s2.51-.7,3.51-2.51A23.59,23.59,0,0,1,76.3,281.59Z" transform="translate(-4.4 -56.25)"/><path class="cls-2" d="M96.6,287.08h0a15.45,15.45,0,0,0-15.43,15.44.88.88,0,0,1-1.75,0A17.21,17.21,0,0,1,96.6,285.33a.88.88,0,1,1,0,1.75Z" transform="translate(-4.4 -56.25)"/><path class="cls-2" d="M96.6,290h0a.88.88,0,1,1,0,1.75,10.8,10.8,0,0,0-10.79,10.8.88.88,0,0,1-1.75,0A12.56,12.56,0,0,1,96.6,290Z" transform="translate(-4.4 -56.25)"/><path class="cls-2" d="M96.6,294.61h0a.88.88,0,1,1,0,1.75,6.16,6.16,0,0,0-6.15,6.16.88.88,0,0,1-1.75,0A7.91,7.91,0,0,1,96.6,294.61Z" transform="translate(-4.4 -56.25)"/><path class="cls-2" d="M85.15,270.26a.88.88,0,0,1,0-1.24.86.86,0,0,1,1.24,0,.88.88,0,1,1-1.24,1.24Z" transform="translate(-4.4 -56.25)"/><path class="cls-11" d="M391.69,182.9s-8.25,14.83.46,37.41,6.49,24-3.86,38.72" transform="translate(-4.4 -56.25)"/><path class="cls-12" d="M333.17,146.81s-5.57,5.18,0,12.05S351,176.72,351,176.72s4,5.14,13.23,0c5.23-2.93,10.38-6,15.51-9.07,2.47-1.48,4.93-3,7.39-4.47,2.81-1.68,5-3.44,5.32-6.81a8.49,8.49,0,0,0-3.79-8.06" transform="translate(-4.4 -56.25)"/></svg>